<svg xmlns="http://www.w3.org/2000/svg" viewBox="0 0 480 270"><defs><style>.cls-1{fill:#e6e6e6;}</style></defs><title>stimuli</title><g id="固定背景"><rect class="cls-1" width="480" height="270"/></g><g id="テキスト"><path d="M189.746,40.852c2.915,5.8,7.811,11.123,13.21,13.858a15.216,15.216,0,0,0-2.519,2.952c-5.148-2.916-9.576-7.991-12.743-13.822v9.61h6.444v3.384h-6.444v6.371h-3.528V56.834h-6.587V53.45h6.587V43.876A36.569,36.569,0,0,1,171.5,57.77,19.329,19.329,0,0,0,169.12,55c5.22-2.771,10.079-8.279,13.03-14.146H170.38V37.469h13.786V30.2h3.528v7.272h13.93v3.383Z"/><path d="M226.789,42.832a36.232,36.232,0,0,0,12.023,5.8,12.79,12.79,0,0,0-2.2,2.808c-.971-.325-1.979-.684-2.952-1.117V63.133h-3.347V62.089H213.976v1.188h-3.241V50.211c-1.115.54-2.267,1.008-3.347,1.4a12.959,12.959,0,0,0-2.123-2.592,35.779,35.779,0,0,0,11.626-6.19H206.2V40.024h7.379a21.654,21.654,0,0,0-2.376-4.068l1.908-.72c-1.4.073-2.807.109-4.175.145a10.585,10.585,0,0,0-.684-2.592c8.531-.252,18.645-1.044,24.369-2.231l2.159,2.411a101.3,101.3,0,0,1-11.266,1.584v5.471h4.5l-1.153-.36a36.09,36.09,0,0,0,2.7-5.4l3.634.971c-1.044,1.693-2.159,3.493-3.095,4.788h7.7v2.808Zm4.859,6.515a33.024,33.024,0,0,1-8.134-5.831v5.219H220.2V43.659a36.312,36.312,0,0,1-7.81,5.688Zm-11.337,2.628h-6.335v2.519h6.335ZM213.976,59.5h6.335V56.8h-6.335ZM220.2,34.841c-1.943.143-3.923.252-5.867.359a17.261,17.261,0,0,1,2.519,4.248l-1.475.576H220.2Zm10.115,17.134h-6.839v2.519h6.839Zm0,7.523V56.8h-6.839v2.7Z"/><path d="M246.124,36.137c2.592-.252,8.963-.865,15.514-1.405,3.78-.323,7.38-.54,9.791-.611l.036,3.635a34.162,34.162,0,0,0-6.947.5,11.786,11.786,0,0,0-7.847,10.691c0,6.515,6.047,8.639,11.914,8.927l-1.3,3.815c-6.982-.36-14.29-4.1-14.29-11.95a14.121,14.121,0,0,1,6.012-11.555c-3.1.325-11.843,1.188-15.839,2.052l-.36-3.924C244.181,36.28,245.4,36.208,246.124,36.137Zm23.253,10.51-2.231,1.008a34.132,34.132,0,0,0-2.88-5.04l2.16-.935A50.433,50.433,0,0,1,269.377,46.647Zm4.1-1.656-2.195,1.08a33.722,33.722,0,0,0-3.024-4.967l2.16-.972A56.307,56.307,0,0,1,273.48,44.991Z"/><path d="M309.3,39.521c-2.124-.109-5.472-.181-10.655-.181.036,1.908.036,4,.036,5.579a8.739,8.739,0,0,1,1.259,4.752c0,4.751-2.519,10.331-10.978,12.778l-3.06-3.023c4.176-.937,7.451-2.484,9.179-5.148a6.073,6.073,0,0,1-8.494-5.723,6.455,6.455,0,0,1,6.658-6.408,6.981,6.981,0,0,1,1.981.252l-.037-3.023c-5.4.072-11.23.288-15.658.576l-.108-3.456c4.032-.035,10.655-.252,15.73-.323-.036-.756-.036-1.4-.072-1.8-.071-.9-.18-2.088-.288-2.592h4.1c-.071.468-.179,2.088-.179,2.592-.036.432-.036,1.044-.036,1.764h10.655ZM293.246,51.65c1.836,0,3.2-1.475,2.736-4.859a2.912,2.912,0,0,0-2.771-1.655,3.2,3.2,0,0,0-3.2,3.347A3.1,3.1,0,0,0,293.246,51.65Z"/><path d="M100.785,131.021a1.443,1.443,0,1,1-1.442,1.443A1.442,1.442,0,0,1,100.785,131.021Z"/><path d="M115.136,126.062a18.276,18.276,0,0,0,6.107,5.24,4.878,4.878,0,0,0-.631.812,21.27,21.27,0,0,1-5.883-5.127,18.693,18.693,0,0,1-5.771,5.211,2.737,2.737,0,0,0-.574-.728,16.972,16.972,0,0,0,5.827-5.408Zm.084,11.529h5.533v.854H108.888v-.854h5.379v-2.4h-4.23v-.84h4.23v-2.283h-3.628v-.841H119v.841H115.22v2.283h4.3v.84h-4.3Z"/><path d="M122.426,131.512h7.2v.854h-7.2Zm7-3.026h-6.64v-.812h2.857v-1.541h.883v1.541h2.9Zm-6.052,5.155h5.435v5.127h-.9v-.757h-3.656v.841h-.883Zm.911-2.339a9.448,9.448,0,0,0-.616-2.3l.77-.168a8.524,8.524,0,0,1,.659,2.283Zm-.028,3.166v2.717h3.656v-2.717Zm2.647-3.307a23.5,23.5,0,0,0,.813-2.436l.883.223c-.3.826-.645,1.78-.954,2.409Zm8.279-3.851c-.575,1.316-1.317,2.927-1.975,4.215a4.553,4.553,0,0,1,1.82,3.418,2.008,2.008,0,0,1-.672,1.78,1.948,1.948,0,0,1-.91.307,7.279,7.279,0,0,1-1.233.015,2.162,2.162,0,0,0-.266-.925,8.354,8.354,0,0,0,1.149.028,1.263,1.263,0,0,0,.616-.168c.308-.168.406-.616.406-1.121-.014-.9-.42-1.961-1.891-3.208.63-1.217,1.275-2.731,1.723-3.865h-2.829v11.052h-.9V126.917h4.145l.154-.042Z"/><path d="M138.177,128.57c.854-.084,3.544-.35,6.094-.56,1.526-.14,2.787-.21,3.7-.239l.014,1a11.435,11.435,0,0,0-2.717.223,4.975,4.975,0,0,0-3.222,4.469c0,2.787,2.592,3.642,4.833,3.726l-.364,1.037c-2.494-.084-5.463-1.429-5.463-4.539a5.605,5.605,0,0,1,2.661-4.748c-1.219.139-5.141.517-6.626.826l-.126-1.12C137.49,128.626,137.911,128.6,138.177,128.57Zm8.993,3.909-.658.307a12.729,12.729,0,0,0-1.15-1.989l.645-.279A17.68,17.68,0,0,1,147.17,132.479Zm1.583-.6-.659.322a13.764,13.764,0,0,0-1.191-1.961l.631-.308A17.4,17.4,0,0,1,148.753,131.876Z"/><path d="M154.528,136.835h2.3v-7.858h-1.806v-.743a5.9,5.9,0,0,0,2.073-.7h.868v9.3h2.087v.952h-5.519Z"/><path d="M161.667,132.618c0-3.557,1.219-5.266,3.152-5.266s3.123,1.722,3.123,5.266c0,3.586-1.2,5.351-3.123,5.351S161.667,136.2,161.667,132.618Zm5.169,0c0-3-.813-4.342-2.017-4.342s-2.046,1.345-2.046,4.342c0,3.054.828,4.427,2.046,4.427S166.836,135.672,166.836,132.618Z"/><path d="M169.353,132.618c0-3.557,1.218-5.266,3.152-5.266s3.123,1.722,3.123,5.266c0,3.586-1.2,5.351-3.123,5.351S169.353,136.2,169.353,132.618Zm5.168,0c0-3-.812-4.342-2.016-4.342s-2.046,1.345-2.046,4.342c0,3.054.827,4.427,2.046,4.427S174.521,135.672,174.521,132.618Z"/><path d="M192.641,126.665v12.158h-.981v-.742H182v.742h-.938V126.665ZM191.66,137.2v-9.6H182v9.6Zm-2.171-7.312V134.9h-5.35v-5.014Zm-.925.826h-3.543v3.349h3.543Z"/><path d="M203.644,130.924a3.381,3.381,0,0,1,2.773,3.264c0,1.988-1.345,3.683-4.524,4.2l-.547-.855c2.466-.266,4.091-1.541,4.091-3.4a2.526,2.526,0,0,0-2.088-2.423,11.833,11.833,0,0,1-3.081,4.538c.1.393.21.771.322,1.121l-.911.28c-.084-.252-.154-.518-.238-.812a4.73,4.73,0,0,1-2.368.8,1.531,1.531,0,0,1-1.61-1.7c0-1.792,1.583-3.627,3.474-4.482.028-.715.1-1.429.154-2.088-.309.015-.616.015-.91.015-.576,0-1.654-.057-2.2-.084l-.028-.967a18.716,18.716,0,0,0,2.241.168c.336,0,.659,0,.994-.014.042-.434.084-.812.113-1.121a5.283,5.283,0,0,0,.028-.616l1.065.028a3.665,3.665,0,0,0-.141.588c-.056.294-.126.673-.182,1.093a28.772,28.772,0,0,0,4.875-.574l.014.938a43.952,43.952,0,0,1-5,.519c-.056.559-.1,1.162-.14,1.778a8.788,8.788,0,0,1,2.368-.378c.181,0,.364.014.545.029l.057-.225a6.051,6.051,0,0,0,.14-.714l1.009.238c-.084.182-.183.5-.252.714Zm-4.749,1.484a4.5,4.5,0,0,0-2.48,3.376c0,.588.28.883.813.883a3.69,3.69,0,0,0,2-.785,16.74,16.74,0,0,1-.335-3.123Zm3.557-.841h-.265a6.76,6.76,0,0,0-2.4.449c-.014.211-.014.434-.014.644a13.822,13.822,0,0,0,.252,2.55A9.358,9.358,0,0,0,202.452,131.567Z"/><path d="M212.559,126.819a26.563,26.563,0,0,0-.659,4.02c.533-1.5,2.017-3.319,3.81-3.319,1.835,0,3.138,1.848,3.138,4.734,0,3.838-2.438,5.5-5.827,6.121l-.588-.9c2.983-.449,5.379-1.708,5.379-5.2,0-2.213-.729-3.852-2.256-3.852-1.737,0-3.375,2.521-3.558,4.342a5.614,5.614,0,0,0,.028,1.738l-.98.084a16.724,16.724,0,0,1-.141-2.186,35.268,35.268,0,0,1,.435-4.482c.056-.435.084-.826.112-1.149Z"/><path d="M233.311,137.577a10.113,10.113,0,0,0-3.433-2.1c.015.378.028.686.028.911,0,.924-.588,1.932-2.4,1.932-1.961,0-3.054-.7-3.054-2.016,0-1.234,1.205-2.074,3.194-2.074a6.934,6.934,0,0,1,1.219.1c-.028-.658-.057-1.358-.07-1.961H228c-.966,0-2.493-.084-3.5-.2v-.952a27,27,0,0,0,3.517.252h.755v-2.1c-.223.015-.461.015-.7.015a30.316,30.316,0,0,1-3.305-.21v-.925a22.381,22.381,0,0,0,3.292.266h.727v-.952a6.527,6.527,0,0,0-.056-.813h1.065c-.027.238-.056.49-.069.91,0,.169-.015.463-.015.827a31.6,31.6,0,0,0,3.614-.364l.014.939c-1.135.112-2.325.223-3.628.28v2.1a35.117,35.117,0,0,0,3.894-.378v.953c-1.331.169-2.563.266-3.879.322.027.743.069,1.513.1,2.185a11.646,11.646,0,0,1,4.063,2.186ZM228.9,135.21a7.352,7.352,0,0,0-1.372-.141c-1.386,0-2.129.533-2.129,1.192s.56,1.162,2,1.162c.813,0,1.514-.238,1.514-1.233C228.912,135.938,228.9,135.588,228.9,135.21Z"/><path d="M244.467,129.452c0,.813.013,1.682.027,2.312a3.453,3.453,0,0,1,.435,1.751c0,1.891-.883,3.936-4.076,4.9l-.869-.84c1.905-.448,3.18-1.261,3.7-2.577a1.864,1.864,0,0,1-1.26.434,2.2,2.2,0,0,1-2.27-2.3,2.392,2.392,0,0,1,2.4-2.382,2.468,2.468,0,0,1,.994.2l-.014-1.484c-2.115.013-4.51.112-6.248.238l-.027-.98c1.541-.029,4.145-.113,6.261-.141-.014-.42-.014-.784-.028-.994a5.141,5.141,0,0,0-.1-.813h1.163a6.823,6.823,0,0,0-.071.8c-.013.238-.013.589-.013.995h.294c1.737,0,3.376,0,4.006.014v.938c-.771-.042-2-.07-4.02-.07Zm-.616,3.124a1.285,1.285,0,0,0-1.3-.967,1.46,1.46,0,0,0-1.457,1.514,1.378,1.378,0,0,0,1.471,1.429C243.416,134.552,243.948,133.879,243.851,132.576Z"/><path d="M254.671,136.484a2.109,2.109,0,1,1-2.115-2.1A2.105,2.105,0,0,1,254.671,136.484Zm-.659,0a1.45,1.45,0,1,0-1.456,1.457A1.452,1.452,0,0,0,254.012,136.484Z"/><path d="M100.785,155.021a1.443,1.443,0,1,1-1.442,1.443A1.442,1.442,0,0,1,100.785,155.021Z"/><path d="M113.091,153.648a17.276,17.276,0,0,1-1.261,1.793v7.677h-1.976v-5.5a12.02,12.02,0,0,1-1.05.91,14.415,14.415,0,0,0-.924-2.128,13.2,13.2,0,0,0,3.432-3.5Zm-.28-3.039a15.733,15.733,0,0,1-3.839,3.628,13.508,13.508,0,0,0-.994-1.737,10.1,10.1,0,0,0,2.9-2.676Zm8.376,8.951h-1.821v1.611c0,.883-.154,1.358-.757,1.639a5.2,5.2,0,0,1-2.213.294,7.023,7.023,0,0,0-.574-1.709l-1.079.756a11.741,11.741,0,0,0-1.555-1.905l1.023-.686h-1.793v-1.709h4.889v-.56H112.8v-1.653h8.083v1.653h-1.513v.56h1.821Zm-.645-4.342h-7.13V150.2h7.13Zm-3.235,4.342h-2.423a11.731,11.731,0,0,1,1.372,1.527l-.308.224c.434.014.952.014,1.107.014.2-.014.252-.056.252-.211Zm1.176-7.956h-3.109v.448h3.109Zm0,1.75h-3.109v.462h3.109Z"/><path d="M122.09,162.123a7.541,7.541,0,0,0,1.681-2.717l1.96.49a8.919,8.919,0,0,1-1.751,3.152Zm11.71-3.109h-9.974v-5.156h3.881v-4.047h2.073V150.9h4.874v1.891H129.78v1.064h4.02Zm-2.087-3.279h-5.94v1.4h5.94Zm-3.684,4.063a19.914,19.914,0,0,1,.407,3l-2.06.252a21.292,21.292,0,0,0-.28-3.054Zm2.8-.21a17.352,17.352,0,0,1,1.079,2.857l-1.989.5a17.379,17.379,0,0,0-.952-2.942Zm2.816-.309a18.051,18.051,0,0,1,1.821,3l-1.975.757a16.3,16.3,0,0,0-1.681-3.1Z"/><path d="M142.394,150.819c-.1.42-.211.939-.3,1.33s-.154.757-.239,1.122c.365-.029.687-.042.939-.042,1.6,0,2.647.756,2.647,2.829a13.869,13.869,0,0,1-.769,5.085,2.375,2.375,0,0,1-2.424,1.344,8.243,8.243,0,0,1-1.681-.2l-.364-2.213a8.811,8.811,0,0,0,1.694.294.943.943,0,0,0,.94-.532,9.93,9.93,0,0,0,.517-3.558c0-1.009-.42-1.135-1.288-1.135-.154,0-.392.014-.644.029a31.365,31.365,0,0,1-2.774,7.4l-2.2-.882a20.184,20.184,0,0,0,2.732-6.261c-.365.055-.673.1-.87.126-.448.055-1.246.168-1.708.252l-.182-2.255a15.739,15.739,0,0,0,1.611,0c.406-.014.981-.056,1.6-.1a13.853,13.853,0,0,0,.265-2.9Zm4.93,1.485a25.506,25.506,0,0,1,2.241,4.987l-2.143.994a15.326,15.326,0,0,0-2.27-5.365l1.219-.5a18.163,18.163,0,0,0-.952-1.709l1.316-.532c.351.518.841,1.429,1.093,1.919Zm.924-.336a15.628,15.628,0,0,0-1.106-1.933l1.316-.532a20.127,20.127,0,0,1,1.107,1.9Z"/><path d="M162.711,157.36a8.673,8.673,0,0,1-1.611,3.279,7.933,7.933,0,0,0,2.283.882,6.906,6.906,0,0,0-1.191,1.583,7.861,7.861,0,0,1-2.437-1.163,9.312,9.312,0,0,1-2.171,1.2,7.293,7.293,0,0,0-.841-1.3v1.275H154.8v-1.009c-1.556.113-3.11.224-4.329.323l-.126-1.738c.35-.013.742-.027,1.163-.055v-4.007h-1.037v-1.6h12.621v1.6h-6.346v4.847a6.609,6.609,0,0,0,1.625-.855,8.733,8.733,0,0,1-1.135-1.849l1.066-.294H157v-1.527h4.118l.336-.056Zm-1.261-2.674h-9.344v-4.427h9.344Zm-8.1,1.946v.337H154.8v-.337Zm0,2.088H154.8v-.379h-1.443Zm1.443,1.736v-.364h-1.443v.448Zm4.608-8.923h-5.351v.337h5.351Zm0,1.528h-5.351v.349h5.351Zm-.463,5.42a5.242,5.242,0,0,0,.687.981,5.623,5.623,0,0,0,.644-.981Z"/><path d="M172.312,155.554a8.833,8.833,0,0,0,5.113,5.575,8.761,8.761,0,0,0-1.513,1.933,10,10,0,0,1-5.085-5.477,9.682,9.682,0,0,1-5.043,5.477,6.363,6.363,0,0,0-1.541-1.737,8.1,8.1,0,0,0,4.917-5.771h-4.637v-2.116H169.5c.1-1.232.084-2.464.1-3.627h2.241c-.015,1.163-.028,2.395-.141,3.627h5.379v2.116Z"/><path d="M182.151,150.987a13.414,13.414,0,0,0-.391,1.415,35.929,35.929,0,0,0-.659,4.945,2.588,2.588,0,0,0,.014.322c.182-.393.35-.673.532-1.065l1.023.8a35.894,35.894,0,0,0-1.009,3.573,4.446,4.446,0,0,0-.084.658c0,.154,0,.406.015.631l-1.934.126a17.691,17.691,0,0,1-.56-4.567,39.261,39.261,0,0,1,.547-5.463c.055-.421.154-1.05.167-1.569Zm3.279,6.92a4.642,4.642,0,0,0-.141,1.107c0,.616.574.84,1.709.84a16.627,16.627,0,0,0,3.5-.364l.042,2.269a19.925,19.925,0,0,1-3.656.266c-2.423,0-3.628-.911-3.628-2.381a8.334,8.334,0,0,1,.253-1.905Zm4.677-6.094v2.172a42.132,42.132,0,0,1-6.092,0L184,151.828A31.7,31.7,0,0,0,190.107,151.813Z"/><path d="M199.85,153.747a22.389,22.389,0,0,1-2.354.476,25.7,25.7,0,0,1-2.941,5.967l-2.032-1.022a21.623,21.623,0,0,0,2.76-4.749c-.154.015-.308.015-.448.015-.589,0-1.148-.015-1.793-.057l-.154-1.933c.644.07,1.47.1,1.933.1.365,0,.714-.014,1.078-.042a10.966,10.966,0,0,0,.351-2.27l2.3.225c-.1.435-.252,1.065-.448,1.765.644-.126,1.232-.266,1.7-.407Zm1.947,1.05c-.042.6-.015,1.261,0,1.947.014.322.042.869.07,1.444a8.934,8.934,0,0,1,2.871,1.806l-1.106,1.807a14.711,14.711,0,0,0-1.681-1.414c-.042,1.33-.77,2.325-2.816,2.325-1.835,0-3.264-.855-3.264-2.466,0-1.387,1.093-2.577,3.236-2.577a6.185,6.185,0,0,1,.729.042c-.057-.994-.112-2.129-.154-2.914Zm-1.892,4.665a5.068,5.068,0,0,0-.938-.1c-.686,0-1.107.28-1.107.672,0,.448.378.757.967.757.826,0,1.078-.49,1.078-1.261Zm4.049-3.727a19.993,19.993,0,0,0-3.418-2l1.078-1.667a27.723,27.723,0,0,1,3.531,1.906Z"/><path d="M216.791,152.248c-.364.224-.714.435-1.064.672-.785.532-2,1.527-2.76,2.115a4.745,4.745,0,0,1,.967-.084c2.38,0,4.258,1.528,4.258,3.614,0,2.171-1.569,4.063-5.155,4.063-1.961,0-3.586-.911-3.586-2.438a2.539,2.539,0,0,1,2.69-2.353,2.844,2.844,0,0,1,3.025,2.3,1.839,1.839,0,0,0,.813-1.6c0-1.19-1.219-1.933-2.746-1.933-2.031,0-3.488,1.219-4.818,2.844l-1.527-1.583c.9-.7,2.508-2.073,3.334-2.746.77-.643,2.059-1.639,2.731-2.241-.7.015-2.129.07-2.871.126-.421.028-.911.07-1.247.127l-.07-2.172a11.446,11.446,0,0,0,1.415.084c.742,0,3.515-.042,4.341-.111a7.47,7.47,0,0,0,1.234-.169Zm-3.558,8.446c-.07-.77-.49-1.26-1.079-1.26-.448,0-.714.266-.714.546,0,.434.462.743,1.163.743C212.827,160.723,213.037,160.709,213.233,160.694Z"/><path d="M230.875,162a12.1,12.1,0,0,0-2.759-2.087v.2c0,1.289-.6,2.564-3.194,2.564-2.017,0-3.768-.673-3.768-2.718,0-1.569,1.33-2.773,3.95-2.773.21,0,.434.013.644.028-.056-1.065-.1-2.2-.1-2.886,0-.854-.013-1.5-.028-2.087a9.266,9.266,0,0,0-.168-1.765h2.522c-.071.463-.113,1.148-.14,1.765-.015.252-.015.518-.015.785,1.107-.029,2.648-.084,3.754-.2l.085,2c-1.121.1-2.7.154-3.81.183.028.77.084,1.722.139,2.619a10.718,10.718,0,0,1,4.175,2.367Zm-5.057-2.871a6.225,6.225,0,0,0-1.036-.084c-.883,0-1.443.294-1.443.8,0,.631.658.784,1.415.784.826,0,1.064-.35,1.064-1.246Z"/><path d="M241.262,155.75a11.967,11.967,0,0,0-3.517.672c-.391.112-1.008.364-1.442.518l-.616-2.38a14.873,14.873,0,0,0,1.638-.253,19.859,19.859,0,0,1,4.231-.6c2.325,0,3.908,1.33,3.908,3.6,0,2.956-2.788,4.888-6.794,5.407l-1.2-2.1c3.488-.378,5.6-1.386,5.6-3.389C243.068,156.45,242.494,155.75,241.262,155.75Zm3-4.805L243.923,153c-1.667-.111-4.805-.378-6.416-.658l.322-2.017A41.556,41.556,0,0,0,244.259,150.945Z"/><path d="M252.151,150.987a13.414,13.414,0,0,0-.391,1.415,35.929,35.929,0,0,0-.659,4.945,2.588,2.588,0,0,0,.014.322c.182-.393.35-.673.532-1.065l1.023.8a35.894,35.894,0,0,0-1.009,3.573,4.446,4.446,0,0,0-.084.658c0,.154,0,.406.015.631l-1.934.126a17.691,17.691,0,0,1-.56-4.567,39.261,39.261,0,0,1,.547-5.463c.055-.421.154-1.05.167-1.569Zm3.279,6.92a4.642,4.642,0,0,0-.141,1.107c0,.616.574.84,1.709.84a16.627,16.627,0,0,0,3.5-.364l.042,2.269a19.925,19.925,0,0,1-3.656.266c-2.423,0-3.628-.911-3.628-2.381a8.334,8.334,0,0,1,.253-1.905Zm4.677-6.094v2.172a42.132,42.132,0,0,1-6.092,0L254,151.828A31.7,31.7,0,0,0,260.107,151.813Z"/><path d="M267.244,150.609c-.1.659-.182,1.5-.21,2.1-.07,1.457-.168,4.455-.168,5.981a1.54,1.54,0,0,0,1.709,1.751,5.429,5.429,0,0,0,4.622-2.815l1.528,1.877a7.359,7.359,0,0,1-6.164,3.235c-2.423,0-3.936-1.092-3.936-3.515,0-1.751.126-5.463.126-6.514a10.165,10.165,0,0,0-.21-2.129Z"/><path d="M278.162,151.926c1.3-.113,3.4-.28,5.94-.5,1.386-.112,3.025-.2,4.034-.238l.014,2.157a17.189,17.189,0,0,0-2.662.168,3.855,3.855,0,0,0-2.787,3.6c0,2.045,1.919,2.844,4.315,2.984l-.786,2.34c-3.1-.239-5.742-1.919-5.742-4.875a5.653,5.653,0,0,1,1.75-4.048c-1.19.126-3.628.406-5.294.77L276.733,152C277.294,151.981,277.9,151.954,278.162,151.926Z"/><path d="M300.272,151.855c-.517.379-.994.744-1.372,1.038-.869.658-2.6,1.989-3.473,2.745-.687.589-.659.715.013,1.3.911.8,3.642,2.914,5.029,4.231l-1.961,1.821c-.448-.5-.91-.981-1.359-1.443-.77-.8-2.759-2.507-4.02-3.586-1.415-1.219-1.33-2.059.141-3.264,1.106-.9,2.884-2.367,3.823-3.263a10.021,10.021,0,0,0,1.219-1.317Z"/><path d="M311.989,154.041a22.621,22.621,0,0,1-2.577.435c-.14.587-.28,1.2-.42,1.751a46.115,46.115,0,0,1-2.213,6.457l-2.34-.785a30.725,30.725,0,0,0,2.438-6.261c.084-.323.182-.659.252-.981-.238.014-.477.014-.7.014-.715,0-1.247-.027-1.723-.056l-.057-2.087a14.483,14.483,0,0,0,1.793.113c.365,0,.744-.015,1.107-.029a4.988,4.988,0,0,0,.085-.56,7.631,7.631,0,0,0,.042-1.555l2.562.2c-.111.434-.252,1.107-.321,1.429l-.057.238c.715-.112,1.429-.253,2.129-.421Zm-.126,4.384a5.1,5.1,0,0,0-.181,1.107c0,.574.364.939,1.583.939a17.613,17.613,0,0,0,2.969-.3l-.084,2.143a22.815,22.815,0,0,1-2.9.2c-2.423,0-3.642-.883-3.642-2.3a9.847,9.847,0,0,1,.252-1.975Zm-1.078-3.543c.8-.085,1.835-.154,2.745-.154.771,0,1.612.042,2.451.126l-.042,2.016a20.113,20.113,0,0,0-2.409-.182,21.011,21.011,0,0,0-2.745.155Zm3.529-1.36a18.9,18.9,0,0,0-1.078-1.947l1.317-.532c.35.519.841,1.429,1.093,1.919Zm1.751-.686a15.448,15.448,0,0,0-1.106-1.933l1.317-.532a19.8,19.8,0,0,1,1.107,1.905Z"/><path d="M329.926,153.635c-.645.181-1.4.378-2.213.546.517,1.121,1.135,2.3,1.751,3.362L328.3,158.8c-.84-.168-2.213-.407-3.32-.547l.182-1.723c.435.042,1.065.1,1.457.112-.294-.6-.673-1.331-1.037-2.115a32.442,32.442,0,0,1-5.827-.013l-.069-2.144a24.2,24.2,0,0,0,5.014.168l-.21-.462a8.551,8.551,0,0,0-.743-1.415l2.382-.462a20.3,20.3,0,0,0,.742,2.031,20.442,20.442,0,0,0,2.661-.7Zm-7.438,3.67a6.248,6.248,0,0,0-.379,1.611c0,.9.336,1.54,2.242,1.54a16.378,16.378,0,0,0,3.852-.406l-.042,2.214a19.757,19.757,0,0,1-3.81.349c-2.9,0-4.441-1.064-4.441-3.109a10.94,10.94,0,0,1,.393-2.367Z"/><path d="M335.535,153.564c0,.912,0,1.822.084,2.747.168,1.82.448,3.095,1.247,3.095.645,0,1.135-1.737,1.33-2.676l1.7,2.074c-.967,2.451-1.849,3.319-3.068,3.319-1.638,0-3-1.4-3.389-5.2-.141-1.318-.155-2.9-.155-3.782a8.222,8.222,0,0,0-.126-1.5l2.577.028A12.935,12.935,0,0,0,335.535,153.564Zm9.554,5.618-2.228.854c-.2-2.087-.868-5.631-2.493-7.4l2.143-.7C343.87,153.537,344.977,157.179,345.089,159.182Z"/><path d="M100.785,203.021a1.443,1.443,0,1,1-1.442,1.443A1.442,1.442,0,0,1,100.785,203.021Z"/><path d="M119.926,201.019a3.9,3.9,0,0,0-.308.7,13.66,13.66,0,0,1-2.479,4.846,12.4,12.4,0,0,1-5.562,3.8l-.91-.826a11.308,11.308,0,0,0,5.589-3.53,11.567,11.567,0,0,0,2.269-4.468h-4.86A13.567,13.567,0,0,1,110.106,205l-.868-.643a11.547,11.547,0,0,0,4.412-4.763,5.679,5.679,0,0,0,.407-1.051l1.148.378c-.21.351-.434.785-.574,1.037-.111.224-.237.448-.378.687h3.964a2.348,2.348,0,0,0,.869-.127Z"/><path d="M126.1,199.31c-.029.252-.042.686-.042.994v4.665c0,.364.013.812.042,1.051h-1.162a9.143,9.143,0,0,0,.069-1.051V200.3c0-.252-.027-.742-.056-.994Zm6.485-.1c-.027.337-.042.715-.042,1.177v2.172c0,3.431-.434,4.509-1.442,5.714a7.247,7.247,0,0,1-3.321,2.045l-.812-.854a6.518,6.518,0,0,0,3.362-1.891c1.009-1.177,1.177-2.325,1.177-5.056v-2.13c0-.462-.042-.84-.07-1.177Z"/><path d="M140.516,205.613l-.953.365a25.216,25.216,0,0,0-1.247-3.153l.925-.364C139.508,203.035,140.25,204.9,140.516,205.613Zm7.032-3.095c-.084.252-.154.461-.2.629a11.15,11.15,0,0,1-1.99,4.343,10.678,10.678,0,0,1-4.551,3.291l-.828-.84a9.4,9.4,0,0,0,4.539-2.969,9.865,9.865,0,0,0,1.961-4.805Zm-3.964,2.254-.925.336a24.474,24.474,0,0,0-1.078-3.025l.924-.322C142.729,202.321,143.416,204.17,143.584,204.772Z"/><path d="M161.926,201.019a3.9,3.9,0,0,0-.309.7,13.64,13.64,0,0,1-2.478,4.846,12.409,12.409,0,0,1-5.562,3.8l-.91-.826a11.312,11.312,0,0,0,5.589-3.53,11.58,11.58,0,0,0,2.269-4.468h-4.861A13.546,13.546,0,0,1,152.106,205l-.868-.643a11.554,11.554,0,0,0,4.412-4.763,5.679,5.679,0,0,0,.407-1.051l1.148.378c-.21.351-.434.785-.574,1.037-.112.224-.238.448-.378.687h3.964a2.346,2.346,0,0,0,.868-.127Z"/><path d="M172.41,201.452c0,.813.014,1.682.028,2.312a3.453,3.453,0,0,1,.434,1.751c0,1.891-.883,3.936-4.076,4.9l-.868-.84c1.9-.448,3.179-1.261,3.7-2.577a1.864,1.864,0,0,1-1.26.434,2.2,2.2,0,0,1-2.269-2.3,2.391,2.391,0,0,1,2.4-2.382,2.468,2.468,0,0,1,.994.2l-.013-1.484c-2.116.013-4.511.112-6.248.238l-.028-.98c1.541-.029,4.146-.113,6.261-.141-.014-.42-.014-.784-.027-.994a5.245,5.245,0,0,0-.1-.813h1.163a7.052,7.052,0,0,0-.07.8c-.014.238-.014.589-.014,1h.294c1.737,0,3.376,0,4.006.014v.938c-.771-.042-2-.07-4.02-.07Zm-.616,3.124a1.285,1.285,0,0,0-1.3-.967,1.46,1.46,0,0,0-1.457,1.514,1.378,1.378,0,0,0,1.471,1.429C171.359,206.552,171.892,205.879,171.794,204.576Z"/><path d="M188.2,200.052c-.238.168-.532.364-.728.518-.673.5-2.606,2.227-3.712,3.152a5.757,5.757,0,0,1,1.989-.308c2.3,0,3.936,1.372,3.936,3.222,0,2.255-1.891,3.655-4.749,3.655-1.877,0-2.984-.826-2.984-1.933a1.921,1.921,0,0,1,2.088-1.764,2.741,2.741,0,0,1,2.829,2.478,2.514,2.514,0,0,0,1.821-2.436c0-1.387-1.386-2.409-3.166-2.409-2.311,0-3.557.952-5.365,2.758l-.727-.756c1.175-.966,2.968-2.479,3.781-3.152.77-.643,2.536-2.142,3.25-2.759-.742.028-3.628.168-4.342.2-.309.028-.6.042-.9.085l-.029-1.051a7.319,7.319,0,0,0,.939.056c.714,0,4.048-.113,4.776-.182a4.168,4.168,0,0,0,.7-.112Zm-2.241,9.259a1.942,1.942,0,0,0-1.934-1.919c-.658,0-1.148.379-1.148.9,0,.7.841,1.107,1.919,1.107A7.561,7.561,0,0,0,185.962,209.311Z"/><path d="M202.819,201.425c-.294.168-.616.349-1.008.546a44.875,44.875,0,0,0-4.273,2.34c-1.316.854-2.087,1.778-2.087,2.842,0,1.177,1.107,1.919,3.348,1.919a21.012,21.012,0,0,0,4.427-.462l-.015,1.121a26.759,26.759,0,0,1-4.37.336c-2.577,0-4.426-.784-4.426-2.8,0-1.4.882-2.536,2.409-3.586a45.175,45.175,0,0,1-2.017-4.3l.98-.406a31.3,31.3,0,0,0,1.877,4.16c1.331-.813,2.9-1.555,3.67-2a7.75,7.75,0,0,0,.938-.617Z"/><path d="M211.58,201.074a18.8,18.8,0,0,1-1.316,6.094,10.373,10.373,0,0,1,1.638,1.513l-.56.742a11.215,11.215,0,0,0-1.485-1.443,7.42,7.42,0,0,1-2.745,2.9,3.759,3.759,0,0,0-.574-.757,6.38,6.38,0,0,0,2.591-2.7c-.5-.378-1.051-.742-1.568-1.065l-.168.617-.786-.407c.365-1.2.8-2.956,1.205-4.72h-1.359v-.855h1.556c.223-1.022.433-2.031.6-2.913l.883.1c-.168.868-.378,1.835-.6,2.815h1.961l.169-.028Zm-2.885.771c-.295,1.289-.617,2.563-.911,3.683.561.323,1.163.7,1.737,1.093a16.672,16.672,0,0,0,1.121-4.776Zm8.39-1.611a15.869,15.869,0,0,1,2.269,3.726l-.784.462c-.112-.294-.266-.644-.448-1.008-2.3.168-4.665.35-6.332.448l-.111-.9,1.106-.057a35.642,35.642,0,0,0,1.667-4.832l1.009.224c-.49,1.443-1.149,3.236-1.751,4.553,1.2-.071,2.577-.168,3.964-.252a18.234,18.234,0,0,0-1.331-1.99Zm-4.44,4.987h5.912V210.8h-.925v-.589h-4.105v.645h-.882Zm.882.854v3.278h4.105v-3.278Z"/><path d="M231.254,209.577a10.113,10.113,0,0,0-3.433-2.1c.015.378.029.686.029.911,0,.924-.588,1.932-2.4,1.932-1.961,0-3.054-.7-3.054-2.016,0-1.234,1.2-2.074,3.195-2.074a6.923,6.923,0,0,1,1.218.1c-.028-.658-.056-1.358-.07-1.961h-.8c-.965,0-2.493-.084-3.5-.2v-.952a27.021,27.021,0,0,0,3.517.252h.756v-2.1c-.224.015-.462.015-.7.015a30.319,30.319,0,0,1-3.306-.21v-.925a22.381,22.381,0,0,0,3.292.266h.728v-.952a6.725,6.725,0,0,0-.056-.813h1.064c-.027.238-.055.49-.069.91,0,.169-.015.463-.015.827a31.615,31.615,0,0,0,3.615-.364l.013.939c-1.135.112-2.325.223-3.628.28v2.1a35.135,35.135,0,0,0,3.9-.378v.953c-1.331.169-2.564.266-3.88.322.027.743.069,1.513.1,2.185a11.65,11.65,0,0,1,4.062,2.186Zm-4.413-2.367a7.361,7.361,0,0,0-1.372-.141c-1.387,0-2.13.533-2.13,1.192s.56,1.162,2,1.162c.812,0,1.513-.238,1.513-1.233C226.855,207.938,226.841,207.588,226.841,207.21Z"/><path d="M238.5,198.819a26.557,26.557,0,0,0-.658,4.02c.532-1.5,2.016-3.319,3.809-3.319,1.835,0,3.138,1.848,3.138,4.734,0,3.838-2.437,5.5-5.827,6.121l-.588-.9c2.983-.449,5.379-1.708,5.379-5.2,0-2.213-.729-3.852-2.256-3.852-1.736,0-3.375,2.521-3.558,4.342a5.585,5.585,0,0,0,.029,1.738l-.981.084a16.753,16.753,0,0,1-.14-2.186,35.276,35.276,0,0,1,.434-4.482c.056-.435.084-.826.113-1.149Z"/><path d="M259.254,209.577a10.113,10.113,0,0,0-3.433-2.1c.015.378.029.686.029.911,0,.924-.588,1.932-2.4,1.932-1.961,0-3.054-.7-3.054-2.016,0-1.234,1.2-2.074,3.195-2.074a6.923,6.923,0,0,1,1.218.1c-.028-.658-.056-1.358-.07-1.961h-.8c-.965,0-2.493-.084-3.5-.2v-.952a27.021,27.021,0,0,0,3.517.252h.756v-2.1c-.224.015-.462.015-.7.015a30.319,30.319,0,0,1-3.306-.21v-.925a22.381,22.381,0,0,0,3.292.266h.728v-.952a6.725,6.725,0,0,0-.056-.813h1.064c-.027.238-.055.49-.069.91,0,.169-.015.463-.015.827a31.615,31.615,0,0,0,3.615-.364l.013.939c-1.135.112-2.325.223-3.628.28v2.1a35.135,35.135,0,0,0,3.9-.378v.953c-1.331.169-2.564.266-3.88.322.027.743.069,1.513.1,2.185a11.65,11.65,0,0,1,4.062,2.186Zm-4.413-2.367a7.361,7.361,0,0,0-1.372-.141c-1.387,0-2.13.533-2.13,1.192s.56,1.162,2,1.162c.812,0,1.513-.238,1.513-1.233C254.855,207.938,254.841,207.588,254.841,207.21Z"/><path d="M270.41,201.452c0,.813.014,1.682.028,2.312a3.453,3.453,0,0,1,.434,1.751c0,1.891-.883,3.936-4.076,4.9l-.868-.84c1.9-.448,3.179-1.261,3.7-2.577a1.864,1.864,0,0,1-1.26.434,2.2,2.2,0,0,1-2.269-2.3,2.391,2.391,0,0,1,2.395-2.382,2.468,2.468,0,0,1,.994.2l-.013-1.484c-2.116.013-4.511.112-6.248.238l-.028-.98c1.541-.029,4.146-.113,6.261-.141-.014-.42-.014-.784-.027-.994a5.245,5.245,0,0,0-.1-.813h1.163a7.052,7.052,0,0,0-.07.8c-.014.238-.014.589-.014,1h.294c1.737,0,3.376,0,4.006.014v.938c-.771-.042-2-.07-4.02-.07Zm-.616,3.124a1.285,1.285,0,0,0-1.3-.967,1.46,1.46,0,0,0-1.457,1.514,1.378,1.378,0,0,0,1.471,1.429C269.359,206.552,269.892,205.879,269.794,204.576Z"/></g></svg>