<svg xmlns="http://www.w3.org/2000/svg" viewBox="0 0 480 270"><defs><style>.cls-1{fill:#e6e6e6;}</style></defs><title>stimuli</title><g id="固定背景"><rect class="cls-1" width="480" height="270"/></g><g id="テキスト"><path d="M217.542,42.753h-13.1V40.089h13.1Zm16.666,21.094c.72,0,.864-.721.936-5.365a8.46,8.46,0,0,0,2.844,1.3c-.252,5.58-1.044,7.02-3.42,7.02h-2.7c-2.735,0-3.347-1.008-3.347-4.068V52.724h-2.628c-.54,6.191-1.8,11.41-7.379,14.542a8.614,8.614,0,0,0-1.98-2.484v.72h-7.595V67.05H206.06V54.955h10.474V64.53c4.716-2.519,5.615-6.839,5.976-11.806h-3.564V40.558h3.132a26.627,26.627,0,0,0-2.484-5.4l2.951-.972a25.122,25.122,0,0,1,2.772,5.723l-1.836.649h8.387l-2.015-.613a36.141,36.141,0,0,0,2.339-5.975l3.456.936c-.936,2.016-1.944,4.175-2.808,5.652H236.3V52.724h-4.608v9.97c0,1.008.072,1.153.72,1.153ZM216.282,47.685h-10.15V45.093h10.15Zm-10.15,2.3h10.15V52.58h-10.15Zm10.15-12.131h-9.934V35.229h9.934Zm-2.663,19.8h-4.68v5.183h4.68Zm8.567-7.811h10.69V43.509h-10.69Z"/><path d="M245.011,57.619v3.239h-3.095V36.13H253.9V57.619Zm0-18.43v6.047h5.8V39.189Zm5.8,15.334v-6.3h-5.8v6.3Zm21.632,8.459c0,1.872-.467,2.88-1.691,3.42-1.26.539-3.239.612-6.264.612a12.676,12.676,0,0,0-1.223-3.24c2.16.073,4.355.037,5,.037.611-.037.863-.252.863-.865v-7.2h-9.647a18.3,18.3,0,0,1-6.766,11.591,11.67,11.67,0,0,0-2.485-2.3c6.012-4.5,6.624-11.23,6.624-16.738V35.518h15.585Zm-3.311-10.294V47.145h-9v1.187c0,1.368-.035,2.844-.18,4.356Zm-9-14.075v5.472h9V38.613Z"/><path d="M99.308,103.078a1.236,1.236,0,1,1-1.235,1.235A1.233,1.233,0,0,1,99.308,103.078Z"/><path d="M114.451,108.9c1.163,0,1.343-.336,1.487-1.824a2.293,2.293,0,0,0,.779.3c-.192,1.739-.528,2.267-2.266,2.267h-4.762c-1.871,0-2.446-.325-2.446-1.7V102.5c-.276.227-.552.455-.852.671a2.037,2.037,0,0,0-.588-.564,11.421,11.421,0,0,0,3.478-3.79l.888.168c-.132.216-.276.445-.432.672h3.071l.155-.048.54.336a11.967,11.967,0,0,1-1.151,1.847h3.43v4.294h-.792v-.54h-6.944v2.4c0,.756.24.949,1.571.949Zm-5.206-8.541A14.789,14.789,0,0,1,108,101.8h3.418a10.209,10.209,0,0,0,.959-1.44Zm-1.2,4.462h2.962v-2.291h-2.962Zm6.944-2.291H111.8v2.291h3.19Z"/><path d="M120.622,109.507a19.188,19.188,0,0,0-2.663-2.663l.7-.623a22.539,22.539,0,0,1,2.7,2.675Z"/><path d="M135.021,104.266v5.5h-.78v-5.5H132.19a8.114,8.114,0,0,1-1.775,5.577,3.178,3.178,0,0,0-.588-.54,7.354,7.354,0,0,0,1.619-5.037h-1.583v-.744h1.595v-3.178h-1.415V99.6h6.129v.743h-1.151v3.178h1.319v.744Zm-.78-.744v-3.178H132.2v3.178Zm6.632,2.338a10.741,10.741,0,0,1-4.593,3.922,2.9,2.9,0,0,0-.564-.647,9.5,9.5,0,0,0,4.413-3.562Zm-.647-6.5a12.075,12.075,0,0,1-3.431,2.807,3.148,3.148,0,0,0-.575-.552,10.457,10.457,0,0,0,3.262-2.554Zm.359,3.275a13.132,13.132,0,0,1-3.682,3.022,4.165,4.165,0,0,0-.563-.564,11.582,11.582,0,0,0,3.514-2.758Z"/><path d="M144.622,109.507a19.188,19.188,0,0,0-2.663-2.663l.7-.623a22.539,22.539,0,0,1,2.7,2.675Z"/><path d="M164.033,101.8a13.941,13.941,0,0,1-1.511,4.869,5.908,5.908,0,0,0,2.363,2.423,3.111,3.111,0,0,0-.575.684,6.614,6.614,0,0,1-2.28-2.351,7.79,7.79,0,0,1-2.83,2.375,4.349,4.349,0,0,0-.372-.576l-.227.24a11.416,11.416,0,0,0-1.44-.96,6.618,6.618,0,0,1-2.926,1.272,1.839,1.839,0,0,0-.372-.672,6.147,6.147,0,0,0,2.6-.971c-.42-.216-.84-.408-1.272-.588l-.2.348-.683-.264c.276-.468.6-1.08.923-1.715h-1.391v-.672h1.727c.18-.372.36-.731.5-1.055l.336.072v-1.787a7.722,7.722,0,0,1-2.171,1.858,2.447,2.447,0,0,0-.444-.6,6.4,6.4,0,0,0,2.375-1.979H153.9v-.672h2.507v-2.23h.743v2.23h2.459v.672h-2.459v.1c.516.3,1.824,1.139,2.147,1.38l-.443.575c-.312-.288-1.116-.9-1.7-1.319v1.834h-.456l.12.025q-.2.431-.431.9h3.286v.672h-1.079a4.711,4.711,0,0,1-.9,2.063,9.929,9.929,0,0,1,1.439.911,6.741,6.741,0,0,0,2.483-2.255,15.611,15.611,0,0,1-1.128-3.5,8.754,8.754,0,0,1-.935,1.632,4.773,4.773,0,0,0-.648-.529,12.174,12.174,0,0,0,1.979-5.384l.8.12a18.3,18.3,0,0,1-.468,2.087h3.551v.743Zm-8.9-.816a5.933,5.933,0,0,0-.768-1.571l.612-.263a5.835,5.835,0,0,1,.792,1.558Zm.911,4.93c-.18.36-.359.707-.54,1.031.5.2,1.019.432,1.5.671a3.934,3.934,0,0,0,.8-1.7Zm3.25-6.5c-.348.54-.743,1.163-1.067,1.56l-.54-.265A10.765,10.765,0,0,0,158.6,99.1Zm1.68,2.459a16.753,16.753,0,0,0,1.1,3.934,13.259,13.259,0,0,0,1.127-4.006H161Z"/><path d="M170.349,99.6c-.037.2-.084.431-.132.647-.048.348-.168,1.091-.312,1.774.575-.047,1.091-.084,1.391-.084,1.019,0,1.9.384,1.9,1.968a11.307,11.307,0,0,1-.7,4.27,1.622,1.622,0,0,1-1.7.97,7.21,7.21,0,0,1-1.392-.167l-.143-.912a5.557,5.557,0,0,0,1.463.264,1.032,1.032,0,0,0,1.067-.623,10.056,10.056,0,0,0,.564-3.694c0-1.116-.5-1.308-1.259-1.308-.3,0-.8.036-1.356.084a23.911,23.911,0,0,1-2.507,6.381l-.876-.348a19.143,19.143,0,0,0,2.507-5.949c-.647.061-1.258.132-1.583.156-.275.036-.719.1-1.019.144l-.1-.947a9.915,9.915,0,0,0,1.02,0c.407-.012,1.115-.073,1.858-.132a14,14,0,0,0,.313-2.591Zm4.078,1.39a19.718,19.718,0,0,1,2.194,4.2l-.827.4a14.226,14.226,0,0,0-2.148-4.233Zm.623.156a13.133,13.133,0,0,0-.984-1.667l.588-.251a16.941,16.941,0,0,1,1,1.655Zm1.332-.479a10.077,10.077,0,0,0-1.008-1.655l.588-.252a16.21,16.21,0,0,1,1.019,1.642Z"/><path d="M180.226,107.42a3.6,3.6,0,0,0,3.118,1.379c1.307.06,4.042.024,5.445-.06a2.618,2.618,0,0,0-.252.78c-1.319.047-3.861.072-5.181.024A4.277,4.277,0,0,1,179.9,108.1c-.54.527-1.091,1.042-1.679,1.559l-.432-.756c.5-.395,1.128-.9,1.68-1.415v-3.179h-1.56v-.755h2.315Zm-.432-5.913a8.734,8.734,0,0,0-1.751-1.919l.612-.432a8.749,8.749,0,0,1,1.8,1.883Zm5.241,5.853h-4.269v-.6h1.523v-.935h-1.164v-.6h3.91v-.7h-3.286v-2.05h5.625v2.05h-1.595v.7h2.506v.6h-2.506v.935H188.6v.6h-2.819v1.055h-.744Zm3.574-5.506h-7.832v-.6h2.3c.1-.276.2-.575.3-.9h-1.835v-.586h2.027c.1-.325.192-.636.276-.924l.767.095c-.071.264-.168.54-.252.829h2.783v1.486h1.463Zm-6.14,2.136H186.6v-.971h-4.126Zm2.566,2.77v-.935h-2.026v.935Zm-.863-6.405c-.109.325-.216.636-.312.9h2.554v-.9Z"/><path d="M195.908,103.09a10.844,10.844,0,0,0-3.262.612,9.262,9.262,0,0,0-.984.336l-.275-1a6.8,6.8,0,0,0,1.054-.18,15.7,15.7,0,0,1,3.538-.575c1.656,0,2.916.923,2.916,2.59,0,2.579-2.291,4.019-5.337,4.486l-.5-.816c2.866-.371,4.928-1.535,4.928-3.7A1.834,1.834,0,0,0,195.908,103.09Zm2.038-2.974-.132.827c-1.306-.084-3.669-.324-5-.563l.132-.816A34.451,34.451,0,0,0,197.946,100.116Z"/><path d="M203.962,107.54l.528-.624a3.431,3.431,0,0,0,2.746,1.283c1.152,0,2.1-.647,2.1-1.7,0-1.091-.9-1.81-3.082-1.81v-.756c1.978,0,2.83-.816,2.83-1.7,0-.852-.684-1.475-1.871-1.475a3.311,3.311,0,0,0-2.446,1.115l-.552-.612a4.3,4.3,0,0,1,3.034-1.319c1.715,0,2.782.9,2.782,2.195a2.122,2.122,0,0,1-1.7,2.1v.048a2.266,2.266,0,0,1,1.954,2.255c0,1.547-1.354,2.483-3.01,2.483A4.079,4.079,0,0,1,203.962,107.54Z"/><path d="M215.555,102.322a19.065,19.065,0,0,1,5.073-1.186c1.931,0,3.489,1.127,3.489,3.082,0,2.878-2.889,4.2-6.464,4.4l-.372-.9c3.095-.084,5.9-1.02,5.9-3.514a2.3,2.3,0,0,0-2.567-2.268c-1.99,0-5.06,1.333-5.936,1.68l-.4-.96A10.2,10.2,0,0,0,215.555,102.322Z"/><path d="M231.177,108.344a7.067,7.067,0,0,0,1-.145,3.616,3.616,0,0,0,3.07-3.574,3.365,3.365,0,0,0-3.286-3.489,23.324,23.324,0,0,1-.695,3.454c-.733,2.446-1.668,3.67-2.736,3.67-1.006,0-2.062-1.188-2.062-3.143a5.015,5.015,0,0,1,5.145-4.773,4.261,4.261,0,0,1,4.509,4.317c0,2.484-1.654,4.138-4.449,4.485Zm-.768-3.947a18.542,18.542,0,0,0,.671-3.25,4.216,4.216,0,0,0-3.777,3.911c0,1.546.731,2.218,1.259,2.218S229.785,106.484,230.409,104.4Z"/><path d="M240.166,107.432a3.647,3.647,0,0,0,3.13,1.391c1.332.048,4.114.012,5.529-.072a2.564,2.564,0,0,0-.263.756c-1.32.048-3.911.072-5.242.023a4.306,4.306,0,0,1-3.478-1.438c-.516.527-1.068,1.043-1.643,1.571l-.42-.732c.5-.4,1.1-.923,1.644-1.427v-3.191h-1.512v-.755h2.255Zm-.36-5.841A8.239,8.239,0,0,0,238,99.54l.611-.407a8.388,8.388,0,0,1,1.86,2Zm8.876,4.786h-7.989v-.636H242.9v-1.2h-1.81v-.623h1.81v-.912h.732v.912h2.075v-.912h.756v.912H248.3v.623h-1.835v1.2h2.219Zm-5.121-6.465h-2.616v-.576h3.3v1.979h-2.411V102c0,.216.06.264.468.264h1.355c.3,0,.36-.073.4-.624a1.488,1.488,0,0,0,.6.228c-.084.768-.288.972-.887.972h-1.535c-.852,0-1.068-.168-1.068-.84v-1.26h2.4Zm.443,6.872a10.349,10.349,0,0,1-2.362,1.571,3.115,3.115,0,0,0-.588-.5,7.868,7.868,0,0,0,2.23-1.308Zm-.372-1.043h2.075v-1.2h-2.075Zm3.79-5.829h-2.567v-.576h3.275v1.979h-2.375v.672c0,.228.072.276.492.276h1.5c.312,0,.371-.084.407-.672a1.814,1.814,0,0,0,.6.24c-.071.8-.287,1.008-.911,1.008h-1.655c-.875,0-1.116-.168-1.116-.84v-1.26h2.351Zm.288,8.48a10.929,10.929,0,0,0-2.219-1.452l.564-.372a14.614,14.614,0,0,1,2.411,1.463Z"/><path d="M254.253,104.865c-.576.156-1.176.312-1.751.456v3.454c0,.5-.132.72-.444.852a5.377,5.377,0,0,1-1.751.144,2.312,2.312,0,0,0-.252-.732c.672.023,1.259.012,1.427.012s.252-.072.252-.264v-3.274c-.635.168-1.235.324-1.763.456l-.2-.792c.551-.108,1.222-.264,1.966-.444v-2.686h-1.823v-.732h1.823V98.856h.768v2.459h1.667v.732H252.5v2.494l1.679-.407Zm3.706-.588c.468,2.171,1.439,4.018,3.022,4.822a3.965,3.965,0,0,0-.564.683c-1.715-.97-2.734-2.986-3.25-5.5h-1.595c-.06,1.812-.4,4.006-1.835,5.494a3.649,3.649,0,0,0-.612-.528c1.523-1.583,1.668-3.85,1.668-5.637V99.54h5.517v4.737Zm-2.375-3.993v3.238h3.946v-3.238Z"/><path d="M265.893,108.8c0,.444-.1.7-.4.84a4.706,4.706,0,0,1-1.547.132,3.29,3.29,0,0,0-.252-.756c.575.024,1.079.012,1.236.012s.227-.06.227-.228v-3.082h-1.847a11.593,11.593,0,0,1-.911,4.065,2.339,2.339,0,0,0-.648-.384,14.1,14.1,0,0,0,.9-5.828V99.288h3.238Zm-.732-3.838v-2.122h-1.774v.731c0,.432-.013.9-.025,1.391Zm-1.774-4.917V102.1h1.774v-2.051Zm8.85,3.442a9.586,9.586,0,0,1-2.278,3.97,7.488,7.488,0,0,0,2.926,1.643,3.208,3.208,0,0,0-.539.672A8.149,8.149,0,0,1,269.4,108a9.865,9.865,0,0,1-2.891,1.776,2.788,2.788,0,0,0-.48-.7,8.414,8.414,0,0,0,2.83-1.655,9.655,9.655,0,0,1-1.834-3.2l.6-.193H266.4v-.731h2.58v-1.787h-2.735v-.732h2.735v-1.93h.791v1.93h2.879v.732h-2.879v1.787h1.8l.145-.036Zm-4.5.539a8.235,8.235,0,0,0,1.667,2.868,8.256,8.256,0,0,0,1.823-2.868Z"/><path d="M278.349,99.6c-.037.2-.084.431-.132.647-.048.348-.168,1.091-.312,1.774.575-.047,1.091-.084,1.391-.084,1.019,0,1.895.384,1.895,1.968a11.307,11.307,0,0,1-.7,4.27,1.622,1.622,0,0,1-1.7.97,7.21,7.21,0,0,1-1.392-.167l-.143-.912a5.557,5.557,0,0,0,1.463.264,1.032,1.032,0,0,0,1.067-.623,10.056,10.056,0,0,0,.564-3.694c0-1.116-.5-1.308-1.259-1.308-.3,0-.8.036-1.356.084a23.911,23.911,0,0,1-2.507,6.381l-.876-.348a19.143,19.143,0,0,0,2.507-5.949c-.647.061-1.258.132-1.583.156-.275.036-.719.1-1.019.144l-.1-.947a9.915,9.915,0,0,0,1.02,0c.407-.012,1.115-.073,1.858-.132a14,14,0,0,0,.313-2.591Zm4.078,1.39a19.718,19.718,0,0,1,2.194,4.2l-.827.4a14.226,14.226,0,0,0-2.148-4.233Zm.623.156a13.133,13.133,0,0,0-.984-1.667l.588-.251a16.941,16.941,0,0,1,1,1.655Zm1.332-.479a10.077,10.077,0,0,0-1.008-1.655l.588-.252a16.21,16.21,0,0,1,1.019,1.642Z"/><path d="M295.962,104.854v4.893h-.816v-.732h-7.64v.756h-.779v-4.917h.779v3.381h3.347v-4.173h-3.682V100h.791v3.286h2.891V98.9h.8v4.378h3.01v-3.3h.815v4.078h-3.825v4.173h3.49v-3.381Z"/><path d="M307.134,108.691a8.646,8.646,0,0,0-2.939-1.8c.013.323.025.586.025.779,0,.791-.5,1.655-2.051,1.655-1.679,0-2.614-.6-2.614-1.727,0-1.056,1.031-1.775,2.734-1.775a5.93,5.93,0,0,1,1.043.084c-.023-.564-.048-1.164-.06-1.68h-.683c-.828,0-2.135-.072-3-.167v-.816a23.1,23.1,0,0,0,3.011.216h.647v-1.8c-.191.012-.395.012-.6.012a25.719,25.719,0,0,1-2.83-.18V100.7a19.006,19.006,0,0,0,2.819.229h.624v-.816a5.746,5.746,0,0,0-.049-.7h.912c-.024.2-.048.42-.061.78,0,.144-.011.4-.011.707a27,27,0,0,0,3.094-.311l.012.8c-.971.1-1.991.192-3.106.24v1.8a30.45,30.45,0,0,0,3.334-.324v.816c-1.139.144-2.2.227-3.323.276.025.636.061,1.3.084,1.87a10,10,0,0,1,3.479,1.871Zm-3.778-2.027a6.368,6.368,0,0,0-1.175-.12c-1.188,0-1.824.456-1.824,1.019s.481,1,1.716,1c.7,0,1.3-.2,1.3-1.056C303.368,107.288,303.356,106.988,303.356,106.664Z"/><path d="M316.7,101.735c0,.7.013,1.439.025,1.979a2.965,2.965,0,0,1,.372,1.5c0,1.619-.756,3.37-3.491,4.2l-.744-.72c1.632-.383,2.723-1.08,3.167-2.207a1.6,1.6,0,0,1-1.08.372,1.881,1.881,0,0,1-1.942-1.966,2.047,2.047,0,0,1,2.051-2.039,2.1,2.1,0,0,1,.851.168l-.012-1.272c-1.811.012-3.862.1-5.349.2l-.025-.84c1.32-.024,3.551-.095,5.362-.12-.012-.359-.012-.672-.024-.851a4.407,4.407,0,0,0-.084-.7h1a6.05,6.05,0,0,0-.059.684c-.013.2-.013.5-.013.851h.252c1.487,0,2.891,0,3.431.012v.8c-.66-.036-1.716-.06-3.443-.06Zm-.527,2.674a1.1,1.1,0,0,0-1.115-.827,1.25,1.25,0,0,0-1.248,1.3,1.18,1.18,0,0,0,1.259,1.224C315.8,106.1,316.256,105.525,316.172,104.409Z"/><path d="M325.449,107.756a1.805,1.805,0,1,1-1.81-1.8A1.8,1.8,0,0,1,325.449,107.756Zm-.563,0A1.242,1.242,0,1,0,323.639,109,1.243,1.243,0,0,0,324.886,107.756Z"/><path d="M99.308,123.078a1.236,1.236,0,1,1-1.235,1.235A1.233,1.233,0,0,1,99.308,123.078Z"/><path d="M114.247,122.011c-.252.156-.516.3-.852.479a33.978,33.978,0,0,0-3.346,1.835c-1.128.744-1.787,1.535-1.787,2.447,0,1.007.947,1.643,2.866,1.643a17.174,17.174,0,0,0,3.79-.395l-.012.959a22.884,22.884,0,0,1-3.742.288c-2.206,0-3.789-.671-3.789-2.4,0-1.211.755-2.182,2.063-3.082-.541-.96-1.176-2.375-1.728-3.658l.84-.359a26.321,26.321,0,0,0,1.607,3.549c1.067-.647,2.207-1.187,2.854-1.559a5.839,5.839,0,0,0,.8-.528Zm.252-2.387a16.014,16.014,0,0,1,.983,1.655l-.6.264a13.19,13.19,0,0,0-.971-1.667Zm1.3-.468a14.143,14.143,0,0,1,1.019,1.631l-.587.276a10.913,10.913,0,0,0-1.008-1.655Z"/><path d="M128.933,127.863a3.034,3.034,0,0,1-2.171,1.008,1.27,1.27,0,0,1-1.3-1.451c0-1.331.456-3.311.456-4.485a.862.862,0,0,0-.984-.984c-.971,0-2.422,1.1-3.538,2.315-.036.515-.047,1.019-.047,1.451,0,1.1-.013,1.787.035,2.83.012.2.036.48.06.7h-.935c.012-.156.036-.48.036-.672,0-1.151.012-1.7.024-2.974,0-.168.012-.408.024-.684-.588.888-1.4,2.064-2.015,2.915l-.54-.744c.66-.827,2.051-2.734,2.639-3.646.036-.408.06-.828.084-1.223-.528.072-1.572.216-2.339.324l-.1-.888a4.958,4.958,0,0,0,.731-.024c.384-.023,1.128-.1,1.764-.2.035-.575.06-1.02.06-1.152a5.107,5.107,0,0,0-.049-.851l1.032.036c-.06.276-.144.96-.24,1.812l.072-.025.336.384c-.144.216-.348.527-.516.8-.024.252-.036.5-.06.756.912-.852,2.459-2.04,3.658-2.04a1.466,1.466,0,0,1,1.643,1.572c0,1.187-.455,3.286-.455,4.485,0,.407.192.743.647.743a2.669,2.669,0,0,0,1.835-1.007Z"/><path d="M134.529,119.564c-.049.205-.1.432-.133.66-.059.336-.179,1.08-.311,1.763.576-.049,1.091-.084,1.391-.084,1.02,0,1.9.384,1.9,1.967a11.4,11.4,0,0,1-.7,4.281,1.656,1.656,0,0,1-1.7.972,6.987,6.987,0,0,1-1.392-.18l-.143-.912a5.4,5.4,0,0,0,1.462.264,1.032,1.032,0,0,0,1.068-.623,10.3,10.3,0,0,0,.575-3.694c0-1.116-.515-1.307-1.283-1.307-.3,0-.8.035-1.355.084a23.488,23.488,0,0,1-2.5,6.38l-.887-.348a19.4,19.4,0,0,0,2.519-5.948c-.648.071-1.26.132-1.584.167-.264.024-.731.084-1.031.133l-.084-.949a9.116,9.116,0,0,0,1.019,0c.4-.011,1.116-.071,1.859-.131a13.961,13.961,0,0,0,.3-2.59Zm4.077,1.3a20.658,20.658,0,0,1,2.195,4.21l-.827.408a14.613,14.613,0,0,0-2.147-4.27Z"/><path d="M152.777,123.762v.863h-10.89v-.863Z"/><path d="M155.555,122.322a19.065,19.065,0,0,1,5.073-1.186c1.931,0,3.489,1.127,3.489,3.082,0,2.878-2.889,4.2-6.464,4.4l-.372-.9c3.095-.084,5.9-1.02,5.9-3.514a2.3,2.3,0,0,0-2.567-2.268c-1.99,0-5.06,1.333-5.936,1.68l-.4-.96A10.2,10.2,0,0,0,155.555,122.322Z"/><path d="M171.512,127.276c.036-.467.049-1.284.049-1.919-1.14.6-1.968,1.247-1.968,2.063,0,.983.983,1.1,2.219,1.1a20.664,20.664,0,0,0,3.226-.276l-.036.876a30.741,30.741,0,0,1-3.226.191c-1.668,0-3.035-.347-3.035-1.774,0-1.38,1.4-2.267,2.795-2.986a1.006,1.006,0,0,0-1.1-.792,3.074,3.074,0,0,0-2.076.887c-.335.325-.683.756-1.079,1.224l-.743-.552a12.272,12.272,0,0,0,2.758-3.682h-.564c-.5,0-1.283-.024-1.942-.072v-.815a17.111,17.111,0,0,0,1.99.119c.264,0,.529,0,.816-.012a6.463,6.463,0,0,0,.312-1.487l.875.072a11.823,11.823,0,0,1-.359,1.392,27.741,27.741,0,0,0,3.67-.36v.8a34.5,34.5,0,0,1-3.958.336,8.42,8.42,0,0,1-1.127,1.943,3.327,3.327,0,0,1,1.69-.48,1.5,1.5,0,0,1,1.572,1.1c.863-.409,1.619-.7,2.266-1.008.336-.144.612-.276.912-.432l.348.8c-.276.084-.672.24-.983.36-.7.276-1.572.623-2.5,1.068.013.683.025,1.714.037,2.3Z"/><path d="M180.166,127.432a3.647,3.647,0,0,0,3.13,1.391c1.332.048,4.114.012,5.529-.072a2.564,2.564,0,0,0-.263.756c-1.32.048-3.911.072-5.242.023a4.306,4.306,0,0,1-3.478-1.438c-.516.527-1.068,1.043-1.643,1.571l-.42-.732c.5-.4,1.1-.923,1.644-1.427v-3.191h-1.512v-.755h2.255Zm-.36-5.841A8.239,8.239,0,0,0,178,119.54l.611-.407a8.388,8.388,0,0,1,1.86,2Zm8.876,4.786h-7.989v-.636H182.9v-1.2h-1.81v-.623h1.81v-.912h.732v.912h2.075v-.912h.756v.912H188.3v.623h-1.835v1.2h2.219Zm-5.121-6.465h-2.616v-.576h3.3v1.979h-2.411V122c0,.216.06.264.468.264h1.355c.3,0,.36-.073.4-.624a1.488,1.488,0,0,0,.6.228c-.084.768-.288.972-.887.972h-1.535c-.852,0-1.068-.168-1.068-.84v-1.26h2.4Zm.443,6.872a10.349,10.349,0,0,1-2.362,1.571,3.115,3.115,0,0,0-.588-.5,7.868,7.868,0,0,0,2.23-1.308Zm-.372-1.043h2.075v-1.2h-2.075Zm3.79-5.829h-2.567v-.576h3.275v1.979h-2.375v.672c0,.228.072.276.492.276h1.5c.312,0,.371-.084.407-.672a1.814,1.814,0,0,0,.6.24c-.071.8-.287,1.008-.911,1.008h-1.655c-.875,0-1.116-.168-1.116-.84v-1.26h2.351Zm.288,8.48a10.929,10.929,0,0,0-2.219-1.452l.564-.372a14.614,14.614,0,0,1,2.411,1.463Z"/><path d="M195.512,120.428c-.516.815-1.715,2.986-2.338,4.162a2.6,2.6,0,0,1,1.81-.78,1.343,1.343,0,0,1,1.392,1.427c.023.732.012,1.643.048,2.231a.878.878,0,0,0,.983.876c1.379,0,2.171-1.68,2.483-2.9l.708.564c-.636,1.894-1.619,3.214-3.323,3.214a1.494,1.494,0,0,1-1.679-1.475c-.035-.708-.012-1.619-.048-2.291a.819.819,0,0,0-.9-.851,3.147,3.147,0,0,0-2.375,1.919,19.782,19.782,0,0,0-1.043,2.7l-.923-.312a87.448,87.448,0,0,1,4.221-8.575,9.535,9.535,0,0,0,.409-.863l.959.383A4.757,4.757,0,0,0,195.512,120.428Z"/><path d="M203.362,120.979c.732-.072,3.034-.3,5.217-.479,1.308-.12,2.387-.181,3.167-.2l.012.851a9.78,9.78,0,0,0-2.327.192,4.26,4.26,0,0,0-2.758,3.826c0,2.387,2.219,3.118,4.138,3.19l-.313.888c-2.135-.072-4.677-1.223-4.677-3.886a4.8,4.8,0,0,1,2.279-4.066c-1.043.12-4.4.444-5.673.708l-.108-.96C202.774,121.027,203.135,121,203.362,120.979Zm7.7,3.346-.564.265a10.75,10.75,0,0,0-.983-1.7l.551-.241A15.084,15.084,0,0,1,211.062,124.325Zm1.355-.515-.563.276a11.907,11.907,0,0,0-1.02-1.68l.54-.263A14.826,14.826,0,0,1,212.417,123.81Z"/><path d="M221.671,120.02c-.228.18-.588.492-.768.648-.827.731-2.566,2.11-3.454,2.854-.731.624-.743.816.048,1.463,1.115.888,3.3,2.71,4.449,3.874l-.755.684c-.228-.264-.54-.564-.78-.815-.647-.708-2.662-2.423-3.777-3.335s-.972-1.439.072-2.327c.887-.744,2.722-2.182,3.525-3.01a4.428,4.428,0,0,0,.636-.755Z"/><path d="M232.147,121.951a23.206,23.206,0,0,1-2.494.407c-.108.516-.24,1.068-.372,1.583a34.157,34.157,0,0,1-1.858,5.434l-.948-.313a26.622,26.622,0,0,0,1.979-5.312c.108-.408.216-.863.323-1.319-.407.036-.8.048-1.151.048-.516,0-.936-.012-1.367-.048l-.024-.84a10.516,10.516,0,0,0,1.415.1c.4,0,.828-.025,1.295-.061.084-.456.157-.852.193-1.1a4.341,4.341,0,0,0,.048-.935l1.031.084c-.072.252-.156.683-.2.912l-.192.959a19.95,19.95,0,0,0,2.326-.443Zm-.515,4.209a4.314,4.314,0,0,0-.18,1.08c0,.564.264,1.127,2.027,1.127a12.071,12.071,0,0,0,2.3-.227l-.036.875a15.554,15.554,0,0,1-2.279.168c-1.847,0-2.819-.564-2.819-1.739a7.667,7.667,0,0,1,.168-1.368Zm-.228-2.878c.612-.048,1.379-.095,2.147-.095a18.818,18.818,0,0,1,2.051.095l-.024.827a14.941,14.941,0,0,0-1.991-.143c-.732,0-1.463.048-2.183.12Zm3.346-1.355a14.632,14.632,0,0,0-.983-1.667l.576-.252a15.174,15.174,0,0,1,1,1.655Zm.9-2.4a14.145,14.145,0,0,1,1.02,1.643l-.587.276a11.069,11.069,0,0,0-1.008-1.667Z"/><path d="M247.422,121.627c-.743.192-1.535.372-2.267.492.408.936,1.068,2.362,1.608,3.37l-.516.516c-.48-.1-1.655-.264-2.411-.336l.084-.695c.468.035,1.331.131,1.739.179-.36-.767-.983-2.075-1.344-2.915a24.294,24.294,0,0,1-5.06.036l-.025-.863a20.513,20.513,0,0,0,4.749.072l-.418-.935a8.031,8.031,0,0,0-.493-.972l.972-.18c.288.828.516,1.343.779,1.967a15,15,0,0,0,2.447-.588Zm-6.729,3.61a4.556,4.556,0,0,0-.347,1.511c0,1.08.767,1.715,2.554,1.715A12.539,12.539,0,0,0,246,128.14l-.013.887a15.42,15.42,0,0,1-3.093.264c-2.183,0-3.4-.876-3.4-2.339a6.735,6.735,0,0,1,.324-1.8Z"/><path d="M251.854,121.663a27.34,27.34,0,0,0,.1,2.855c.192,2.039.8,3.37,1.667,3.37.612,0,1.188-1.2,1.5-2.435l.7.756c-.708,2-1.439,2.687-2.219,2.687-1.079,0-2.158-1.117-2.483-4.174-.107-1.02-.131-2.459-.131-3.155a5.87,5.87,0,0,0-.073-1.031l1.044.024A10.207,10.207,0,0,0,251.854,121.663Zm8.408,5.014-.864.335a11.7,11.7,0,0,0-2.051-5.828l.828-.288A12.338,12.338,0,0,1,260.262,126.677Z"/><path d="M265.449,127.756a1.805,1.805,0,1,1-1.81-1.8A1.8,1.8,0,0,1,265.449,127.756Zm-.563,0A1.242,1.242,0,1,0,263.639,129,1.243,1.243,0,0,0,264.886,127.756Z"/><path d="M99.308,143.078a1.236,1.236,0,1,1-1.235,1.235A1.233,1.233,0,0,1,99.308,143.078Z"/><path d="M108.166,147.432a3.645,3.645,0,0,0,3.13,1.391c1.331.048,4.114.012,5.529-.072a2.536,2.536,0,0,0-.263.756c-1.32.048-3.911.072-5.242.023a4.306,4.306,0,0,1-3.478-1.438c-.516.527-1.067,1.043-1.643,1.571l-.42-.732c.5-.4,1.1-.923,1.643-1.427v-3.191h-1.511v-.755h2.255Zm-.36-5.841A8.239,8.239,0,0,0,106,139.54l.612-.407a8.4,8.4,0,0,1,1.859,2Zm8.875,4.786h-7.987v-.636H110.9v-1.2h-1.811v-.623H110.9v-.912h.732v.912h2.075v-.912h.755v.912H116.3v.623h-1.835v1.2h2.219Zm-5.121-6.465h-2.615v-.576h3.3v1.979h-2.411V142c0,.216.06.264.468.264h1.355c.3,0,.36-.073.4-.624a1.494,1.494,0,0,0,.6.228c-.084.768-.287.972-.887.972h-1.535c-.852,0-1.067-.168-1.067-.84v-1.26h2.4Zm.444,6.872a10.355,10.355,0,0,1-2.363,1.571,3.077,3.077,0,0,0-.587-.5,7.882,7.882,0,0,0,2.23-1.308Zm-.372-1.043h2.075v-1.2h-2.075Zm3.79-5.829h-2.567v-.576h3.274v1.979h-2.374v.672c0,.228.072.276.492.276h1.5c.312,0,.372-.084.407-.672a1.8,1.8,0,0,0,.6.24c-.072.8-.288,1.008-.911,1.008h-1.655c-.876,0-1.116-.168-1.116-.84v-1.26h2.351Zm.288,8.48a10.929,10.929,0,0,0-2.219-1.452l.564-.372a14.56,14.56,0,0,1,2.41,1.463Z"/><path d="M118.127,148.583l-.516-.707a13.985,13.985,0,0,0,3.047-2.339l.5.648A16.358,16.358,0,0,1,118.127,148.583Zm2.675-.455a6.294,6.294,0,0,0,1.93.275c.54,0,1.236-.215,1.236-1.019,0-.827-.887-1.907-1.559-2.651-.252-.252-.612-.6-.924-.887l.648-.552c.276.288.564.612.84.912,1.079,1.151,1.882,2.194,1.882,3.262a1.752,1.752,0,0,1-1.991,1.751,9.653,9.653,0,0,1-1.943-.192Zm2.338-5.7a8.788,8.788,0,0,0,.828-.612,12.119,12.119,0,0,0-2.555-1.416l.5-.634a17.014,17.014,0,0,1,2.9,1.583l.2.575c-.288.227-.911.719-1.343,1.019ZM127.7,148.5a11.735,11.735,0,0,0-2.015-3.718l.708-.384a13.444,13.444,0,0,1,2.1,3.682Zm-.252-5.9-.588.263a14.914,14.914,0,0,0-.983-1.678l.576-.252A15.349,15.349,0,0,1,127.446,142.6Zm1.331-.493-.588.265a10.732,10.732,0,0,0-1.007-1.655l.576-.252A14.176,14.176,0,0,1,128.777,142.106Z"/><path d="M138.762,141.711c-.252.143-.528.3-.863.468a38.625,38.625,0,0,0-3.658,2c-1.128.731-1.787,1.523-1.787,2.434,0,1.008.947,1.644,2.866,1.644a17.95,17.95,0,0,0,3.79-.4l-.012.96a22.893,22.893,0,0,1-3.742.288c-2.207,0-3.79-.672-3.79-2.4,0-1.2.756-2.171,2.063-3.07a38.674,38.674,0,0,1-1.727-3.682l.84-.348a26.487,26.487,0,0,0,1.607,3.562c1.139-.695,2.483-1.331,3.142-1.715a6.582,6.582,0,0,0,.8-.527Z"/><path d="M144.622,149.507a19.188,19.188,0,0,0-2.663-2.663l.7-.623a22.539,22.539,0,0,1,2.7,2.675Z"/><path d="M159.728,143.09h3.934v6.7h-.828v-.528h-8.083v-.791h8.083v-1.992h-7.472v-.767h7.472v-1.835h-7.855v-.792h3.9v-4.245h.852Zm-3.334-.648a11.383,11.383,0,0,0-1.559-2.757l.707-.3a11.589,11.589,0,0,1,1.607,2.721Zm7.423-2.866a28.692,28.692,0,0,1-1.751,2.963l-.659-.288a18.506,18.506,0,0,0,1.572-2.975Z"/><path d="M172.508,141.783c-.792.168-1.655.312-2.5.407-.108.516-.24,1.068-.371,1.583a34.514,34.514,0,0,1-1.86,5.422l-.947-.312a26.109,26.109,0,0,0,1.978-5.313c.109-.4.216-.851.325-1.307-.42.036-.8.048-1.152.048-.515,0-.935-.024-1.367-.048l-.024-.84a10.3,10.3,0,0,0,1.415.084c.4,0,.828-.024,1.3-.06.084-.456.155-.84.191-1.092a4.385,4.385,0,0,0,.048-.947l1.031.084c-.071.252-.155.684-.2.911l-.192.96a20.178,20.178,0,0,0,2.327-.443Zm-.516,4.2a4.314,4.314,0,0,0-.18,1.081c0,.575.264,1.138,2.027,1.138a13.039,13.039,0,0,0,2.3-.227l-.037.863a15.518,15.518,0,0,1-2.278.168c-1.848,0-2.818-.564-2.818-1.739a7.218,7.218,0,0,1,.168-1.355Zm-.228-2.877c.612-.048,1.38-.1,2.147-.1a18.754,18.754,0,0,1,2.051.108l-.024.816a14.939,14.939,0,0,0-1.992-.144,18.85,18.85,0,0,0-2.182.132Z"/><path d="M181.354,139.48a22.7,22.7,0,0,0-.564,3.442c.455-1.283,1.727-2.842,3.262-2.842,1.571,0,2.686,1.583,2.686,4.054,0,3.286-2.087,4.713-4.989,5.241l-.5-.768c2.555-.383,4.606-1.462,4.606-4.45,0-1.894-.623-3.3-1.931-3.3-1.487,0-2.891,2.16-3.046,3.718a4.791,4.791,0,0,0,.023,1.487l-.839.073a14.338,14.338,0,0,1-.12-1.871,30.175,30.175,0,0,1,.372-3.838c.047-.372.072-.708.1-.984Z"/><path d="M194.528,139.564c-.048.205-.095.432-.132.66-.059.336-.179,1.08-.311,1.763.575-.049,1.092-.084,1.392-.084,1.018,0,1.894.384,1.894,1.967a11.425,11.425,0,0,1-.7,4.281,1.658,1.658,0,0,1-1.7.972,6.987,6.987,0,0,1-1.392-.18l-.143-.912a5.4,5.4,0,0,0,1.462.264,1.032,1.032,0,0,0,1.068-.623,10.3,10.3,0,0,0,.576-3.694c0-1.116-.516-1.307-1.283-1.307-.3,0-.8.035-1.356.084a23.488,23.488,0,0,1-2.5,6.38l-.888-.348a19.351,19.351,0,0,0,2.519-5.948c-.647.071-1.259.132-1.583.167-.264.024-.731.084-1.031.133l-.084-.949a9.116,9.116,0,0,0,1.019,0c.4-.011,1.116-.071,1.86-.131a13.958,13.958,0,0,0,.3-2.59Zm4.078,1.3a20.658,20.658,0,0,1,2.195,4.21l-.827.408a14.613,14.613,0,0,0-2.147-4.27Z"/><path d="M205.306,140.668l.947.191c-.084.252-.156.564-.216.816a25.161,25.161,0,0,1-1.092,3.778,17.324,17.324,0,0,1-1.774,3.275l-.9-.384a15.714,15.714,0,0,0,1.835-3.251A18.426,18.426,0,0,0,205.306,140.668Zm2.973.168.865-.288a40.389,40.389,0,0,1,1.738,3.765c.492,1.2,1.128,3.023,1.451,4.09l-.935.3a37.465,37.465,0,0,0-1.379-4.1A31.816,31.816,0,0,0,208.279,140.836Z"/><path d="M222.6,141.063a2.977,2.977,0,0,0-.277.48,15.024,15.024,0,0,1-2.039,3.562,33.629,33.629,0,0,1,3.527,3.61l-.744.636a28.283,28.283,0,0,0-3.346-3.6A15,15,0,0,1,215,149.291l-.684-.72a13.628,13.628,0,0,0,4.953-3.586,10.927,10.927,0,0,0,2.027-3.406h-4.785c-.42,0-1.068.048-1.175.06v-.971c.132.012.8.071,1.175.071h4.7a2.966,2.966,0,0,0,.84-.095Zm.155,0a13.07,13.07,0,0,0-.971-1.667l.587-.251a17.47,17.47,0,0,1,.984,1.642Zm.948-2.338a16.93,16.93,0,0,1,1.007,1.63l-.588.277a12.49,12.49,0,0,0-.995-1.655Z"/><path d="M228.034,148.512a1.22,1.22,0,0,0,.108-.565v-6.92a6.59,6.59,0,0,0-.1-1.043H229.1a8.746,8.746,0,0,0-.084,1.043v6.909a13,13,0,0,0,6.644-4.114l.48.743a13.618,13.618,0,0,1-7.029,4.27,2.244,2.244,0,0,0-.467.192Z"/><path d="M242.349,139.6c-.037.2-.084.431-.132.647-.048.348-.168,1.091-.312,1.774.575-.047,1.091-.084,1.391-.084,1.019,0,1.9.384,1.9,1.968a11.307,11.307,0,0,1-.7,4.27,1.622,1.622,0,0,1-1.7.97,7.21,7.21,0,0,1-1.392-.167l-.143-.912a5.557,5.557,0,0,0,1.463.264,1.032,1.032,0,0,0,1.067-.623,10.056,10.056,0,0,0,.564-3.694c0-1.116-.5-1.308-1.259-1.308-.3,0-.8.036-1.356.084a23.911,23.911,0,0,1-2.507,6.381l-.876-.348a19.143,19.143,0,0,0,2.507-5.949c-.647.061-1.258.132-1.583.156-.275.036-.719.1-1.019.144l-.1-.947a9.915,9.915,0,0,0,1.02,0c.407-.012,1.115-.073,1.858-.132a14,14,0,0,0,.313-2.591Zm4.078,1.39a19.718,19.718,0,0,1,2.194,4.2l-.827.4a14.226,14.226,0,0,0-2.148-4.233Zm.623.156a13.133,13.133,0,0,0-.984-1.667l.588-.251a16.941,16.941,0,0,1,1,1.655Zm1.332-.479a10.077,10.077,0,0,0-1.008-1.655l.588-.252a16.21,16.21,0,0,1,1.019,1.642Z"/><path d="M260.13,145.081a22.986,22.986,0,0,1-2.579,1.787,6.774,6.774,0,0,0,3.31,2.171,3.343,3.343,0,0,0-.54.684,7.806,7.806,0,0,1-4.965-5.53,10.685,10.685,0,0,1-1.823,1.44v2.806c.96-.24,2.015-.515,3.046-.779l.072.719c-1.882.5-3.922,1.032-5.337,1.392l-.263-.72c.479-.12,1.055-.252,1.69-.42v-2.519a15.165,15.165,0,0,1-2.506,1.116,3.573,3.573,0,0,0-.515-.648,13.292,13.292,0,0,0,4.617-2.423h-4.222v-.707h4.774V142.3H251.1v-.672h3.79v-1.043h-4.342v-.708h4.342v-1.031h.791v1.031h4.4v.708h-4.4v1.043h3.934v.672H255.68v1.151H260.5v.707h-4.4a8.584,8.584,0,0,0,1.055,2.184,17.872,17.872,0,0,0,2.351-1.751Z"/><path d="M265.029,144.877a11.046,11.046,0,0,1-2.53,3.814,5.276,5.276,0,0,0-.708-.479,9.3,9.3,0,0,0,2.423-3.538Zm7.521-2.219v.792h-4.81v5.265c0,.54-.144.767-.528.912a8.522,8.522,0,0,1-2.158.144,3.321,3.321,0,0,0-.288-.84c.839.024,1.607.036,1.823.024s.3-.072.3-.264V143.45h-4.834v-.792Zm-1.044-2.1h-8.384v-.791h8.384Zm-1.259,4.149a15.177,15.177,0,0,1,2.194,3.635l-.792.347A14.765,14.765,0,0,0,269.515,145Z"/><path d="M283.422,141.627c-.743.192-1.535.372-2.267.492.408.936,1.068,2.362,1.608,3.37l-.516.516c-.48-.1-1.655-.264-2.411-.336l.084-.7c.468.035,1.331.131,1.739.179-.36-.767-.983-2.075-1.344-2.915a24.294,24.294,0,0,1-5.06.036l-.025-.863a20.513,20.513,0,0,0,4.749.072l-.418-.935a8.031,8.031,0,0,0-.493-.972l.972-.18c.288.828.516,1.343.779,1.967a15,15,0,0,0,2.447-.588Zm-6.729,3.61a4.556,4.556,0,0,0-.347,1.511c0,1.08.767,1.715,2.554,1.715a12.539,12.539,0,0,0,3.1-.323l-.013.887a15.42,15.42,0,0,1-3.093.264c-2.183,0-3.395-.876-3.395-2.339a6.735,6.735,0,0,1,.324-1.8Z"/><path d="M296.934,147.863a3.039,3.039,0,0,1-2.171,1.008,1.27,1.27,0,0,1-1.3-1.451c0-1.331.456-3.311.456-4.485a.862.862,0,0,0-.984-.984c-.971,0-2.422,1.1-3.538,2.315-.036.515-.047,1.019-.047,1.451,0,1.1-.013,1.787.036,2.83.011.2.035.48.059.7h-.935c.011-.156.036-.48.036-.672,0-1.151.012-1.7.023-2.974,0-.168.013-.408.025-.684-.588.888-1.4,2.064-2.015,2.915l-.54-.744c.66-.827,2.051-2.734,2.639-3.646.036-.408.059-.828.084-1.223-.528.072-1.572.216-2.339.324l-.1-.888a4.958,4.958,0,0,0,.731-.024c.384-.023,1.128-.1,1.763-.2.036-.575.061-1.02.061-1.152a5.212,5.212,0,0,0-.048-.851l1.031.036c-.06.276-.143.96-.24,1.812l.072-.025.336.384c-.144.216-.348.527-.516.8-.024.252-.036.5-.06.756.912-.852,2.459-2.04,3.658-2.04a1.467,1.467,0,0,1,1.644,1.572c0,1.187-.456,3.286-.456,4.485,0,.407.191.743.647.743a2.669,2.669,0,0,0,1.835-1.007Z"/><path d="M307.134,148.691a8.646,8.646,0,0,0-2.939-1.8c.013.323.025.586.025.779,0,.791-.5,1.655-2.051,1.655-1.679,0-2.614-.6-2.614-1.727,0-1.056,1.031-1.775,2.734-1.775a5.93,5.93,0,0,1,1.043.084c-.023-.564-.048-1.164-.06-1.68h-.683c-.828,0-2.135-.072-3-.167v-.816a23.1,23.1,0,0,0,3.011.216h.647v-1.8c-.191.012-.395.012-.6.012a25.719,25.719,0,0,1-2.83-.18V140.7a19.006,19.006,0,0,0,2.819.229h.624v-.816a5.746,5.746,0,0,0-.049-.7h.912c-.024.2-.048.42-.061.78,0,.144-.011.4-.011.707a27,27,0,0,0,3.094-.311l.012.8c-.971.1-1.991.192-3.106.24v1.8a30.45,30.45,0,0,0,3.334-.324v.816c-1.139.144-2.2.227-3.323.276.025.636.061,1.3.084,1.87a10,10,0,0,1,3.479,1.871Zm-3.778-2.027a6.368,6.368,0,0,0-1.175-.12c-1.188,0-1.824.456-1.824,1.019s.481,1,1.716,1c.7,0,1.3-.205,1.3-1.056C303.368,147.288,303.356,146.988,303.356,146.664Z"/><path d="M316.7,141.735c0,.7.013,1.439.025,1.979a2.965,2.965,0,0,1,.372,1.5c0,1.619-.756,3.37-3.491,4.2l-.744-.72c1.632-.383,2.723-1.08,3.167-2.207a1.6,1.6,0,0,1-1.08.372,1.881,1.881,0,0,1-1.942-1.966,2.047,2.047,0,0,1,2.051-2.039,2.1,2.1,0,0,1,.851.168l-.012-1.272c-1.811.012-3.862.1-5.349.2l-.025-.84c1.32-.024,3.551-.095,5.362-.12-.012-.359-.012-.672-.024-.851a4.407,4.407,0,0,0-.084-.7h1a6.05,6.05,0,0,0-.059.684c-.013.2-.013.5-.013.851h.252c1.487,0,2.891,0,3.431.012v.8c-.66-.036-1.716-.06-3.443-.06Zm-.527,2.674a1.1,1.1,0,0,0-1.115-.827,1.25,1.25,0,0,0-1.248,1.3,1.18,1.18,0,0,0,1.259,1.224C315.8,146.1,316.256,145.525,316.172,144.409Z"/><path d="M325.449,147.756a1.805,1.805,0,1,1-1.81-1.8A1.8,1.8,0,0,1,325.449,147.756Zm-.563,0A1.242,1.242,0,1,0,323.639,149,1.243,1.243,0,0,0,324.886,147.756Z"/><path d="M99.308,163.078a1.236,1.236,0,1,1-1.235,1.235A1.233,1.233,0,0,1,99.308,163.078Z"/><path d="M111.728,163.09h3.934v6.7h-.828v-.528h-8.083v-.791h8.083v-1.992h-7.472v-.767h7.472v-1.835h-7.855v-.792h3.9v-4.245h.852Zm-3.334-.648a11.389,11.389,0,0,0-1.56-2.757l.708-.3a11.589,11.589,0,0,1,1.607,2.721Zm7.424-2.866a29.054,29.054,0,0,1-1.751,2.963l-.66-.288a18.423,18.423,0,0,0,1.571-2.975Z"/><path d="M124.508,161.783c-.792.168-1.655.312-2.495.407-.108.516-.24,1.068-.372,1.583a34.414,34.414,0,0,1-1.859,5.422l-.948-.312a26.049,26.049,0,0,0,1.979-5.313c.108-.4.216-.851.324-1.307-.419.036-.8.048-1.151.048-.516,0-.935-.024-1.367-.048l-.024-.84a10.3,10.3,0,0,0,1.415.084c.4,0,.827-.024,1.3-.06.084-.456.156-.84.192-1.092a4.385,4.385,0,0,0,.048-.947l1.032.084c-.072.252-.156.684-.2.911l-.192.96a20.178,20.178,0,0,0,2.327-.443Zm-.516,4.2a4.314,4.314,0,0,0-.18,1.081c0,.575.264,1.138,2.027,1.138a13.039,13.039,0,0,0,2.3-.227l-.037.863a15.528,15.528,0,0,1-2.278.168c-1.847,0-2.819-.564-2.819-1.739a7.388,7.388,0,0,1,.168-1.355Zm-.228-2.877c.611-.048,1.379-.1,2.147-.1a18.754,18.754,0,0,1,2.051.108l-.024.816a14.949,14.949,0,0,0-1.991-.144,18.854,18.854,0,0,0-2.183.132Z"/><path d="M133.354,159.48a22.576,22.576,0,0,0-.564,3.442c.455-1.283,1.727-2.842,3.262-2.842,1.571,0,2.686,1.583,2.686,4.054,0,3.286-2.087,4.713-4.989,5.241l-.5-.768c2.555-.383,4.606-1.462,4.606-4.45,0-1.894-.624-3.3-1.931-3.3-1.487,0-2.891,2.16-3.046,3.718a4.791,4.791,0,0,0,.023,1.487l-.839.073a14.338,14.338,0,0,1-.12-1.871,30.175,30.175,0,0,1,.372-3.838c.048-.372.072-.708.1-.984Z"/><path d="M143.239,164.313a7.972,7.972,0,0,1,2.386-5.7l.648.348a7.474,7.474,0,0,0,0,10.7l-.648.348A7.975,7.975,0,0,1,143.239,164.313Z"/><path d="M147.9,168.056h1.967v-6.729h-1.547v-.636a5.02,5.02,0,0,0,1.775-.6h.743v7.964h1.787v.815H147.9Z"/><path d="M154.019,164.445c0-3.046,1.043-4.509,2.7-4.509s2.675,1.475,2.675,4.509c0,3.071-1.032,4.582-2.675,4.582S154.019,167.516,154.019,164.445Zm4.425,0c0-2.566-.695-3.717-1.727-3.717s-1.751,1.151-1.751,3.717c0,2.616.708,3.79,1.751,3.79S158.444,167.061,158.444,164.445Z"/><path d="M163.57,169.435a7.207,7.207,0,0,0,1.644-2.411l.755.192a8.258,8.258,0,0,1-1.679,2.566Zm9.4-3.178h-7.928v-3.742h3.466v-3.67h.792v1.319h4.569v.756H169.3v1.595h3.67Zm-.8-3H165.8v2.255h6.368Zm-4.27,4.006a12.53,12.53,0,0,1,.3,2.291l-.8.108a12.555,12.555,0,0,0-.263-2.339Zm2.435-.1a11.393,11.393,0,0,1,.888,2.291l-.768.18a12.106,12.106,0,0,0-.84-2.3Zm2.41-.2a13.078,13.078,0,0,1,1.608,2.4l-.756.312a12.558,12.558,0,0,0-1.547-2.447Z"/><path d="M178.593,164.313a7.972,7.972,0,0,1-2.387,5.7l-.647-.348a7.474,7.474,0,0,0,0-10.7l.647-.348A7.969,7.969,0,0,1,178.593,164.313Z"/><path d="M196.458,161.711c-.252.143-.528.3-.864.468a38.623,38.623,0,0,0-3.657,2c-1.128.731-1.788,1.523-1.788,2.434,0,1.008.948,1.644,2.867,1.644a17.957,17.957,0,0,0,3.79-.4l-.012.96a22.913,22.913,0,0,1-3.742.288c-2.207,0-3.79-.672-3.79-2.4,0-1.2.756-2.171,2.062-3.07a38.2,38.2,0,0,1-1.726-3.682l.839-.348a26.613,26.613,0,0,0,1.607,3.562c1.14-.695,2.482-1.331,3.143-1.715a6.741,6.741,0,0,0,.8-.527Z"/><path d="M202.041,159.769c-.06.179-.144.527-.191.743a28.793,28.793,0,0,0-.588,4.821,12.886,12.886,0,0,0,.12,1.787c.191-.576.491-1.331.695-1.823l.456.36c-.288.8-.72,2.015-.84,2.59a2.619,2.619,0,0,0-.059.516c.012.12.035.288.048.408l-.768.048a14.228,14.228,0,0,1-.444-3.742,35.44,35.44,0,0,1,.551-5.013,6.109,6.109,0,0,0,.073-.779Zm7.808,8.586a9.186,9.186,0,0,0-1.859-1.391v.3a1.758,1.758,0,0,1-2.015,1.895c-1.583,0-2.435-.636-2.435-1.68,0-.947.864-1.75,2.411-1.75a5.785,5.785,0,0,1,1.163.12c-.048-.948-.107-2.147-.12-3.155-.4.025-.8.036-1.2.036-.672,0-1.283-.047-1.967-.084l-.012-.8c.672.06,1.307.095,2,.095.4,0,.78-.011,1.175-.023,0-.611-.012-1.151,0-1.5a6.746,6.746,0,0,0-.048-.72h.972c-.036.24-.06.468-.072.7-.024.336-.024.923-.036,1.475a17.221,17.221,0,0,0,2.086-.276v.828c-.659.107-1.367.18-2.086.239.012,1.188.1,2.411.144,3.443a8.1,8.1,0,0,1,2.351,1.559Zm-2.71-1.751a4.311,4.311,0,0,0-1.248-.192c-.935,0-1.571.42-1.571,1,0,.612.6.971,1.487.971,1.055,0,1.343-.516,1.343-1.331C207.15,166.928,207.15,166.772,207.139,166.6Z"/><path d="M218.3,161.1c1.487,0,2.89.011,3.442.011l-.012.8c-.66-.036-1.7-.048-3.442-.048h-.228c0,.684.012,1.427.024,1.967a2.952,2.952,0,0,1,.372,1.5c0,1.631-.756,3.382-3.49,4.21l-.744-.72c1.643-.384,2.735-1.092,3.178-2.23a1.661,1.661,0,0,1-1.091.384,1.876,1.876,0,0,1-1.943-1.968,2.054,2.054,0,0,1,2.051-2.038,2.278,2.278,0,0,1,.84.155c0-.359,0-.815-.013-1.259-1.8.024-3.849.1-5.337.216l-.023-.84c1.306-.023,3.55-.107,5.348-.132,0-.359-.011-.672-.024-.851a4.811,4.811,0,0,0-.071-.7h.983c-.013.121-.048.552-.048.7-.012.192-.012.492-.012.84Zm-.779,3.429a1.087,1.087,0,0,0-1.1-.827,1.25,1.25,0,0,0-1.247,1.3,1.185,1.185,0,0,0,1.247,1.235C217.159,166.232,217.6,165.645,217.52,164.529Zm2.566-3.49a14.654,14.654,0,0,0-.888-1.475l.6-.263c.288.4.66,1.018.912,1.463Zm1.427-.311a10.011,10.011,0,0,0-.887-1.463l.6-.264a15.13,15.13,0,0,1,.911,1.451Z"/><path d="M234.629,167.863a3.039,3.039,0,0,1-2.171,1.008,1.27,1.27,0,0,1-1.3-1.451c0-1.331.456-3.311.456-4.485a.861.861,0,0,0-.983-.984c-.972,0-2.423,1.1-3.538,2.315-.036.515-.048,1.019-.048,1.451,0,1.1-.013,1.787.036,2.83.012.2.035.48.06.7h-.936c.012-.156.036-.48.036-.672,0-1.151.012-1.7.024-2.974,0-.168.012-.408.024-.684-.588.888-1.4,2.064-2.015,2.915l-.54-.744c.66-.827,2.051-2.734,2.639-3.646.036-.408.06-.828.084-1.223-.527.072-1.571.216-2.339.324l-.1-.888a4.976,4.976,0,0,0,.732-.024c.384-.023,1.128-.1,1.763-.2.036-.575.06-1.02.06-1.152a5.212,5.212,0,0,0-.048-.851l1.031.036c-.06.276-.143.96-.24,1.812l.072-.025.336.384c-.144.216-.347.527-.515.8-.025.252-.036.5-.061.756.912-.852,2.459-2.04,3.658-2.04a1.466,1.466,0,0,1,1.644,1.572c0,1.187-.456,3.286-.456,4.485,0,.407.191.743.647.743a2.669,2.669,0,0,0,1.835-1.007Z"/><path d="M238.614,164.313a7.969,7.969,0,0,1,2.387-5.7l.647.348a7.474,7.474,0,0,0,0,10.7l-.647.348A7.972,7.972,0,0,1,238.614,164.313Z"/><path d="M242.807,164.445c0-3.046,1.044-4.509,2.7-4.509s2.675,1.475,2.675,4.509c0,3.071-1.032,4.582-2.675,4.582S242.807,167.516,242.807,164.445Zm4.425,0c0-2.566-.695-3.717-1.727-3.717s-1.751,1.151-1.751,3.717c0,2.616.708,3.79,1.751,3.79S247.232,167.061,247.232,164.445Z"/><path d="M252.358,169.435A7.207,7.207,0,0,0,254,167.024l.755.192a8.258,8.258,0,0,1-1.679,2.566Zm9.4-3.178h-7.928v-3.742H257.3v-3.67h.792v1.319h4.569v.756h-4.569v1.595h3.67Zm-.8-3H254.59v2.255h6.368Zm-4.27,4.006a12.53,12.53,0,0,1,.3,2.291l-.8.108a12.563,12.563,0,0,0-.264-2.339Zm2.435-.1a11.393,11.393,0,0,1,.888,2.291l-.768.18a12.106,12.106,0,0,0-.84-2.3Zm2.41-.2a13.027,13.027,0,0,1,1.608,2.4l-.756.312a12.51,12.51,0,0,0-1.547-2.447Z"/><path d="M267.381,164.313a7.972,7.972,0,0,1-2.387,5.7l-.647-.348a7.472,7.472,0,0,0,0-10.7l.647-.348A7.969,7.969,0,0,1,267.381,164.313Z"/><path d="M280.832,159.6c-.036.2-.084.431-.132.647-.048.348-.168,1.091-.311,1.774.575-.047,1.09-.084,1.39-.084,1.02,0,1.9.384,1.9,1.968a11.307,11.307,0,0,1-.7,4.27,1.624,1.624,0,0,1-1.7.97,7.2,7.2,0,0,1-1.391-.167l-.144-.912a5.57,5.57,0,0,0,1.463.264,1.031,1.031,0,0,0,1.067-.623,10.056,10.056,0,0,0,.564-3.694c0-1.116-.5-1.308-1.259-1.308-.3,0-.8.036-1.355.084a23.979,23.979,0,0,1-2.507,6.381l-.876-.348a19.167,19.167,0,0,0,2.507-5.949c-.648.061-1.259.132-1.583.156-.276.036-.72.1-1.02.144l-.1-.947a9.915,9.915,0,0,0,1.02,0c.407-.012,1.115-.073,1.858-.132a14,14,0,0,0,.313-2.591Zm4.078,1.39a19.718,19.718,0,0,1,2.194,4.2l-.827.4a14.224,14.224,0,0,0-2.147-4.233Zm.623.156a13.124,13.124,0,0,0-.983-1.667l.588-.251a16.941,16.941,0,0,1,1,1.655Zm1.332-.479a9.941,9.941,0,0,0-1.008-1.655l.588-.252a16.045,16.045,0,0,1,1.02,1.642Z"/><path d="M296.19,162.994a2.9,2.9,0,0,1,2.375,2.795c0,1.7-1.151,3.154-3.874,3.6l-.467-.732c2.11-.227,3.5-1.319,3.5-2.914a2.164,2.164,0,0,0-1.788-2.075,10.128,10.128,0,0,1-2.638,3.886c.084.336.179.66.276.96l-.78.239c-.071-.216-.132-.443-.2-.695a4.059,4.059,0,0,1-2.028.683,1.31,1.31,0,0,1-1.378-1.451c0-1.535,1.354-3.106,2.973-3.838.025-.611.084-1.223.132-1.787-.264.012-.527.012-.779.012-.492,0-1.415-.048-1.883-.071l-.025-.829a15.818,15.818,0,0,0,1.919.145c.288,0,.565,0,.852-.013.036-.371.072-.7.1-.959a4.329,4.329,0,0,0,.023-.528l.912.024a3.1,3.1,0,0,0-.12.5c-.048.252-.108.575-.156.936a24.81,24.81,0,0,0,4.174-.492l.011.8a37.578,37.578,0,0,1-4.281.444c-.048.48-.084,1-.12,1.523a7.489,7.489,0,0,1,2.027-.323c.156,0,.312.012.468.023l.048-.191a5.018,5.018,0,0,0,.12-.612l.863.2c-.072.156-.156.431-.215.611Zm-4.065,1.272a3.846,3.846,0,0,0-2.123,2.89c0,.5.239.756.695.756a3.155,3.155,0,0,0,1.715-.672,14.248,14.248,0,0,1-.287-2.675Zm3.046-.72h-.228a5.773,5.773,0,0,0-2.05.384c-.013.179-.013.372-.013.551a11.8,11.8,0,0,0,.216,2.183A8.026,8.026,0,0,0,295.171,163.546Z"/><path d="M303.837,159.48a22.826,22.826,0,0,0-.564,3.442c.456-1.283,1.727-2.842,3.262-2.842,1.571,0,2.687,1.583,2.687,4.054,0,3.286-2.087,4.713-4.99,5.241l-.5-.768c2.554-.383,4.605-1.462,4.605-4.45,0-1.894-.623-3.3-1.931-3.3-1.487,0-2.89,2.16-3.046,3.718a4.794,4.794,0,0,0,.024,1.487l-.84.073a14.367,14.367,0,0,1-.119-1.871,30.183,30.183,0,0,1,.371-3.838c.048-.372.072-.708.1-.984Z"/><path d="M321.617,168.691a8.641,8.641,0,0,0-2.938-1.8c.012.323.024.586.024.779,0,.791-.5,1.655-2.051,1.655-1.678,0-2.614-.6-2.614-1.727,0-1.056,1.031-1.775,2.734-1.775a5.923,5.923,0,0,1,1.043.084c-.023-.564-.047-1.164-.059-1.68h-.684c-.828,0-2.134-.072-3-.167v-.816a23.121,23.121,0,0,0,3.011.216h.647v-1.8c-.191.012-.395.012-.6.012a25.7,25.7,0,0,1-2.83-.18V160.7a18.992,18.992,0,0,0,2.818.229h.623v-.816a5.565,5.565,0,0,0-.048-.7h.912c-.024.2-.047.42-.06.78,0,.144-.012.4-.012.707a27.035,27.035,0,0,0,3.095-.311l.012.8c-.972.1-1.992.192-3.107.24v1.8a30.426,30.426,0,0,0,3.334-.324v.816c-1.139.144-2.194.227-3.322.276.024.636.06,1.3.084,1.87a9.989,9.989,0,0,1,3.478,1.871Zm-3.777-2.027a6.388,6.388,0,0,0-1.176-.12c-1.187,0-1.823.456-1.823,1.019s.48,1,1.716,1c.695,0,1.295-.205,1.295-1.056C317.852,167.288,317.84,166.988,317.84,166.664Z"/><path d="M331.183,161.735c0,.7.012,1.439.024,1.979a2.965,2.965,0,0,1,.372,1.5c0,1.619-.756,3.37-3.49,4.2l-.744-.72c1.631-.383,2.722-1.08,3.166-2.207a1.594,1.594,0,0,1-1.079.372,1.881,1.881,0,0,1-1.943-1.966,2.047,2.047,0,0,1,2.051-2.039,2.1,2.1,0,0,1,.852.168l-.013-1.272c-1.811.012-3.861.1-5.349.2l-.024-.84c1.319-.024,3.551-.095,5.361-.12-.012-.359-.012-.672-.023-.851a4.658,4.658,0,0,0-.084-.7h1a5.822,5.822,0,0,0-.06.684c-.012.2-.012.5-.012.851h.252c1.487,0,2.89,0,3.43.012v.8c-.66-.036-1.716-.06-3.442-.06Zm-.528,2.674a1.1,1.1,0,0,0-1.115-.827,1.251,1.251,0,0,0-1.248,1.3,1.18,1.18,0,0,0,1.26,1.224C330.283,166.1,330.739,165.525,330.655,164.409Z"/><path d="M339.933,167.756a1.806,1.806,0,1,1-1.811-1.8A1.8,1.8,0,0,1,339.933,167.756Zm-.564,0A1.241,1.241,0,1,0,338.122,169,1.243,1.243,0,0,0,339.369,167.756Z"/><path d="M99.308,183.078a1.236,1.236,0,1,1-1.235,1.235A1.233,1.233,0,0,1,99.308,183.078Z"/><path d="M116.129,185.081a22.793,22.793,0,0,1-2.578,1.787,6.778,6.778,0,0,0,3.31,2.171,3.309,3.309,0,0,0-.54.684,7.808,7.808,0,0,1-4.965-5.53,10.685,10.685,0,0,1-1.823,1.44v2.806c.96-.24,2.015-.515,3.047-.779l.071.719c-1.882.5-3.922,1.032-5.337,1.392l-.263-.72c.479-.12,1.055-.252,1.691-.42v-2.519a15.174,15.174,0,0,1-2.507,1.116,3.534,3.534,0,0,0-.516-.648,13.279,13.279,0,0,0,4.618-2.423h-4.222v-.707h4.774V182.3H107.1v-.672h3.79v-1.043h-4.342v-.708h4.342v-1.031h.791v1.031h4.4v.708h-4.4v1.043h3.934v.672H111.68v1.151H116.5v.707h-4.4a8.584,8.584,0,0,0,1.055,2.184,17.872,17.872,0,0,0,2.351-1.751Z"/><path d="M121.029,184.877a11.046,11.046,0,0,1-2.53,3.814,5.213,5.213,0,0,0-.708-.479,9.3,9.3,0,0,0,2.423-3.538Zm7.52-2.219v.792H123.74v5.265c0,.54-.144.767-.528.912a8.517,8.517,0,0,1-2.158.144,3.321,3.321,0,0,0-.288-.84c.839.024,1.607.036,1.823.024s.3-.072.3-.264V183.45h-4.834v-.792Zm-1.043-2.1h-8.383v-.791h8.383Zm-1.259,4.149a15.177,15.177,0,0,1,2.194,3.635l-.791.347A14.8,14.8,0,0,0,125.515,185Z"/><path d="M139.422,181.627c-.744.192-1.535.372-2.267.492.408.936,1.068,2.362,1.607,3.37l-.515.516c-.48-.1-1.656-.264-2.411-.336l.084-.7c.468.035,1.331.131,1.739.179-.36-.767-.984-2.075-1.344-2.915a24.3,24.3,0,0,1-5.061.036l-.024-.863a20.521,20.521,0,0,0,4.75.072l-.42-.935a8.04,8.04,0,0,0-.492-.972l.972-.18c.288.828.516,1.343.779,1.967a14.975,14.975,0,0,0,2.447-.588Zm-6.728,3.61a4.534,4.534,0,0,0-.348,1.511c0,1.08.767,1.715,2.554,1.715A12.532,12.532,0,0,0,138,188.14l-.012.887a15.456,15.456,0,0,1-3.094.264c-2.183,0-3.4-.876-3.4-2.339a6.735,6.735,0,0,1,.324-1.8Z"/><path d="M152.934,187.863a3.039,3.039,0,0,1-2.172,1.008,1.27,1.27,0,0,1-1.295-1.451c0-1.331.456-3.311.456-4.485a.862.862,0,0,0-.984-.984c-.971,0-2.422,1.1-3.538,2.315-.036.515-.047,1.019-.047,1.451,0,1.1-.013,1.787.035,2.83.012.2.036.48.06.7h-.935c.012-.156.036-.48.036-.672,0-1.151.012-1.7.024-2.974,0-.168.012-.408.024-.684-.588.888-1.4,2.064-2.015,2.915l-.54-.744c.66-.827,2.051-2.734,2.639-3.646.036-.408.06-.828.084-1.223-.528.072-1.572.216-2.339.324l-.1-.888a4.958,4.958,0,0,0,.731-.024c.384-.023,1.128-.1,1.764-.2.035-.575.06-1.02.06-1.152a5.107,5.107,0,0,0-.049-.851l1.032.036c-.06.276-.144.96-.24,1.812l.072-.025.336.384c-.144.216-.348.527-.516.8-.024.252-.036.5-.06.756.912-.852,2.459-2.04,3.658-2.04a1.466,1.466,0,0,1,1.643,1.572c0,1.187-.455,3.286-.455,4.485,0,.407.192.743.647.743a2.669,2.669,0,0,0,1.835-1.007Z"/><path d="M162.234,180.536c-.2.144-.455.312-.623.443-.576.432-2.231,1.908-3.178,2.7a4.944,4.944,0,0,1,1.7-.264c1.967,0,3.37,1.176,3.37,2.759,0,1.931-1.619,3.13-4.066,3.13-1.607,0-2.554-.707-2.554-1.656a1.644,1.644,0,0,1,1.787-1.51,2.35,2.35,0,0,1,2.423,2.123,2.155,2.155,0,0,0,1.558-2.087c0-1.188-1.187-2.064-2.71-2.064-1.979,0-3.047.816-4.593,2.364l-.624-.648c1.007-.828,2.543-2.123,3.238-2.7.66-.552,2.171-1.835,2.782-2.362-.636.023-3.105.143-3.718.168-.263.023-.515.036-.767.072l-.024-.9a6.254,6.254,0,0,0,.8.048c.612,0,3.467-.1,4.09-.156a3.552,3.552,0,0,0,.6-.1Zm-1.919,7.927a1.662,1.662,0,0,0-1.655-1.643c-.563,0-.983.325-.983.768,0,.6.719.947,1.643.947A6.332,6.332,0,0,0,160.315,188.463Z"/><path d="M169.438,179.108a17.3,17.3,0,0,1-1.236,2.507v8.119h-.756v-6.967a13.8,13.8,0,0,1-1.379,1.642,5.34,5.34,0,0,0-.467-.767,13.273,13.273,0,0,0,3.093-4.749Zm7.387,9.343v.756h-7.891v-.756h4.173a40.076,40.076,0,0,0,1.547-5.721l.852.144a55.374,55.374,0,0,1-1.631,5.577Zm-4.437-7.22v-2.243h.791v2.243h3.335V182h-7.281v-.768Zm-1.224,6.632a31.813,31.813,0,0,0-.911-4.905l.707-.119a31.224,31.224,0,0,1,.984,4.845Z"/><path d="M182.769,183.762c.047-.228.084-.48.131-.743h-4.725v-.636H183c.025-.24.061-.468.084-.7h-4.342V179.36h9.224v2.328h-4.078c-.036.227-.072.455-.108.7h4.677v.636h-4.785c-.048.263-.084.515-.132.743h3.91V187.9h-6.524v-4.137Zm6.008,5.493h-9.138v.527h-.792v-5.841h.792v4.666h9.138Zm-7.268-9.307h-2.027V181.1h2.027Zm5.17,4.329h-5v.684h5Zm0,1.188h-5v.708h5Zm0,1.212h-5v.719h5Zm-4.438-5.577h2.074v-1.152h-2.074Zm2.819,0h2.11v-1.152h-2.11Z"/><path d="M192.346,179.769c-.06.179-.144.527-.192.743a28.793,28.793,0,0,0-.588,4.821,12.888,12.888,0,0,0,.121,1.787c.191-.576.491-1.331.695-1.823l.456.36c-.288.8-.72,2.015-.84,2.59a2.622,2.622,0,0,0-.06.516c.012.12.036.288.048.408l-.767.048a14.221,14.221,0,0,1-.445-3.742,35.42,35.42,0,0,1,.552-5.013,6.285,6.285,0,0,0,.072-.779Zm7.807,8.586a9.153,9.153,0,0,0-1.858-1.391v.3a1.759,1.759,0,0,1-2.016,1.895c-1.583,0-2.434-.636-2.434-1.68,0-.947.864-1.75,2.411-1.75a5.785,5.785,0,0,1,1.163.12c-.048-.948-.107-2.147-.12-3.155-.4.025-.8.036-1.2.036-.672,0-1.284-.047-1.967-.084l-.012-.8c.672.06,1.307.095,2,.095.4,0,.779-.011,1.175-.023,0-.611-.012-1.151,0-1.5a7.018,7.018,0,0,0-.048-.72h.972c-.036.24-.06.468-.073.7-.023.336-.023.923-.036,1.475a17.265,17.265,0,0,0,2.087-.276v.828c-.659.107-1.367.18-2.087.239.013,1.188.1,2.411.145,3.443a8.08,8.08,0,0,1,2.35,1.559Zm-2.71-1.751a4.3,4.3,0,0,0-1.248-.192c-.934,0-1.57.42-1.57,1,0,.612.6.971,1.486.971,1.056,0,1.344-.516,1.344-1.331C197.455,186.928,197.455,186.772,197.443,186.6Z"/><path d="M207.728,183.09h3.934v6.7h-.828v-.528h-8.083v-.791h8.083v-1.992h-7.472v-.767h7.472v-1.835h-7.855v-.792h3.9v-4.245h.852Zm-3.334-.648a11.383,11.383,0,0,0-1.559-2.757l.707-.3a11.589,11.589,0,0,1,1.607,2.721Zm7.423-2.866a28.692,28.692,0,0,1-1.751,2.963l-.659-.288a18.506,18.506,0,0,0,1.572-2.975Z"/><path d="M220.508,181.783c-.792.168-1.655.312-2.5.407-.108.516-.24,1.068-.371,1.583a34.514,34.514,0,0,1-1.86,5.422l-.947-.312a26.109,26.109,0,0,0,1.978-5.313c.109-.4.216-.851.325-1.307-.42.036-.8.048-1.152.048-.515,0-.935-.024-1.367-.048l-.024-.84a10.3,10.3,0,0,0,1.415.084c.4,0,.828-.024,1.3-.06.084-.456.155-.84.191-1.092a4.385,4.385,0,0,0,.048-.947l1.031.084c-.071.252-.155.684-.2.911l-.192.96a20.178,20.178,0,0,0,2.327-.443Zm-.516,4.2a4.314,4.314,0,0,0-.18,1.081c0,.575.264,1.138,2.027,1.138a13.039,13.039,0,0,0,2.3-.227l-.037.863a15.518,15.518,0,0,1-2.278.168c-1.848,0-2.818-.564-2.818-1.739a7.218,7.218,0,0,1,.168-1.355Zm-.228-2.877c.612-.048,1.38-.1,2.147-.1a18.754,18.754,0,0,1,2.051.108l-.024.816a14.939,14.939,0,0,0-1.992-.144,18.85,18.85,0,0,0-2.182.132Z"/><path d="M229.354,179.48a22.7,22.7,0,0,0-.564,3.442c.455-1.283,1.727-2.842,3.262-2.842,1.571,0,2.686,1.583,2.686,4.054,0,3.286-2.087,4.713-4.989,5.241l-.5-.768c2.555-.383,4.606-1.462,4.606-4.45,0-1.894-.623-3.3-1.931-3.3-1.487,0-2.891,2.16-3.046,3.718a4.791,4.791,0,0,0,.023,1.487l-.839.073a14.338,14.338,0,0,1-.12-1.871,30.175,30.175,0,0,1,.372-3.838c.047-.372.072-.708.1-.984Z"/><path d="M240.154,180.308c.084.179.287.551.408.755.215.4.456.888.719,1.4a12.258,12.258,0,0,1,4.282-1.283c1.619,0,2.615.911,2.615,2.194,0,1.319-.84,2.351-2.7,2.351a5.188,5.188,0,0,1-1.763-.324l.024-.864a3.932,3.932,0,0,0,1.691.4c1.38,0,1.883-.756,1.883-1.6,0-.732-.551-1.391-1.775-1.391a11.092,11.092,0,0,0-3.934,1.211c.168.348.324.695.48,1.031.672,1.512,1.379,3.659,1.8,4.966l-.936.239a36.047,36.047,0,0,0-1.619-4.857l-.468-1.019c-.923.444-1.762.875-2.314,1.127l-.42-.9a7.3,7.3,0,0,0,.947-.312c.4-.156.9-.383,1.451-.624-.263-.551-.5-1.019-.707-1.355a5.751,5.751,0,0,0-.551-.8Zm3.658.8a16.854,16.854,0,0,0-1.547-1.379l.611-.444a15.841,15.841,0,0,1,1.548,1.331Z"/><path d="M256.7,181.735c0,.7.013,1.439.025,1.979a2.965,2.965,0,0,1,.372,1.5c0,1.619-.756,3.37-3.491,4.2l-.744-.72c1.632-.383,2.723-1.08,3.167-2.207a1.6,1.6,0,0,1-1.08.372,1.881,1.881,0,0,1-1.942-1.966,2.047,2.047,0,0,1,2.051-2.039,2.1,2.1,0,0,1,.851.168l-.012-1.272c-1.811.012-3.862.1-5.349.2l-.025-.84c1.32-.024,3.551-.095,5.362-.12-.012-.359-.012-.672-.024-.851a4.407,4.407,0,0,0-.084-.7h1a6.05,6.05,0,0,0-.059.684c-.013.2-.013.5-.013.851h.252c1.487,0,2.891,0,3.431.012v.8c-.66-.036-1.716-.06-3.443-.06Zm-.527,2.674a1.1,1.1,0,0,0-1.115-.827,1.25,1.25,0,0,0-1.248,1.3,1.18,1.18,0,0,0,1.259,1.224C255.8,186.1,256.256,185.525,256.172,184.409Z"/><path d="M271.422,181.627c-.743.192-1.535.372-2.267.492.408.936,1.068,2.362,1.608,3.37l-.516.516c-.48-.1-1.655-.264-2.411-.336l.084-.7c.468.035,1.331.131,1.739.179-.36-.767-.983-2.075-1.344-2.915a24.294,24.294,0,0,1-5.06.036l-.025-.863a20.513,20.513,0,0,0,4.749.072l-.418-.935a8.031,8.031,0,0,0-.493-.972l.972-.18c.288.828.516,1.343.779,1.967a15,15,0,0,0,2.447-.588Zm-6.729,3.61a4.556,4.556,0,0,0-.347,1.511c0,1.08.767,1.715,2.554,1.715a12.539,12.539,0,0,0,3.1-.323l-.013.887a15.42,15.42,0,0,1-3.093.264c-2.183,0-3.395-.876-3.395-2.339a6.735,6.735,0,0,1,.324-1.8Z"/><path d="M276.478,179.912a6.938,6.938,0,0,0-.2.743,27.237,27.237,0,0,0-.586,4.594,12.856,12.856,0,0,0,.107,1.787c.2-.563.479-1.307.684-1.8l.467.348a26.42,26.42,0,0,0-.839,2.627,1.966,1.966,0,0,0-.048.516c0,.131.024.287.036.407l-.78.06a14.945,14.945,0,0,1-.431-3.814,31.564,31.564,0,0,1,.552-4.774,6.043,6.043,0,0,0,.071-.779Zm2.71,5.733a4.1,4.1,0,0,0-.179,1.1c0,.54.359,1.1,2.051,1.1A12.833,12.833,0,0,0,284,187.54l.023.911a15.731,15.731,0,0,1-2.95.24c-1.978,0-2.854-.66-2.854-1.751a6.458,6.458,0,0,1,.192-1.367Zm4.45-4.809v.887a29.766,29.766,0,0,1-4.833,0v-.875A19.772,19.772,0,0,0,283.638,180.836Z"/><path d="M287.206,183.2v6.584h-.779v-10.41h4.305V183.2Zm0-3.214v1h2.771v-1Zm2.771,2.626v-1.067h-2.771v1.067Zm6.272,6.177c0,.468-.107.708-.407.84a4.5,4.5,0,0,1-1.56.144,2.607,2.607,0,0,0-.239-.732l-.084.132a4.23,4.23,0,0,1-2.65-1.847,4.183,4.183,0,0,1-2.759,1.883,2.74,2.74,0,0,0-.48-.527c1.763-.492,2.41-1.2,2.651-1.848h-2.555v-.623h2.675v-1H288.37V184.6h1.356a4.27,4.27,0,0,0-.565-1.02l.624-.192a3.88,3.88,0,0,1,.659,1.2l-.035.012h1.654a8.608,8.608,0,0,0,.613-1.248l.707.24c-.2.347-.432.708-.636,1.008h1.487v.611h-2.662v1h2.878v.623h-2.7a3.739,3.739,0,0,0,2.675,1.751,2.188,2.188,0,0,0-.361.42c.54.024,1.033.024,1.188.012s.216-.06.216-.228v-5.564h-3.634v-3.851h4.413Zm-3.645-8.8v1h2.866v-1Zm2.866,2.626v-1.067H292.6v1.067Z"/><path d="M301.161,179.145a18.3,18.3,0,0,1-1.091,2.422v8.2h-.756v-6.932a11.825,11.825,0,0,1-1.331,1.726,4.185,4.185,0,0,0-.444-.767,13.885,13.885,0,0,0,2.879-4.869Zm2.027,7.543a10.219,10.219,0,0,1-1.93,2.579,4.24,4.24,0,0,0-.576-.42,8.193,8.193,0,0,0,1.762-2.387Zm1.919-1.091v4.174h-.779v-4.15c-1.3.048-2.495.084-3.454.12l-.12-.767c.587,0,1.283-.013,2.051-.025.275-.252.575-.54.863-.827a14.018,14.018,0,0,0-2.435-1.884l.456-.5c.264.156.54.324.8.516a16.572,16.572,0,0,0,1.283-1.691c-.816.084-1.631.156-2.386.215a2.946,2.946,0,0,0-.216-.647,38.281,38.281,0,0,0,6.416-.96l.563.624a25.1,25.1,0,0,1-3.429.647l.059.037a26.98,26.98,0,0,1-1.774,2.134,12.282,12.282,0,0,1,1.186.984,26.943,26.943,0,0,0,2.159-2.494l.72.347a38.809,38.809,0,0,1-3.274,3.478c1.1-.035,2.314-.06,3.514-.108a15.9,15.9,0,0,0-1.091-1.247l.611-.3a12.214,12.214,0,0,1,2.123,2.686l-.659.348a6.267,6.267,0,0,0-.492-.8Zm1.811.851a11.557,11.557,0,0,1,1.835,2.435l-.659.36a12.159,12.159,0,0,0-1.8-2.483Z"/><path d="M317.707,182.994a2.9,2.9,0,0,1,2.375,2.795c0,1.7-1.151,3.154-3.874,3.6l-.468-.732c2.111-.227,3.5-1.319,3.5-2.914a2.164,2.164,0,0,0-1.787-2.075,10.129,10.129,0,0,1-2.639,3.886c.084.336.18.66.277.96l-.781.239c-.071-.216-.131-.443-.2-.695a4.053,4.053,0,0,1-2.026.683,1.311,1.311,0,0,1-1.379-1.451c0-1.535,1.355-3.106,2.974-3.838.024-.611.084-1.223.132-1.787-.264.012-.528.012-.78.012-.491,0-1.415-.048-1.883-.071l-.024-.829a15.8,15.8,0,0,0,1.919.145c.288,0,.564,0,.852-.013.036-.371.072-.7.1-.959a4.353,4.353,0,0,0,.024-.528l.912.024a2.9,2.9,0,0,0-.12.5c-.048.252-.109.575-.157.936a24.8,24.8,0,0,0,4.174-.492l.012.8a37.578,37.578,0,0,1-4.281.444c-.048.48-.084,1-.12,1.523a7.477,7.477,0,0,1,2.027-.323c.155,0,.311.012.468.023l.048-.191a5.429,5.429,0,0,0,.12-.612l.863.2c-.072.156-.156.431-.216.611Zm-4.065,1.272a3.844,3.844,0,0,0-2.123,2.89c0,.5.239.756.695.756a3.158,3.158,0,0,0,1.715-.672,14.248,14.248,0,0,1-.287-2.675Zm3.046-.72h-.228a5.783,5.783,0,0,0-2.051.384c-.013.179-.013.372-.013.551a11.8,11.8,0,0,0,.216,2.183A8.016,8.016,0,0,0,316.688,183.546Z"/><path d="M325.354,179.48a22.7,22.7,0,0,0-.564,3.442c.455-1.283,1.727-2.842,3.262-2.842,1.571,0,2.686,1.583,2.686,4.054,0,3.286-2.087,4.713-4.989,5.241l-.5-.768c2.555-.383,4.606-1.462,4.606-4.45,0-1.894-.623-3.3-1.931-3.3-1.487,0-2.891,2.16-3.046,3.718a4.791,4.791,0,0,0,.023,1.487l-.839.073a14.338,14.338,0,0,1-.12-1.871,30.175,30.175,0,0,1,.372-3.838c.047-.372.072-.708.1-.984Z"/><path d="M343.134,188.691a8.646,8.646,0,0,0-2.939-1.8c.013.323.025.586.025.779,0,.791-.5,1.655-2.051,1.655-1.679,0-2.614-.6-2.614-1.727,0-1.056,1.031-1.775,2.734-1.775a5.93,5.93,0,0,1,1.043.084c-.023-.564-.048-1.164-.06-1.68h-.683c-.828,0-2.135-.072-3-.167v-.816a23.1,23.1,0,0,0,3.011.216h.647v-1.8c-.191.012-.395.012-.6.012a25.719,25.719,0,0,1-2.83-.18V180.7a19.006,19.006,0,0,0,2.819.229h.624v-.816a5.746,5.746,0,0,0-.049-.7h.912c-.024.2-.048.42-.061.78,0,.144-.011.4-.011.707a27,27,0,0,0,3.094-.311l.012.8c-.971.1-1.991.192-3.106.24v1.8a30.45,30.45,0,0,0,3.334-.324v.816c-1.139.144-2.2.227-3.323.276.025.636.061,1.3.084,1.87a10,10,0,0,1,3.479,1.871Zm-3.778-2.027a6.368,6.368,0,0,0-1.175-.12c-1.188,0-1.824.456-1.824,1.019s.481,1,1.716,1c.7,0,1.3-.205,1.3-1.056C339.368,187.288,339.356,186.988,339.356,186.664Z"/><path d="M354.1,179.685c-.024.2-.048.586-.048.827-.012.54-.012,1.176-.025,1.715.5-.048.972-.073,1.38-.1.312-.012.623-.036.888-.048v.863c-.181-.011-.588-.011-.888-.011-.372.011-.851.036-1.4.071a18.506,18.506,0,0,1-.18,2.519c-.1.5-.348.66-.876.66a13,13,0,0,1-1.535-.168l.024-.768a6.1,6.1,0,0,0,1.2.156c.3,0,.42-.048.456-.324a16.276,16.276,0,0,0,.132-2.026c-1.236.107-2.675.239-3.887.359,0,1.247-.012,2.507.013,2.963.036,1.307.036,1.774,2.134,1.774a23.881,23.881,0,0,0,3.538-.263l-.036.9c-.792.084-2.243.2-3.454.2-2.7,0-2.938-.636-3-2.5-.013-.516-.013-1.787-.013-3-.551.06-1.019.12-1.342.156-.372.048-.84.108-1.163.156l-.1-.888c.372,0,.8-.024,1.2-.06.313-.023.8-.072,1.4-.132l.013-1.726a5.293,5.293,0,0,0-.072-.948h.947a6.864,6.864,0,0,0-.048.912l-.011,1.678c1.174-.107,2.59-.251,3.885-.359.012-.576.012-1.235.012-1.739a6.056,6.056,0,0,0-.06-.863Z"/><path d="M363.512,180.428c-.516.815-1.715,2.986-2.338,4.162a2.6,2.6,0,0,1,1.81-.78,1.343,1.343,0,0,1,1.392,1.427c.023.732.012,1.643.048,2.231a.878.878,0,0,0,.983.876c1.379,0,2.171-1.68,2.483-2.9l.708.564c-.636,1.894-1.619,3.214-3.323,3.214a1.494,1.494,0,0,1-1.679-1.475c-.035-.708-.012-1.619-.048-2.291a.819.819,0,0,0-.9-.851,3.147,3.147,0,0,0-2.375,1.919,19.782,19.782,0,0,0-1.043,2.7l-.923-.312a87.448,87.448,0,0,1,4.221-8.575,9.535,9.535,0,0,0,.409-.863l.959.383A4.757,4.757,0,0,0,363.512,180.428Z"/><path d="M373.449,187.756a1.805,1.805,0,1,1-1.81-1.8A1.8,1.8,0,0,1,373.449,187.756Zm-.563,0A1.242,1.242,0,1,0,371.639,189,1.243,1.243,0,0,0,372.886,187.756Z"/><path d="M99.308,223.078a1.236,1.236,0,1,1-1.235,1.235A1.233,1.233,0,0,1,99.308,223.078Z"/><path d="M112.136,221.651a16.773,16.773,0,0,1-2.159.432,20.642,20.642,0,0,1-2.6,5.013l-.84-.432a17.021,17.021,0,0,0,2.567-4.485c-.373.024-.744.036-1.116.036-.444,0-.935-.012-1.379-.036l-.048-.8a12.719,12.719,0,0,0,1.427.072c.432,0,.9-.024,1.368-.06a9.2,9.2,0,0,0,.383-2.063l.96.084c-.108.432-.276,1.176-.468,1.871a11.883,11.883,0,0,0,1.883-.443Zm1.355,1.427a10.58,10.58,0,0,0,0,1.235c.012.457.06,1.26.084,2.015a8.256,8.256,0,0,1,2.459,1.476l-.468.731a8.271,8.271,0,0,0-1.955-1.367c.012.2.012.384.012.54,0,.923-.623,1.679-2.051,1.679-1.283,0-2.339-.5-2.339-1.667,0-1.079,1.056-1.751,2.339-1.751a6.437,6.437,0,0,1,1.2.12c-.047-.984-.107-2.171-.131-3.011Zm-.7,3.778a4.671,4.671,0,0,0-1.247-.179c-.911,0-1.511.407-1.511.983s.456.959,1.427.959c1,0,1.344-.563,1.344-1.14C112.808,227.312,112.808,227.1,112.8,226.856Zm3.131-3.514a14.168,14.168,0,0,0-2.7-1.619l.432-.66a18.047,18.047,0,0,1,2.746,1.572Z"/><path d="M126.234,220.536c-.2.144-.455.312-.623.443-.576.432-2.231,1.908-3.178,2.7a4.948,4.948,0,0,1,1.7-.264c1.967,0,3.37,1.176,3.37,2.759,0,1.931-1.619,3.13-4.066,3.13-1.607,0-2.554-.707-2.554-1.656a1.643,1.643,0,0,1,1.786-1.51,2.348,2.348,0,0,1,2.423,2.123,2.154,2.154,0,0,0,1.559-2.087c0-1.188-1.187-2.064-2.71-2.064-1.979,0-3.047.816-4.593,2.364l-.624-.648c1.007-.828,2.543-2.123,3.238-2.7.66-.552,2.171-1.835,2.783-2.362-.636.023-3.107.143-3.719.168-.263.023-.515.036-.767.072l-.024-.9a6.259,6.259,0,0,0,.8.048c.611,0,3.466-.1,4.089-.156a3.589,3.589,0,0,0,.6-.1Zm-1.919,7.927a1.661,1.661,0,0,0-1.654-1.643c-.564,0-.984.325-.984.768,0,.6.719.947,1.643.947A6.332,6.332,0,0,0,124.315,228.463Z"/><path d="M130.787,225.058c.648-.649,1.667-2.028,2.35-2.868.66-.779,1.272-.9,2.039-.107.672.695,1.619,1.883,2.387,2.71.708.78,1.907,2.063,2.962,3.011l-.671.743c-.912-.852-2-2.074-2.843-3.022-.767-.864-1.679-2.015-2.231-2.615-.527-.563-.743-.491-1.151.036-.575.72-1.595,2.039-2.194,2.783-.252.3-.517.671-.7.9l-.78-.8A9.363,9.363,0,0,0,130.787,225.058Zm7.927-2.339-.647.287a12.406,12.406,0,0,0-1.116-1.931l.624-.263A19.218,19.218,0,0,1,138.714,222.719Zm1.583-.636-.635.3a16.691,16.691,0,0,0-1.152-1.9l.6-.287A18.8,18.8,0,0,1,140.3,222.083Z"/><path d="M149.671,220.02c-.228.18-.588.492-.768.648-.827.731-2.566,2.11-3.454,2.854-.731.624-.743.816.048,1.463,1.116.888,3.3,2.71,4.45,3.874l-.756.684c-.228-.264-.54-.564-.779-.815-.648-.708-2.663-2.423-3.778-3.335s-.972-1.439.072-2.327c.887-.744,2.722-2.182,3.526-3.01a4.374,4.374,0,0,0,.635-.755Z"/><path d="M153.875,229.435a7.207,7.207,0,0,0,1.644-2.411l.754.192a8.256,8.256,0,0,1-1.678,2.566Zm9.4-3.178h-7.927v-3.742h3.465v-3.67h.792v1.319h4.57v.756h-4.57v1.595h3.67Zm-.8-3h-6.369v2.255h6.369Zm-4.27,4.006a12.53,12.53,0,0,1,.3,2.291l-.8.108a12.64,12.64,0,0,0-.263-2.339Zm2.435-.1a11.325,11.325,0,0,1,.887,2.291l-.767.18a12.175,12.175,0,0,0-.84-2.3Zm2.41-.2a13.069,13.069,0,0,1,1.607,2.4l-.756.312a12.463,12.463,0,0,0-1.547-2.447Z"/><path d="M176.033,221.8a13.941,13.941,0,0,1-1.511,4.869,5.908,5.908,0,0,0,2.363,2.423,3.111,3.111,0,0,0-.575.684,6.614,6.614,0,0,1-2.28-2.351,7.79,7.79,0,0,1-2.83,2.375,4.349,4.349,0,0,0-.372-.576l-.227.24a11.416,11.416,0,0,0-1.44-.96,6.618,6.618,0,0,1-2.926,1.272,1.839,1.839,0,0,0-.372-.672,6.147,6.147,0,0,0,2.6-.971c-.42-.216-.84-.408-1.272-.588l-.2.348-.683-.264c.276-.468.6-1.08.923-1.715h-1.391v-.672h1.727c.18-.372.36-.731.5-1.055l.336.072v-1.787a7.722,7.722,0,0,1-2.171,1.858,2.447,2.447,0,0,0-.444-.6,6.4,6.4,0,0,0,2.375-1.979H165.9v-.672h2.507v-2.23h.743v2.23h2.459v.672h-2.459v.1c.516.3,1.824,1.139,2.147,1.38l-.443.575c-.312-.288-1.116-.9-1.7-1.319v1.834h-.456l.12.025q-.2.431-.431.9h3.286v.672h-1.079a4.711,4.711,0,0,1-.9,2.063,9.929,9.929,0,0,1,1.439.911,6.741,6.741,0,0,0,2.483-2.255,15.611,15.611,0,0,1-1.128-3.5,8.754,8.754,0,0,1-.935,1.632,4.773,4.773,0,0,0-.648-.529,12.174,12.174,0,0,0,1.979-5.384l.8.12a18.3,18.3,0,0,1-.468,2.087h3.551v.743Zm-8.9-.816a5.933,5.933,0,0,0-.768-1.571l.612-.263a5.835,5.835,0,0,1,.792,1.558Zm.911,4.93c-.18.36-.359.707-.54,1.031.5.205,1.019.432,1.5.671a3.934,3.934,0,0,0,.8-1.7Zm3.25-6.5c-.348.54-.743,1.163-1.067,1.56l-.54-.265a10.765,10.765,0,0,0,.912-1.606Zm1.68,2.459a16.753,16.753,0,0,0,1.1,3.934,13.259,13.259,0,0,0,1.127-4.006H173Z"/><path d="M182.349,219.6c-.037.2-.084.431-.132.647-.048.348-.168,1.091-.312,1.774.575-.047,1.091-.084,1.391-.084,1.019,0,1.9.384,1.9,1.968a11.307,11.307,0,0,1-.7,4.27,1.622,1.622,0,0,1-1.7.97,7.21,7.21,0,0,1-1.392-.167l-.143-.912a5.557,5.557,0,0,0,1.463.264,1.032,1.032,0,0,0,1.067-.623,10.056,10.056,0,0,0,.564-3.694c0-1.116-.5-1.308-1.259-1.308-.3,0-.8.036-1.356.084a23.911,23.911,0,0,1-2.507,6.381l-.876-.348a19.143,19.143,0,0,0,2.507-5.949c-.647.061-1.258.132-1.583.156-.275.036-.719.1-1.019.144l-.1-.947a9.915,9.915,0,0,0,1.02,0c.407-.012,1.115-.073,1.858-.132a14,14,0,0,0,.313-2.591Zm4.078,1.39a19.718,19.718,0,0,1,2.194,4.2l-.827.4a14.226,14.226,0,0,0-2.148-4.233Zm.623.156a13.133,13.133,0,0,0-.984-1.667l.588-.251a16.941,16.941,0,0,1,1,1.655Zm1.332-.479a10.077,10.077,0,0,0-1.008-1.655l.588-.252a16.21,16.21,0,0,1,1.019,1.642Z"/><path d="M200.478,220.008v.708H190.139v-.708h4.714v-1.163h.791v1.163Zm-.468,8.779c0,.456-.109.708-.468.84a8.306,8.306,0,0,1-2.039.12,3.013,3.013,0,0,0-.252-.744c.815.024,1.5.024,1.715.012s.252-.072.252-.24v-3.442h-7.76v4.438h-.779v-5.133h9.331Zm-1.488-7.364v2.423h-6.4v-2.423Zm-.8.6h-4.833v1.224h4.833Zm-3.958,6.622v.611h-.72v-3.118h4.546v2.507Zm0-1.908v1.308h3.106v-1.308Z"/><path d="M209.671,220.02c-.228.18-.588.492-.768.648-.827.731-2.566,2.11-3.454,2.854-.731.624-.743.816.048,1.463,1.115.888,3.3,2.71,4.449,3.874l-.755.684c-.228-.264-.54-.564-.78-.815-.647-.708-2.662-2.423-3.777-3.335s-.972-1.439.072-2.327c.887-.744,2.722-2.182,3.525-3.01a4.428,4.428,0,0,0,.636-.755Z"/><path d="M220.136,221.651a16.738,16.738,0,0,1-2.159.432,20.574,20.574,0,0,1-2.6,5.013l-.839-.432a17.021,17.021,0,0,0,2.567-4.485q-.559.036-1.116.036c-.444,0-.935-.012-1.38-.036l-.047-.8a12.719,12.719,0,0,0,1.427.072c.432,0,.9-.024,1.368-.06a9.2,9.2,0,0,0,.383-2.063l.959.084c-.107.432-.275,1.176-.467,1.871a11.846,11.846,0,0,0,1.882-.443Zm1.355,1.427a10.58,10.58,0,0,0,0,1.235c.012.457.06,1.26.084,2.015a8.224,8.224,0,0,1,2.458,1.476l-.468.731a8.243,8.243,0,0,0-1.954-1.367c.012.2.012.384.012.54,0,.923-.624,1.679-2.051,1.679-1.283,0-2.339-.5-2.339-1.667,0-1.079,1.056-1.751,2.339-1.751a6.437,6.437,0,0,1,1.2.12c-.047-.984-.108-2.171-.131-3.011Zm-.7,3.778a4.685,4.685,0,0,0-1.248-.179c-.911,0-1.511.407-1.511.983s.456.959,1.427.959c1,0,1.344-.563,1.344-1.14C220.808,227.312,220.808,227.1,220.8,226.856Zm3.13-3.514a14.191,14.191,0,0,0-2.7-1.619l.431-.66a18,18,0,0,1,2.746,1.572Z"/><path d="M234.234,220.536c-.2.144-.455.312-.623.443-.576.432-2.231,1.908-3.178,2.7a4.944,4.944,0,0,1,1.7-.264c1.967,0,3.37,1.176,3.37,2.759,0,1.931-1.619,3.13-4.066,3.13-1.607,0-2.554-.707-2.554-1.656a1.644,1.644,0,0,1,1.787-1.51,2.35,2.35,0,0,1,2.423,2.123,2.155,2.155,0,0,0,1.558-2.087c0-1.188-1.187-2.064-2.71-2.064-1.979,0-3.047.816-4.593,2.364l-.624-.648c1.007-.828,2.543-2.123,3.238-2.7.66-.552,2.171-1.835,2.782-2.362-.636.023-3.105.143-3.718.168-.263.023-.515.036-.767.072l-.024-.9a6.254,6.254,0,0,0,.8.048c.612,0,3.467-.1,4.09-.156a3.552,3.552,0,0,0,.6-.1Zm-1.919,7.927a1.662,1.662,0,0,0-1.655-1.643c-.563,0-.983.325-.983.768,0,.6.719.947,1.643.947A6.332,6.332,0,0,0,232.315,228.463Z"/><path d="M246.979,228.68a8.455,8.455,0,0,0-3.167-1.98c.012.336.024.636.024.863,0,.96-.611,1.764-2.123,1.764-1.619,0-2.807-.515-2.807-1.823,0-1.044.912-1.907,2.951-1.907a6.156,6.156,0,0,1,1.055.084c-.048-.972-.1-2.063-.1-2.794v-2.219a7.977,7.977,0,0,0-.095-1.14h1.031a9.923,9.923,0,0,0-.1,1.14v1.259c.948-.024,2.471-.084,3.55-.216l.036.8c-1.079.107-2.614.191-3.586.2v.168c0,.779.06,1.942.12,2.973a9.321,9.321,0,0,1,3.7,2.016Zm-4.042-2.207a6.322,6.322,0,0,0-1.176-.12c-1.283,0-2,.443-2,1.115s.672,1.055,1.871,1.055c.888,0,1.331-.408,1.331-1.235C242.96,227.084,242.948,226.8,242.937,226.473Z"/><path d="M255.908,223.09a10.844,10.844,0,0,0-3.262.612,9.262,9.262,0,0,0-.984.336l-.275-1a6.8,6.8,0,0,0,1.054-.18,15.7,15.7,0,0,1,3.538-.575c1.656,0,2.916.923,2.916,2.59,0,2.579-2.291,4.019-5.337,4.486l-.5-.816c2.866-.371,4.928-1.535,4.928-3.7A1.834,1.834,0,0,0,255.908,223.09Zm2.038-2.974-.132.827c-1.306-.084-3.669-.324-5-.563l.132-.816A34.451,34.451,0,0,0,257.946,220.116Z"/><path d="M264.478,219.912a6.938,6.938,0,0,0-.2.743,27.237,27.237,0,0,0-.586,4.594,12.856,12.856,0,0,0,.107,1.787c.2-.563.479-1.307.684-1.8l.467.348a26.42,26.42,0,0,0-.839,2.627,1.966,1.966,0,0,0-.048.516c0,.131.024.287.036.407l-.78.06a14.945,14.945,0,0,1-.431-3.814,31.564,31.564,0,0,1,.552-4.774,6.043,6.043,0,0,0,.071-.779Zm2.71,5.733a4.1,4.1,0,0,0-.179,1.1c0,.54.359,1.1,2.051,1.1A12.833,12.833,0,0,0,272,227.54l.023.911a15.731,15.731,0,0,1-2.95.24c-1.978,0-2.854-.66-2.854-1.751a6.458,6.458,0,0,1,.192-1.367Zm4.45-4.809v.887a29.766,29.766,0,0,1-4.833,0v-.875A19.772,19.772,0,0,0,271.638,220.836Z"/><path d="M276.622,229.507a19.188,19.188,0,0,0-2.663-2.663l.7-.623a22.539,22.539,0,0,1,2.7,2.675Z"/><path d="M288.166,227.432a3.647,3.647,0,0,0,3.13,1.391c1.332.048,4.114.012,5.529-.072a2.564,2.564,0,0,0-.263.756c-1.32.048-3.911.072-5.242.023a4.306,4.306,0,0,1-3.478-1.438c-.516.527-1.068,1.043-1.643,1.571l-.42-.732c.5-.4,1.1-.923,1.644-1.427v-3.191h-1.512v-.755h2.255Zm-.36-5.841A8.239,8.239,0,0,0,286,219.54l.611-.407a8.388,8.388,0,0,1,1.86,2Zm8.876,4.786h-7.989v-.636H290.9v-1.2h-1.81v-.623h1.81v-.912h.732v.912h2.075v-.912h.756v.912H296.3v.623h-1.835v1.2h2.219Zm-5.121-6.465h-2.616v-.576h3.3v1.979h-2.411V222c0,.216.06.264.468.264h1.355c.3,0,.36-.073.4-.624a1.488,1.488,0,0,0,.6.228c-.084.768-.288.972-.887.972h-1.535c-.852,0-1.068-.168-1.068-.84v-1.26h2.4Zm.443,6.872a10.349,10.349,0,0,1-2.362,1.571,3.115,3.115,0,0,0-.588-.5,7.868,7.868,0,0,0,2.23-1.308Zm-.372-1.043h2.075v-1.2h-2.075Zm3.79-5.829h-2.567v-.576h3.275v1.979h-2.375v.672c0,.228.072.276.492.276h1.5c.312,0,.371-.084.407-.672a1.814,1.814,0,0,0,.6.24c-.071.8-.287,1.008-.911,1.008h-1.655c-.875,0-1.116-.168-1.116-.84v-1.26h2.351Zm.288,8.48a10.929,10.929,0,0,0-2.219-1.452l.564-.372a14.614,14.614,0,0,1,2.411,1.463Z"/><path d="M303.512,220.428c-.516.815-1.715,2.986-2.338,4.162a2.6,2.6,0,0,1,1.81-.78,1.343,1.343,0,0,1,1.392,1.427c.023.732.012,1.643.048,2.231a.878.878,0,0,0,.983.876c1.379,0,2.171-1.68,2.483-2.9l.708.564c-.636,1.894-1.619,3.214-3.323,3.214a1.494,1.494,0,0,1-1.679-1.475c-.035-.708-.012-1.619-.048-2.291a.819.819,0,0,0-.9-.851,3.147,3.147,0,0,0-2.375,1.919,19.782,19.782,0,0,0-1.043,2.7l-.923-.312a87.448,87.448,0,0,1,4.221-8.575,9.535,9.535,0,0,0,.409-.863l.959.383A4.757,4.757,0,0,0,303.512,220.428Z"/><path d="M311.362,220.979c.732-.072,3.034-.3,5.217-.479,1.308-.12,2.387-.181,3.167-.2l.012.851a9.78,9.78,0,0,0-2.327.192,4.26,4.26,0,0,0-2.758,3.826c0,2.387,2.219,3.118,4.138,3.19l-.313.888c-2.135-.072-4.677-1.223-4.677-3.886a4.8,4.8,0,0,1,2.279-4.066c-1.043.12-4.4.444-5.673.708l-.108-.96C310.774,221.027,311.135,221,311.362,220.979Zm7.7,3.346-.564.265a10.75,10.75,0,0,0-.983-1.7l.551-.241A15.084,15.084,0,0,1,319.062,224.325Zm1.355-.515-.563.276a11.907,11.907,0,0,0-1.02-1.68l.54-.263A14.826,14.826,0,0,1,320.417,223.81Z"/><path d="M329.671,220.02c-.228.18-.588.492-.768.648-.827.731-2.566,2.11-3.454,2.854-.731.624-.743.816.048,1.463,1.115.888,3.3,2.71,4.449,3.874l-.755.684c-.228-.264-.54-.564-.78-.815-.647-.708-2.662-2.423-3.777-3.335s-.972-1.439.072-2.327c.887-.744,2.722-2.182,3.525-3.01a4.428,4.428,0,0,0,.636-.755Z"/><path d="M340.147,221.951a23.206,23.206,0,0,1-2.494.407c-.108.516-.24,1.068-.372,1.583a34.157,34.157,0,0,1-1.858,5.434l-.948-.313a26.622,26.622,0,0,0,1.979-5.312c.108-.408.216-.863.323-1.319-.407.036-.8.048-1.151.048-.516,0-.936-.012-1.367-.048l-.024-.84a10.516,10.516,0,0,0,1.415.1c.4,0,.828-.025,1.3-.061.084-.456.157-.852.193-1.1a4.341,4.341,0,0,0,.048-.935l1.031.084c-.072.252-.156.683-.2.912l-.192.959a19.95,19.95,0,0,0,2.326-.443Zm-.515,4.209a4.314,4.314,0,0,0-.18,1.08c0,.564.264,1.127,2.027,1.127a12.071,12.071,0,0,0,2.3-.227l-.036.875a15.554,15.554,0,0,1-2.279.168c-1.847,0-2.819-.564-2.819-1.739a7.667,7.667,0,0,1,.168-1.368Zm-.228-2.878c.612-.048,1.379-.095,2.147-.095a18.818,18.818,0,0,1,2.051.095l-.024.827a14.941,14.941,0,0,0-1.991-.143c-.732,0-1.463.048-2.183.12Zm3.346-1.355a14.632,14.632,0,0,0-.983-1.667l.576-.252a15.174,15.174,0,0,1,1,1.655Zm.9-2.4a14.145,14.145,0,0,1,1.02,1.643l-.587.276a11.069,11.069,0,0,0-1.008-1.667Z"/><path d="M355.422,221.627c-.743.192-1.535.372-2.267.492.408.936,1.068,2.362,1.608,3.37l-.516.516c-.48-.1-1.655-.264-2.411-.336l.084-.7c.468.035,1.331.131,1.739.179-.36-.767-.983-2.075-1.344-2.915a24.294,24.294,0,0,1-5.06.036l-.025-.863a20.513,20.513,0,0,0,4.749.072l-.418-.935a8.031,8.031,0,0,0-.493-.972l.972-.18c.288.828.516,1.343.779,1.967a15,15,0,0,0,2.447-.588Zm-6.729,3.61a4.556,4.556,0,0,0-.347,1.511c0,1.08.767,1.715,2.554,1.715a12.539,12.539,0,0,0,3.1-.323l-.013.887a15.42,15.42,0,0,1-3.093.264c-2.183,0-3.395-.876-3.395-2.339a6.735,6.735,0,0,1,.324-1.8Z"/><path d="M359.854,221.663a27.34,27.34,0,0,0,.1,2.855c.192,2.039.8,3.37,1.667,3.37.612,0,1.188-1.2,1.5-2.435l.7.756c-.708,2-1.439,2.687-2.219,2.687-1.079,0-2.158-1.117-2.483-4.174-.107-1.02-.131-2.459-.131-3.155a5.87,5.87,0,0,0-.073-1.031l1.044.024A10.207,10.207,0,0,0,359.854,221.663Zm8.408,5.014-.864.335a11.7,11.7,0,0,0-2.051-5.828l.828-.288A12.338,12.338,0,0,1,368.262,226.677Z"/><path d="M373.449,227.756a1.805,1.805,0,1,1-1.81-1.8A1.8,1.8,0,0,1,373.449,227.756Zm-.563,0A1.242,1.242,0,1,0,371.639,229,1.243,1.243,0,0,0,372.886,227.756Z"/><path d="M99.308,243.078a1.236,1.236,0,1,1-1.235,1.235A1.233,1.233,0,0,1,99.308,243.078Z"/><path d="M115.71,241.363a3.4,3.4,0,0,0-.264.6,11.687,11.687,0,0,1-2.123,4.149,10.612,10.612,0,0,1-4.761,3.251l-.78-.708a9.68,9.68,0,0,0,4.785-3.022,9.875,9.875,0,0,0,1.943-3.826h-4.161a11.621,11.621,0,0,1-3.047,2.963l-.743-.552a9.9,9.9,0,0,0,3.778-4.078,4.859,4.859,0,0,0,.348-.9l.983.324c-.18.3-.372.672-.492.888-.095.192-.2.384-.323.587h3.394a2.028,2.028,0,0,0,.743-.107Z"/><path d="M121.005,239.9c-.024.216-.035.587-.035.852v3.993c0,.313.011.7.035.9h-.995a7.581,7.581,0,0,0,.06-.9v-3.993c0-.216-.024-.636-.048-.852Zm5.554-.084c-.024.288-.037.612-.037,1.007v1.86c0,2.938-.371,3.861-1.235,4.893a6.21,6.21,0,0,1-2.842,1.751l-.7-.731a5.579,5.579,0,0,0,2.878-1.619c.864-1.008,1.008-1.992,1.008-4.331v-1.823c0-.4-.036-.719-.06-1.007Z"/><path d="M133.365,245.3l-.815.312a21.883,21.883,0,0,0-1.068-2.7l.792-.311C132.5,243.09,133.137,244.686,133.365,245.3Zm6.021-2.651c-.072.216-.132.4-.168.541a9.562,9.562,0,0,1-1.7,3.717,9.153,9.153,0,0,1-3.9,2.819l-.707-.72a8.036,8.036,0,0,0,3.885-2.543,8.442,8.442,0,0,0,1.68-4.113Zm-3.394,1.931-.792.288a20.686,20.686,0,0,0-.923-2.591l.791-.275C135.26,242.479,135.848,244.062,135.992,244.577Z"/><path d="M151.71,241.363a3.4,3.4,0,0,0-.264.6,11.687,11.687,0,0,1-2.123,4.149,10.612,10.612,0,0,1-4.761,3.251l-.78-.708a9.68,9.68,0,0,0,4.785-3.022,9.875,9.875,0,0,0,1.943-3.826h-4.161a11.621,11.621,0,0,1-3.047,2.963l-.743-.552a9.9,9.9,0,0,0,3.778-4.078,4.859,4.859,0,0,0,.348-.9l.983.324c-.18.3-.372.672-.492.888-.095.192-.2.384-.323.587h3.394a2.028,2.028,0,0,0,.743-.107Z"/><path d="M160.7,241.735c0,.7.013,1.439.025,1.979a2.965,2.965,0,0,1,.372,1.5c0,1.619-.756,3.37-3.491,4.2l-.744-.72c1.632-.383,2.723-1.08,3.167-2.207a1.6,1.6,0,0,1-1.08.372,1.881,1.881,0,0,1-1.942-1.966,2.047,2.047,0,0,1,2.051-2.039,2.1,2.1,0,0,1,.851.168l-.012-1.272c-1.811.012-3.862.1-5.349.2l-.025-.84c1.32-.024,3.551-.095,5.362-.12-.012-.359-.012-.672-.024-.851a4.407,4.407,0,0,0-.084-.7h.995a6.05,6.05,0,0,0-.059.684c-.013.2-.013.5-.013.851h.252c1.487,0,2.891,0,3.431.012v.8c-.66-.036-1.716-.06-3.443-.06Zm-.527,2.674a1.1,1.1,0,0,0-1.115-.827,1.25,1.25,0,0,0-1.248,1.3,1.18,1.18,0,0,0,1.259,1.224C159.8,246.1,160.256,245.525,160.172,244.409Z"/><path d="M174.234,240.536c-.2.144-.455.312-.623.443-.576.432-2.231,1.908-3.178,2.7a4.944,4.944,0,0,1,1.7-.264c1.967,0,3.37,1.176,3.37,2.759,0,1.931-1.619,3.13-4.066,3.13-1.607,0-2.554-.707-2.554-1.656a1.644,1.644,0,0,1,1.787-1.51,2.35,2.35,0,0,1,2.423,2.123,2.155,2.155,0,0,0,1.558-2.087c0-1.188-1.187-2.064-2.71-2.064-1.979,0-3.047.816-4.593,2.364l-.624-.648c1.007-.828,2.543-2.123,3.238-2.7.66-.552,2.171-1.835,2.782-2.362-.636.023-3.105.143-3.718.168-.263.023-.515.036-.767.072l-.024-.9a6.254,6.254,0,0,0,.8.048c.612,0,3.467-.1,4.09-.156a3.552,3.552,0,0,0,.6-.1Zm-1.919,7.927a1.662,1.662,0,0,0-1.655-1.643c-.563,0-.983.325-.983.768,0,.6.719.947,1.643.947A6.332,6.332,0,0,0,172.315,248.463Z"/><path d="M186.763,241.711c-.252.143-.529.3-.865.468a38.747,38.747,0,0,0-3.657,2c-1.128.731-1.787,1.523-1.787,2.434,0,1.008.947,1.644,2.866,1.644a17.95,17.95,0,0,0,3.79-.4l-.011.96a22.927,22.927,0,0,1-3.743.288c-2.207,0-3.79-.672-3.79-2.4,0-1.2.756-2.171,2.063-3.07a38.43,38.43,0,0,1-1.727-3.682l.839-.348a26.735,26.735,0,0,0,1.608,3.562c1.139-.695,2.482-1.331,3.142-1.715a6.759,6.759,0,0,0,.8-.527Z"/><path d="M194.276,241.411a16.093,16.093,0,0,1-1.127,5.217,8.84,8.84,0,0,1,1.4,1.3l-.48.636a9.756,9.756,0,0,0-1.271-1.236,6.373,6.373,0,0,1-2.351,2.483,3.131,3.131,0,0,0-.492-.648,5.46,5.46,0,0,0,2.219-2.315c-.432-.323-.9-.635-1.343-.911l-.145.527-.67-.348c.311-1.031.683-2.53,1.031-4.041h-1.163v-.732h1.331c.191-.875.371-1.738.515-2.494l.756.084c-.144.743-.324,1.571-.516,2.41h1.679l.144-.024Zm-2.47.66c-.251,1.1-.528,2.195-.78,3.154.48.276,1,.6,1.488.935a14.261,14.261,0,0,0,.96-4.089Zm7.184-1.38a13.705,13.705,0,0,1,1.944,3.191l-.672.395c-.1-.252-.229-.551-.384-.863-1.967.144-3.994.3-5.421.384l-.1-.768.949-.048a30.733,30.733,0,0,0,1.426-4.137l.864.191c-.42,1.235-.984,2.771-1.5,3.9,1.031-.061,2.207-.145,3.394-.216a15.49,15.49,0,0,0-1.14-1.7Zm-3.8,4.27h5.061v4.773h-.791v-.5h-3.514v.552h-.756Zm.756.731V248.5h3.514v-2.807Z"/><path d="M211.134,248.691a8.646,8.646,0,0,0-2.939-1.8c.013.323.025.586.025.779,0,.791-.5,1.655-2.051,1.655-1.679,0-2.614-.6-2.614-1.727,0-1.056,1.031-1.775,2.734-1.775a5.93,5.93,0,0,1,1.043.084c-.023-.564-.048-1.164-.06-1.68h-.683c-.828,0-2.135-.072-3-.167v-.816a23.1,23.1,0,0,0,3.011.216h.647v-1.8c-.191.012-.395.012-.6.012a25.719,25.719,0,0,1-2.83-.18V240.7a19.006,19.006,0,0,0,2.819.229h.624v-.816a5.746,5.746,0,0,0-.049-.7h.912c-.024.2-.048.42-.061.78,0,.144-.011.4-.011.707a27,27,0,0,0,3.094-.311l.012.8c-.971.1-1.991.192-3.106.24v1.8a30.45,30.45,0,0,0,3.334-.324v.816c-1.139.144-2.195.227-3.323.276.025.636.061,1.3.084,1.87a10,10,0,0,1,3.479,1.871Zm-3.778-2.027a6.368,6.368,0,0,0-1.175-.12c-1.188,0-1.824.456-1.824,1.019s.481,1,1.716,1c.7,0,1.295-.205,1.295-1.056C207.368,247.288,207.356,246.988,207.356,246.664Z"/><path d="M217.354,239.48a22.7,22.7,0,0,0-.564,3.442c.455-1.283,1.727-2.842,3.262-2.842,1.571,0,2.686,1.583,2.686,4.054,0,3.286-2.087,4.713-4.989,5.241l-.5-.768c2.555-.383,4.606-1.462,4.606-4.45,0-1.894-.623-3.3-1.931-3.3-1.487,0-2.891,2.16-3.046,3.718a4.791,4.791,0,0,0,.023,1.487l-.839.073a14.338,14.338,0,0,1-.12-1.871,30.175,30.175,0,0,1,.372-3.838c.047-.372.072-.708.1-.984Z"/><path d="M235.134,248.691a8.646,8.646,0,0,0-2.939-1.8c.013.323.025.586.025.779,0,.791-.5,1.655-2.051,1.655-1.679,0-2.614-.6-2.614-1.727,0-1.056,1.031-1.775,2.734-1.775a5.93,5.93,0,0,1,1.043.084c-.023-.564-.048-1.164-.06-1.68h-.683c-.828,0-2.135-.072-3-.167v-.816a23.1,23.1,0,0,0,3.011.216h.647v-1.8c-.191.012-.395.012-.6.012a25.719,25.719,0,0,1-2.83-.18V240.7a19.006,19.006,0,0,0,2.819.229h.624v-.816a5.746,5.746,0,0,0-.049-.7h.912c-.024.2-.048.42-.061.78,0,.144-.011.4-.011.707a27,27,0,0,0,3.094-.311l.012.8c-.971.1-1.991.192-3.106.24v1.8a30.45,30.45,0,0,0,3.334-.324v.816c-1.139.144-2.195.227-3.323.276.025.636.061,1.3.084,1.87a10,10,0,0,1,3.479,1.871Zm-3.778-2.027a6.368,6.368,0,0,0-1.175-.12c-1.188,0-1.824.456-1.824,1.019s.481,1,1.716,1c.7,0,1.295-.205,1.295-1.056C231.368,247.288,231.356,246.988,231.356,246.664Z"/><path d="M244.7,241.735c0,.7.013,1.439.025,1.979a2.965,2.965,0,0,1,.372,1.5c0,1.619-.756,3.37-3.491,4.2l-.744-.72c1.632-.383,2.723-1.08,3.167-2.207a1.6,1.6,0,0,1-1.08.372,1.881,1.881,0,0,1-1.942-1.966,2.047,2.047,0,0,1,2.051-2.039,2.1,2.1,0,0,1,.851.168l-.012-1.272c-1.811.012-3.862.1-5.349.2l-.025-.84c1.32-.024,3.551-.095,5.362-.12-.012-.359-.012-.672-.024-.851a4.407,4.407,0,0,0-.084-.7h.995a6.05,6.05,0,0,0-.059.684c-.013.2-.013.5-.013.851h.252c1.487,0,2.891,0,3.431.012v.8c-.66-.036-1.716-.06-3.443-.06Zm-.527,2.674a1.1,1.1,0,0,0-1.115-.827,1.25,1.25,0,0,0-1.248,1.3,1.18,1.18,0,0,0,1.259,1.224C243.8,246.1,244.256,245.525,244.172,244.409Z"/></g></svg>