<svg xmlns="http://www.w3.org/2000/svg" viewBox="0 0 480 270"><defs><style>.cls-1{fill:#e6e6e6;}</style></defs><title>stimuli</title><g id="固定背景"><rect class="cls-1" width="480" height="270"/></g><g id="テキスト"><path d="M208.759,55.1a32.754,32.754,0,0,1-2.34,9.142,17.058,17.058,0,0,0-2.447-1.187,27.561,27.561,0,0,0,2.016-8.423Zm6.227-9.612a29.387,29.387,0,0,1,3.348,7.451l-2.556,1.189a19.9,19.9,0,0,0-.648-2.2l-2.375.179V67.05H209.8V52.328c-1.944.108-3.743.252-5.327.323l-.324-2.915,2.519-.144c.613-.792,1.3-1.692,1.944-2.627a34.415,34.415,0,0,0-4.283-5.076l1.691-2.232c.325.288.648.613.973.936a43.212,43.212,0,0,0,2.915-6.551l2.952,1.08c-1.26,2.447-2.808,5.327-4.1,7.307a22.244,22.244,0,0,1,1.584,1.944,64.83,64.83,0,0,0,3.564-6.191l2.771,1.259c-2.015,3.2-4.607,7.019-6.947,10.007l4.248-.252a27.03,27.03,0,0,0-1.368-2.7Zm.325,15.874a26.581,26.581,0,0,0-1.656-6.191l2.411-.72a26.858,26.858,0,0,1,1.8,6.119Zm14.757-5.974a27.359,27.359,0,0,0,8.136,7.667,11.749,11.749,0,0,0-2.3,2.519,30.739,30.739,0,0,1-7.091-7.344v8.82h-3.24V58.375a26.426,26.426,0,0,1-7.991,7.559,14.113,14.113,0,0,0-2.267-2.591,24,24,0,0,0,8.962-7.955h-5.939V42.933h7.235V40.341h-8.315V37.462h8.315v-3.42h3.24v3.42h8.1v2.879h-8.1v2.592h7.415V55.388Zm-8.782-7.415h4.463V45.417h-4.463Zm0,4.966h4.463V50.312h-4.463Zm11.878-7.522h-4.571v2.556h4.571Zm0,4.895h-4.571v2.627h4.571Z"/><path d="M250.7,46.064c-3.06,1.26-6.192,2.628-8.747,3.636l-1.26-2.735c2.448-.792,5.975-2.052,9.5-3.313Zm8.063,3.457c-.5.935-1.008,1.871-1.512,2.735h11.59v14.9h-3.491V65.826H248.9v1.332h-3.347v-14.9h8.424a23.8,23.8,0,0,0,1.043-2.735,2.051,2.051,0,0,1-.756.539c-1.008.432-2.52.4-4.715.4a10.517,10.517,0,0,0-.864-2.448c1.44.036,2.807.036,3.239.036.469,0,.576-.144.576-.5V38.4H241.627V35.77h13.932V47.54a5.017,5.017,0,0,1-.181,1.44Zm-11.3-5.724a20.113,20.113,0,0,0-4.571-3.384l1.655-1.943a18.1,18.1,0,0,1,4.644,3.2Zm17.89,11.015H248.9v2.879h16.451Zm0,8.386V60.247H248.9V63.2Zm-8.6-16.954c2.556-.792,6.3-2.052,9.935-3.348l.54,2.449c-3.2,1.223-6.623,2.483-9.324,3.455Zm14.866,1.26c0,1.476-.324,2.2-1.4,2.664-1.044.432-2.664.432-5,.432a10.324,10.324,0,0,0-.9-2.627c1.511.071,3.095.071,3.563.071.468-.036.576-.144.576-.54V38.4h-10.8V35.77h13.966Zm-8.423-3.779a23.441,23.441,0,0,0-4.715-3.348l1.655-1.943a19.342,19.342,0,0,1,4.788,3.131Z"/><path d="M99.815,103.866a1.443,1.443,0,1,1-1.442,1.443A1.441,1.441,0,0,1,99.815,103.866Z"/><path d="M117.485,110.66c1.359,0,1.569-.392,1.737-2.13a2.658,2.658,0,0,0,.911.351c-.224,2.031-.616,2.647-2.648,2.647h-5.561c-2.185,0-2.857-.378-2.857-1.989v-6.346c-.322.267-.645.534-.995.786a2.352,2.352,0,0,0-.686-.659,13.375,13.375,0,0,0,4.062-4.426l1.036.2c-.153.252-.321.517-.5.784h3.586l.183-.056.63.392a13.926,13.926,0,0,1-1.345,2.157h4.006v5.015h-.924v-.63h-8.111v2.8c0,.882.28,1.106,1.835,1.106Zm-6.079-9.973a17.446,17.446,0,0,1-1.457,1.68h3.992a12.091,12.091,0,0,0,1.121-1.68Zm-1.4,5.21h3.46v-2.675h-3.46Zm8.111-2.675H114.39V105.9h3.726Z"/><path d="M124.678,111.374a22.486,22.486,0,0,0-3.11-3.109l.812-.729a26.45,26.45,0,0,1,3.152,3.124Z"/><path d="M141.479,105.253v6.43h-.91v-6.43h-2.4c-.042,2.353-.406,4.664-2.073,6.514a3.678,3.678,0,0,0-.686-.631c1.526-1.681,1.835-3.768,1.891-5.883h-1.849v-.868h1.863v-3.712h-1.653V99.8h7.158v.869h-1.345v3.712h1.541v.868Zm-.91-.868v-3.712h-2.381v3.712Zm7.746,2.731a12.559,12.559,0,0,1-5.365,4.58,3.363,3.363,0,0,0-.658-.756,11.093,11.093,0,0,0,5.154-4.161Zm-.756-7.593a14.1,14.1,0,0,1-4.007,3.279,3.685,3.685,0,0,0-.672-.645,12.2,12.2,0,0,0,3.81-2.983Zm.42,3.825a15.338,15.338,0,0,1-4.3,3.53,4.869,4.869,0,0,0-.658-.658,13.532,13.532,0,0,0,4.1-3.222Z"/><path d="M152.678,111.374a22.431,22.431,0,0,0-3.11-3.109l.812-.729a26.45,26.45,0,0,1,3.152,3.124Z"/><path d="M175.334,102.367a16.28,16.28,0,0,1-1.765,5.688,6.91,6.91,0,0,0,2.76,2.829,3.645,3.645,0,0,0-.673.8A7.7,7.7,0,0,1,173,108.937a9.1,9.1,0,0,1-3.306,2.773,5.348,5.348,0,0,0-.434-.672l-.266.28a13.53,13.53,0,0,0-1.681-1.121,7.74,7.74,0,0,1-3.418,1.486,2.167,2.167,0,0,0-.434-.785,7.191,7.191,0,0,0,3.039-1.134c-.49-.252-.98-.477-1.484-.687l-.239.406-.8-.308c.321-.546.7-1.261,1.078-2h-1.625v-.784h2.017c.21-.435.42-.855.588-1.233l.393.084v-2.088a9,9,0,0,1-2.536,2.172,2.839,2.839,0,0,0-.518-.7,7.488,7.488,0,0,0,2.774-2.311H163.5v-.785h2.928V98.922h.868v2.605h2.871v.785h-2.871v.112c.6.349,2.129,1.33,2.508,1.61l-.519.673c-.364-.337-1.3-1.051-1.989-1.541v2.143h-.532l.139.028c-.153.336-.322.686-.5,1.051h3.838v.784h-1.26a5.506,5.506,0,0,1-1.051,2.409,11.745,11.745,0,0,1,1.681,1.065,7.88,7.88,0,0,0,2.9-2.633,18.221,18.221,0,0,1-1.317-4.091,10.258,10.258,0,0,1-1.092,1.905,5.635,5.635,0,0,0-.757-.616,14.215,14.215,0,0,0,2.311-6.289l.939.14a21.6,21.6,0,0,1-.546,2.437h4.145v.868Zm-10.394-.952a6.849,6.849,0,0,0-.9-1.835l.715-.309a6.79,6.79,0,0,1,.924,1.822Zm1.065,5.757c-.21.42-.42.826-.63,1.2.588.238,1.19.5,1.751.784a4.606,4.606,0,0,0,.938-1.989Zm3.8-7.592c-.406.63-.869,1.358-1.247,1.82l-.631-.307a12.438,12.438,0,0,0,1.065-1.877Zm1.961,2.871a19.633,19.633,0,0,0,1.288,4.6,15.538,15.538,0,0,0,1.317-4.679H171.79Z"/><path d="M182.694,99.8c-.042.238-.1.5-.153.757-.057.406-.2,1.274-.364,2.073.672-.057,1.274-.1,1.625-.1,1.19,0,2.213.448,2.213,2.3a13.211,13.211,0,0,1-.813,4.986,1.9,1.9,0,0,1-1.989,1.135,8.4,8.4,0,0,1-1.625-.2l-.168-1.065a6.479,6.479,0,0,0,1.709.309,1.205,1.205,0,0,0,1.247-.729,11.752,11.752,0,0,0,.658-4.314c0-1.3-.589-1.527-1.471-1.527-.35,0-.938.042-1.583.1a27.975,27.975,0,0,1-2.927,7.452l-1.023-.406a22.409,22.409,0,0,0,2.928-6.948c-.757.07-1.471.154-1.85.183-.322.042-.839.111-1.19.168l-.112-1.107a11.54,11.54,0,0,0,1.191,0c.476-.015,1.3-.085,2.171-.154a16.364,16.364,0,0,0,.364-3.026Zm4.763,1.625a23.053,23.053,0,0,1,2.564,4.9l-.967.463a16.636,16.636,0,0,0-2.507-4.945Zm.729.182a15.411,15.411,0,0,0-1.149-1.947l.687-.294a20.392,20.392,0,0,1,1.162,1.933Zm1.554-.56a11.586,11.586,0,0,0-1.177-1.934l.687-.294a18.52,18.52,0,0,1,1.19,1.919Z"/><path d="M194.216,108.937c.685,1.065,1.961,1.555,3.641,1.611,1.527.07,4.721.028,6.36-.07a2.963,2.963,0,0,0-.294.911c-1.541.055-4.511.084-6.052.027a4.988,4.988,0,0,1-4.034-1.681c-.63.617-1.275,1.219-1.961,1.822l-.5-.883c.588-.462,1.316-1.051,1.961-1.653v-3.712h-1.821v-.882h2.7Zm-.5-6.906a10.24,10.24,0,0,0-2.045-2.241l.714-.5a10.155,10.155,0,0,1,2.1,2.2Zm6.121,6.836h-4.986v-.7h1.779v-1.092h-1.359v-.7h4.566v-.811h-3.838v-2.4h6.569v2.4H200.7v.811h2.928v.7H200.7v1.092h3.291v.7H200.7V110.1h-.869Zm4.175-6.429h-9.148v-.7h2.69c.112-.322.238-.673.35-1.05h-2.143V100h2.367c.112-.378.225-.742.322-1.078l.9.111c-.084.309-.2.631-.294.967h3.25v1.737h1.709Zm-7.172,2.493h4.818V103.8h-4.818Zm3,3.235v-1.092h-2.367v1.092Zm-1.008-7.479c-.126.377-.253.742-.364,1.05h2.983v-1.05Z"/><path d="M212.516,103.88a12.68,12.68,0,0,0-3.81.715,10.93,10.93,0,0,0-1.149.391l-.323-1.162a8.108,8.108,0,0,0,1.234-.21,18.247,18.247,0,0,1,4.132-.673c1.933,0,3.4,1.08,3.4,3.027,0,3.011-2.676,4.692-6.233,5.238l-.589-.952c3.347-.435,5.757-1.793,5.757-4.328A2.143,2.143,0,0,0,212.516,103.88Zm2.381-3.474-.154.967c-1.527-.1-4.286-.379-5.842-.658l.155-.953A40.228,40.228,0,0,0,214.9,100.406Z"/><path d="M222.271,109.959c3.292-2.633,5.576-4.846,5.576-6.653a2.061,2.061,0,0,0-2.242-2.158,3.677,3.677,0,0,0-2.759,1.541l-.742-.658a4.62,4.62,0,0,1,3.557-1.835c2.018,0,3.334,1.177,3.334,3.082,0,2.087-2.171,4.258-4.875,6.444.561-.029,1.093-.071,1.639-.071h3.74v.981h-7.228Z"/><path d="M235.431,102.983a22.255,22.255,0,0,1,5.925-1.386c2.255,0,4.077,1.317,4.077,3.6,0,3.362-3.376,4.9-7.551,5.141l-.434-1.051c3.614-.1,6.892-1.19,6.892-4.1a2.681,2.681,0,0,0-3-2.648c-2.325,0-5.911,1.555-6.934,1.961l-.462-1.12A12.1,12.1,0,0,0,235.431,102.983Z"/><path d="M253.661,110.016a8.568,8.568,0,0,0,1.163-.168,4.225,4.225,0,0,0,3.586-4.175,3.932,3.932,0,0,0-3.839-4.076,26.965,26.965,0,0,1-.812,4.034c-.854,2.857-1.947,4.286-3.194,4.286-1.176,0-2.409-1.387-2.409-3.67a5.857,5.857,0,0,1,6.009-5.574,4.976,4.976,0,0,1,5.268,5.042c0,2.9-1.934,4.833-5.2,5.239Zm-.9-4.609a21.632,21.632,0,0,0,.784-3.8,4.925,4.925,0,0,0-4.412,4.567c0,1.806.854,2.591,1.47,2.591S252.036,107.845,252.765,105.407Z"/><path d="M264.146,108.951c.686,1.065,1.96,1.555,3.656,1.625,1.554.056,4.8.014,6.457-.084a2.994,2.994,0,0,0-.309.882c-1.54.057-4.566.084-6.121.028a5.028,5.028,0,0,1-4.061-1.68c-.6.616-1.247,1.218-1.92,1.835l-.491-.855c.589-.463,1.289-1.079,1.919-1.667v-3.726h-1.764v-.882h2.634Zm-.42-6.822a9.637,9.637,0,0,0-2.116-2.4l.714-.476A9.781,9.781,0,0,1,264.5,101.6Zm10.365,5.59h-9.329v-.743h2.577v-1.4h-2.115v-.728h2.115v-1.065h.854v1.065h2.424v-1.065h.882v1.065h2.144v.728H271.5v1.4h2.592Zm-5.982-7.551h-3.053V99.5h3.852v2.311h-2.815v.8c0,.252.069.309.546.309h1.583c.349,0,.42-.084.462-.728a1.741,1.741,0,0,0,.7.265c-.1.9-.336,1.135-1.036,1.135h-1.793c-.994,0-1.247-.2-1.247-.981v-1.47h2.8Zm.519,8.026a12.115,12.115,0,0,1-2.76,1.835,3.5,3.5,0,0,0-.686-.588,9.177,9.177,0,0,0,2.6-1.527Zm-.435-1.218h2.424v-1.4h-2.424Zm4.427-6.808h-3V99.5h3.824v2.311h-2.773v.785c0,.265.084.322.574.322H273c.364,0,.435-.1.477-.785a2.075,2.075,0,0,0,.7.28c-.084.939-.336,1.177-1.065,1.177h-1.933c-1.023,0-1.3-.2-1.3-.981v-1.47h2.746Zm.336,9.9a12.753,12.753,0,0,0-2.592-1.694l.659-.435a16.919,16.919,0,0,1,2.816,1.709Z"/><path d="M280.583,105.953c-.673.183-1.373.364-2.046.532v4.035c0,.588-.153.84-.517,1a6.318,6.318,0,0,1-2.045.168,2.723,2.723,0,0,0-.3-.855c.785.027,1.47.014,1.667.014s.294-.084.294-.308V106.71c-.743.2-1.443.378-2.059.532l-.238-.925c.644-.126,1.428-.307,2.3-.518v-3.138h-2.129v-.854h2.129V98.936h.9v2.871h1.947v.854h-1.947v2.914l1.962-.476Zm4.328-.686c.546,2.536,1.681,4.692,3.529,5.631a4.583,4.583,0,0,0-.658.8c-2-1.134-3.193-3.487-3.8-6.429h-1.863c-.069,2.115-.462,4.678-2.143,6.416a4.264,4.264,0,0,0-.714-.617c1.779-1.849,1.947-4.5,1.947-6.584V99.734h6.443v5.533Zm-2.773-4.664v3.782h4.608V100.6Z"/><path d="M294.162,110.548c0,.518-.111.812-.462.98a5.489,5.489,0,0,1-1.806.155,3.787,3.787,0,0,0-.3-.883c.672.028,1.26.013,1.443.013s.266-.069.266-.265v-3.6H291.15a13.551,13.551,0,0,1-1.064,4.748,2.687,2.687,0,0,0-.756-.448c.966-1.961,1.05-4.748,1.05-6.808v-5h3.782Zm-.854-4.483v-2.479h-2.074v.854c0,.5-.013,1.051-.027,1.625Zm-2.074-5.743v2.4h2.074v-2.4Zm10.338,4.021a11.192,11.192,0,0,1-2.661,4.636,8.723,8.723,0,0,0,3.418,1.919,3.8,3.8,0,0,0-.631.785,9.535,9.535,0,0,1-3.445-2.074,11.528,11.528,0,0,1-3.376,2.074,3.27,3.27,0,0,0-.561-.813,9.852,9.852,0,0,0,3.306-1.933,11.3,11.3,0,0,1-2.143-3.74l.7-.224h-1.429v-.855h3.012v-2.087h-3.195v-.854h3.195V98.922h.924v2.255h3.362v.854h-3.362v2.087h2.1l.168-.042Zm-5.253.63a9.619,9.619,0,0,0,1.948,3.347,9.632,9.632,0,0,0,2.129-3.347Z"/><path d="M308.694,99.8c-.042.238-.1.5-.153.757-.057.406-.2,1.274-.364,2.073.672-.057,1.274-.1,1.625-.1,1.19,0,2.213.448,2.213,2.3a13.211,13.211,0,0,1-.813,4.986,1.9,1.9,0,0,1-1.989,1.135,8.4,8.4,0,0,1-1.625-.2l-.168-1.065a6.479,6.479,0,0,0,1.709.309,1.205,1.205,0,0,0,1.247-.729,11.752,11.752,0,0,0,.658-4.314c0-1.3-.589-1.527-1.471-1.527-.35,0-.938.042-1.583.1a27.975,27.975,0,0,1-2.927,7.452l-1.023-.406a22.409,22.409,0,0,0,2.928-6.948c-.757.07-1.471.154-1.85.183-.322.042-.839.111-1.19.168l-.112-1.107a11.54,11.54,0,0,0,1.191,0c.476-.015,1.3-.085,2.171-.154a16.364,16.364,0,0,0,.364-3.026Zm4.763,1.625a23.053,23.053,0,0,1,2.564,4.9l-.967.463a16.636,16.636,0,0,0-2.507-4.945Zm.729.182a15.411,15.411,0,0,0-1.149-1.947l.687-.294a20.392,20.392,0,0,1,1.162,1.933Zm1.554-.56a11.586,11.586,0,0,0-1.177-1.934l.687-.294a18.52,18.52,0,0,1,1.19,1.919Z"/><path d="M329.25,105.939v5.715H328.3V110.8h-8.923v.883h-.91v-5.744h.91v3.951h3.908v-4.875h-4.3v-4.748h.925V104.1h3.376V98.991h.939V104.1h3.515v-3.852h.953v4.763h-4.468v4.875H328.3v-3.951Z"/><path d="M342.284,110.422a10.124,10.124,0,0,0-3.432-2.1c.014.379.028.687.028.911,0,.924-.588,1.933-2.4,1.933-1.961,0-3.053-.7-3.053-2.017,0-1.233,1.205-2.073,3.194-2.073a6.942,6.942,0,0,1,1.219.1c-.029-.658-.057-1.359-.071-1.961h-.8c-.966,0-2.494-.084-3.5-.2v-.953a26.819,26.819,0,0,0,3.516.252h.756v-2.1c-.224.015-.462.015-.7.015a30.319,30.319,0,0,1-3.306-.21v-.925a22.4,22.4,0,0,0,3.292.265h.728v-.952a6.723,6.723,0,0,0-.056-.812h1.065c-.028.238-.056.49-.07.91,0,.169-.014.463-.014.827a31.848,31.848,0,0,0,3.614-.364l.014.938c-1.135.113-2.326.224-3.628.281v2.1a35.6,35.6,0,0,0,3.894-.378v.952c-1.331.169-2.563.267-3.88.323.028.743.07,1.512.1,2.185a11.64,11.64,0,0,1,4.062,2.186Zm-4.413-2.367a7.352,7.352,0,0,0-1.372-.141c-1.387,0-2.13.532-2.13,1.191s.561,1.163,2,1.163c.813,0,1.514-.239,1.514-1.233C337.886,108.783,337.871,108.433,337.871,108.055Z"/><path d="M353.44,102.3c0,.812.014,1.682.028,2.311a3.458,3.458,0,0,1,.434,1.751c0,1.892-.882,3.937-4.076,4.9l-.868-.84c1.9-.448,3.18-1.261,3.7-2.577a1.861,1.861,0,0,1-1.259.433,2.2,2.2,0,0,1-2.27-2.3,2.391,2.391,0,0,1,2.4-2.381,2.473,2.473,0,0,1,1,.2l-.014-1.484c-2.115.013-4.511.112-6.248.238l-.027-.981c1.541-.028,4.145-.112,6.26-.14-.013-.42-.013-.784-.027-.994a5.245,5.245,0,0,0-.1-.813h1.163a7.052,7.052,0,0,0-.07.8c-.014.238-.014.589-.014,1h.294c1.738,0,3.376,0,4.006.014v.938c-.77-.042-2-.07-4.019-.07Zm-.616,3.124a1.283,1.283,0,0,0-1.3-.967,1.461,1.461,0,0,0-1.457,1.514,1.377,1.377,0,0,0,1.471,1.428C352.39,107.4,352.922,106.724,352.824,105.421Z"/><path d="M363.645,109.329a2.109,2.109,0,1,1-2.116-2.1A2.1,2.1,0,0,1,363.645,109.329Zm-.66,0a1.45,1.45,0,1,0-1.456,1.457A1.451,1.451,0,0,0,362.985,109.329Z"/><path d="M99.815,127.866a1.443,1.443,0,1,1-1.442,1.443A1.441,1.441,0,0,1,99.815,127.866Z"/><path d="M117.247,126.619c-.294.183-.6.351-1,.561a39.269,39.269,0,0,0-3.907,2.143c-1.317.868-2.088,1.793-2.088,2.858,0,1.176,1.107,1.919,3.348,1.919a20.15,20.15,0,0,0,4.427-.462l-.014,1.12a26.782,26.782,0,0,1-4.371.336c-2.577,0-4.426-.784-4.426-2.8,0-1.415.883-2.55,2.409-3.6-.63-1.12-1.373-2.773-2.017-4.272l.981-.42a30.688,30.688,0,0,0,1.877,4.146c1.246-.756,2.577-1.386,3.333-1.821a6.591,6.591,0,0,0,.939-.616Zm.3-2.787a18.519,18.519,0,0,1,1.148,1.933l-.7.308a15.291,15.291,0,0,0-1.135-1.947Zm1.512-.546a16.522,16.522,0,0,1,1.191,1.9l-.686.323a12.732,12.732,0,0,0-1.177-1.933Z"/><path d="M131.737,126.031a45.371,45.371,0,0,1-5.645.588,25.528,25.528,0,0,1-.91,3.418,6.254,6.254,0,0,1,3.978-1.261c2.2,0,3.46,1.135,3.46,2.718,0,2.858-2.942,3.937-7.1,3.488l-.266-1c3.236.435,6.345-.139,6.345-2.465,0-1.079-.868-1.876-2.535-1.876a5.29,5.29,0,0,0-4.146,1.666,3.064,3.064,0,0,0-.449.644l-.91-.336a22.666,22.666,0,0,0,1.6-4.973h-.1c-.91,0-1.793-.07-2.577-.139l-.015-.981a18.3,18.3,0,0,0,2.578.21h.294c.07-.379.126-.7.154-.953a6.175,6.175,0,0,0,.07-1.106l1.121.07c-.1.336-.168.756-.239,1.106-.042.225-.084.519-.153.855a33.1,33.1,0,0,0,5.435-.658Z"/><path d="M138.594,130.191a6.616,6.616,0,0,1,4.566-1.737c2.073,0,3.5,1.247,3.5,2.872,0,2.465-2.255,4.105-7.284,3.684l-.308-1.023c4.412.533,6.541-.77,6.541-2.7,0-1.135-1.064-1.933-2.507-1.933a5.414,5.414,0,0,0-4.356,1.877,2.385,2.385,0,0,0-.407.686l-.952-.238a49.5,49.5,0,0,0,.7-5.589l1.079.141C138.986,127.193,138.748,129.281,138.594,130.191Zm.938-6.443a39.84,39.84,0,0,0,5.337,1.064l-.238.967c-1.3-.168-4.3-.785-5.351-1.079Z"/><path d="M154.905,123.762c-.056.238-.112.5-.154.77-.07.393-.21,1.261-.364,2.06.672-.057,1.274-.1,1.625-.1,1.19,0,2.213.448,2.213,2.3a13.335,13.335,0,0,1-.813,5,1.935,1.935,0,0,1-1.989,1.135,8.236,8.236,0,0,1-1.625-.21l-.168-1.065a6.293,6.293,0,0,0,1.709.308,1.2,1.2,0,0,0,1.247-.728,12.032,12.032,0,0,0,.672-4.314c0-1.3-.6-1.527-1.5-1.527-.35,0-.939.042-1.582.1a27.418,27.418,0,0,1-2.914,7.452l-1.037-.406a22.659,22.659,0,0,0,2.942-6.948c-.757.084-1.471.154-1.849.2-.308.029-.855.1-1.2.155l-.1-1.107a11.54,11.54,0,0,0,1.191,0c.462-.015,1.3-.085,2.171-.154a16.324,16.324,0,0,0,.351-3.026Zm4.762,1.512a24.131,24.131,0,0,1,2.563,4.917l-.965.477a17.031,17.031,0,0,0-2.508-4.987Z"/><path d="M170.054,132.769c.042-.546.055-1.5.055-2.242-1.331.7-2.3,1.457-2.3,2.41,0,1.149,1.149,1.289,2.591,1.289a24.335,24.335,0,0,0,3.769-.323l-.042,1.023a35.666,35.666,0,0,1-3.769.224c-1.946,0-3.544-.406-3.544-2.073,0-1.611,1.64-2.647,3.264-3.488a1.175,1.175,0,0,0-1.288-.924,3.587,3.587,0,0,0-2.424,1.036c-.391.378-.8.883-1.261,1.429l-.868-.645a14.351,14.351,0,0,0,3.222-4.3H166.8c-.588,0-1.5-.029-2.27-.084v-.954a19.813,19.813,0,0,0,2.325.141c.309,0,.617,0,.953-.015a7.567,7.567,0,0,0,.365-1.736l1.022.084a13.959,13.959,0,0,1-.421,1.625,32.38,32.38,0,0,0,4.287-.421v.939a40.078,40.078,0,0,1-4.623.392,9.791,9.791,0,0,1-1.316,2.27,3.887,3.887,0,0,1,1.975-.561,1.744,1.744,0,0,1,1.835,1.289c1.008-.476,1.891-.812,2.647-1.176.393-.168.715-.323,1.064-.5l.407.938c-.322.1-.784.28-1.149.421-.812.322-1.835.729-2.913,1.246.014.8.028,2,.042,2.69Z"/><path d="M180.146,132.951c.686,1.065,1.96,1.555,3.656,1.625,1.554.056,4.8.014,6.457-.084a2.994,2.994,0,0,0-.309.882c-1.54.057-4.566.084-6.121.028a5.028,5.028,0,0,1-4.061-1.68c-.6.616-1.247,1.218-1.92,1.835l-.491-.855c.589-.463,1.289-1.079,1.919-1.667v-3.726h-1.764v-.882h2.634Zm-.42-6.822a9.637,9.637,0,0,0-2.116-2.4l.714-.476A9.781,9.781,0,0,1,180.5,125.6Zm10.365,5.59h-9.329v-.743h2.577v-1.4h-2.115v-.728h2.115v-1.065h.854v1.065h2.424v-1.065h.882v1.065h2.144v.728H187.5v1.4h2.592Zm-5.982-7.551h-3.053V123.5h3.852v2.311h-2.815v.8c0,.252.069.309.546.309h1.583c.349,0,.42-.084.462-.728a1.741,1.741,0,0,0,.7.265c-.1.9-.336,1.135-1.036,1.135h-1.793c-.994,0-1.247-.2-1.247-.981v-1.47h2.8Zm.519,8.026a12.115,12.115,0,0,1-2.76,1.835,3.5,3.5,0,0,0-.686-.588,9.177,9.177,0,0,0,2.605-1.527Zm-.435-1.218h2.424v-1.4h-2.424Zm4.427-6.808h-3V123.5h3.824v2.311h-2.773v.785c0,.265.084.322.574.322H189c.364,0,.435-.1.477-.785a2.075,2.075,0,0,0,.7.28c-.084.939-.336,1.177-1.065,1.177h-1.933c-1.023,0-1.3-.2-1.3-.981v-1.47h2.746Zm.336,9.9a12.753,12.753,0,0,0-2.592-1.694l.659-.435a16.919,16.919,0,0,1,2.816,1.709Z"/><path d="M198.054,124.771c-.6.952-2,3.488-2.732,4.86a3.042,3.042,0,0,1,2.116-.91,1.569,1.569,0,0,1,1.624,1.667c.028.854.014,1.919.056,2.6a1.027,1.027,0,0,0,1.149,1.023c1.611,0,2.535-1.961,2.9-3.39l.826.658c-.742,2.213-1.89,3.754-3.88,3.754a1.744,1.744,0,0,1-1.961-1.723c-.042-.827-.013-1.891-.055-2.675a.957.957,0,0,0-1.051-.994c-1.149,0-2.228,1.148-2.774,2.241a22.775,22.775,0,0,0-1.218,3.151l-1.078-.364a101.318,101.318,0,0,1,4.93-10.016c.168-.322.322-.63.476-1.008l1.121.448A5.493,5.493,0,0,0,198.054,124.771Z"/><path d="M207.207,125.415c.855-.084,3.544-.351,6.093-.561,1.527-.139,2.788-.209,3.7-.238l.014,1a11.434,11.434,0,0,0-2.717.224,4.976,4.976,0,0,0-3.222,4.469c0,2.787,2.591,3.641,4.832,3.725l-.364,1.037c-2.493-.084-5.463-1.428-5.463-4.539a5.609,5.609,0,0,1,2.662-4.748c-1.219.14-5.141.518-6.626.826l-.126-1.12C206.521,125.471,206.94,125.443,207.207,125.415Zm8.992,3.908-.658.308a12.8,12.8,0,0,0-1.148-1.989l.644-.28A17.467,17.467,0,0,1,216.2,129.323Zm1.583-.6-.658.322a13.794,13.794,0,0,0-1.19-1.961l.629-.309A17.271,17.271,0,0,1,217.782,128.721Z"/><path d="M228.575,124.294c-.266.21-.686.574-.9.757-.967.854-3,2.465-4.034,3.334-.855.728-.87.952.055,1.709,1.3,1.036,3.852,3.165,5.2,4.524l-.882.8c-.267-.308-.631-.658-.911-.952-.756-.826-3.11-2.83-4.413-3.9s-1.134-1.68.084-2.716c1.037-.87,3.18-2.55,4.119-3.517a5.227,5.227,0,0,0,.743-.882Z"/><path d="M240.8,126.55a27.286,27.286,0,0,1-2.914.475c-.126.6-.279,1.247-.434,1.85a39.952,39.952,0,0,1-2.172,6.345l-1.106-.365a31.079,31.079,0,0,0,2.311-6.2c.126-.475.252-1.008.378-1.541-.475.042-.938.057-1.344.057-.6,0-1.092-.015-1.6-.057l-.028-.98a12.268,12.268,0,0,0,1.653.112c.462,0,.967-.028,1.513-.07.1-.532.182-.994.224-1.288a5.013,5.013,0,0,0,.056-1.093l1.2.1c-.084.3-.183.8-.238,1.064l-.225,1.121a23.349,23.349,0,0,0,2.718-.518Zm-.6,4.916a5.032,5.032,0,0,0-.21,1.261c0,.658.309,1.317,2.368,1.317a14.011,14.011,0,0,0,2.689-.267L245,134.8a18.165,18.165,0,0,1-2.661.2c-2.157,0-3.292-.658-3.292-2.031a8.848,8.848,0,0,1,.2-1.6Zm-.265-3.362c.714-.056,1.61-.112,2.507-.112a22.242,22.242,0,0,1,2.4.112l-.028.967a17.454,17.454,0,0,0-2.325-.169c-.855,0-1.709.057-2.549.141Zm3.908-1.583a17.291,17.291,0,0,0-1.149-1.947l.672-.294a17.359,17.359,0,0,1,1.162,1.933Zm1.05-2.8a16.377,16.377,0,0,1,1.191,1.919l-.686.322a12.977,12.977,0,0,0-1.177-1.947Z"/><path d="M258.62,126.171c-.869.225-1.793.434-2.647.574.475,1.093,1.246,2.76,1.877,3.937l-.6.6c-.56-.112-1.933-.308-2.815-.392l.1-.813c.547.042,1.556.154,2.032.21-.42-.9-1.149-2.423-1.569-3.4a28.719,28.719,0,0,1-5.911.042l-.028-1.009A23.93,23.93,0,0,0,254.6,126l-.491-1.093a9.533,9.533,0,0,0-.574-1.134l1.135-.211c.336.967.6,1.57.91,2.3a17.656,17.656,0,0,0,2.858-.686Zm-7.858,4.217a5.275,5.275,0,0,0-.407,1.764c0,1.261.9,2,2.984,2a14.576,14.576,0,0,0,3.614-.378l-.014,1.036a17.962,17.962,0,0,1-3.614.309c-2.55,0-3.964-1.022-3.964-2.731a7.87,7.87,0,0,1,.378-2.1Z"/><path d="M263.781,126.213a31.982,31.982,0,0,0,.113,3.334c.223,2.382.938,3.936,1.946,3.936.715,0,1.387-1.4,1.751-2.843l.812.882c-.826,2.339-1.68,3.138-2.591,3.138-1.26,0-2.521-1.3-2.9-4.875-.127-1.19-.154-2.871-.154-3.683a7.09,7.09,0,0,0-.084-1.206l1.219.029A11.651,11.651,0,0,0,263.781,126.213Zm9.82,5.855-1.009.393a13.661,13.661,0,0,0-2.4-6.808l.967-.337A14.414,14.414,0,0,1,273.6,132.068Z"/><path d="M279.645,133.329a2.109,2.109,0,1,1-2.116-2.1A2.1,2.1,0,0,1,279.645,133.329Zm-.66,0a1.45,1.45,0,1,0-1.456,1.457A1.451,1.451,0,0,0,278.985,133.329Z"/><path d="M99.815,151.866a1.443,1.443,0,1,1-1.442,1.443A1.441,1.441,0,0,1,99.815,151.866Z"/><path d="M114.306,151.88H118.9v7.83h-.966v-.616h-9.442v-.924h9.442v-2.325h-8.727v-.9h8.727v-2.143h-9.175v-.925h4.552v-4.958h.995Zm-3.894-.756a13.292,13.292,0,0,0-1.822-3.222l.827-.35a13.532,13.532,0,0,1,1.877,3.179Zm8.67-3.348a33.672,33.672,0,0,1-2.045,3.46l-.77-.337a21.6,21.6,0,0,0,1.835-3.473Z"/><path d="M129.216,150.354c-.924.2-1.933.364-2.913.476-.127.6-.281,1.246-.435,1.849a40.293,40.293,0,0,1-2.171,6.331l-1.107-.364a30.511,30.511,0,0,0,2.312-6.206c.126-.461.252-.994.378-1.526-.49.042-.939.056-1.345.056-.6,0-1.092-.029-1.6-.056l-.027-.98a12.029,12.029,0,0,0,1.652.1c.462,0,.967-.028,1.513-.07.1-.532.182-.981.224-1.274a5.138,5.138,0,0,0,.056-1.107l1.2.1c-.084.294-.182.8-.238,1.064l-.224,1.121a23.332,23.332,0,0,0,2.717-.518Zm-.6,4.9a5.032,5.032,0,0,0-.21,1.261c0,.672.308,1.331,2.367,1.331a15.224,15.224,0,0,0,2.689-.267l-.042,1.009a18.165,18.165,0,0,1-2.661.2c-2.157,0-3.292-.658-3.292-2.031a8.563,8.563,0,0,1,.2-1.583Zm-.266-3.361c.714-.057,1.61-.113,2.507-.113a21.9,21.9,0,0,1,2.4.126l-.028.952a17.628,17.628,0,0,0-2.325-.168,22.036,22.036,0,0,0-2.549.155Z"/><path d="M139.532,147.664a26.663,26.663,0,0,0-.658,4.02c.532-1.5,2.017-3.32,3.81-3.32,1.835,0,3.137,1.849,3.137,4.735,0,3.838-2.437,5.505-5.827,6.121l-.588-.9c2.984-.448,5.379-1.708,5.379-5.2,0-2.213-.728-3.853-2.255-3.853-1.737,0-3.376,2.522-3.558,4.343a5.607,5.607,0,0,0,.028,1.737l-.981.084a16.736,16.736,0,0,1-.14-2.185,35.459,35.459,0,0,1,.434-4.482c.057-.435.084-.827.112-1.149Z"/><path d="M151.071,153.309a9.306,9.306,0,0,1,2.787-6.654l.756.407a8.728,8.728,0,0,0,0,12.495l-.756.406A9.308,9.308,0,0,1,151.071,153.309Z"/><path d="M156.5,157.68h2.3v-7.859h-1.807v-.742a5.89,5.89,0,0,0,2.073-.7h.869v9.3h2.087v.952H156.5Z"/><path d="M163.638,153.463c0-3.558,1.218-5.267,3.152-5.267s3.123,1.723,3.123,5.267c0,3.586-1.2,5.35-3.123,5.35S163.638,157.049,163.638,153.463Zm5.169,0c0-3-.813-4.342-2.017-4.342s-2.046,1.345-2.046,4.342c0,3.054.827,4.427,2.046,4.427S168.807,156.517,168.807,153.463Z"/><path d="M174.781,159.29a8.41,8.41,0,0,0,1.919-2.815l.883.224a9.677,9.677,0,0,1-1.961,3Zm10.983-3.712H176.5v-4.37h4.049v-4.286h.924v1.54h5.336v.883h-5.336v1.863h4.287Zm-.939-3.5h-7.438v2.634h7.438Zm-4.987,4.679a14.639,14.639,0,0,1,.35,2.676l-.938.126a14.612,14.612,0,0,0-.309-2.732Zm2.844-.112a13.333,13.333,0,0,1,1.036,2.675l-.9.21a14.031,14.031,0,0,0-.98-2.689Zm2.815-.239a15.264,15.264,0,0,1,1.877,2.8l-.882.364a14.689,14.689,0,0,0-1.807-2.857Z"/><path d="M192.312,153.309a9.31,9.31,0,0,1-2.789,6.654l-.755-.406a8.731,8.731,0,0,0,0-12.495l.755-.407A9.308,9.308,0,0,1,192.312,153.309Z"/><path d="M213.161,150.27c-.294.168-.616.349-1.009.545a45.452,45.452,0,0,0-4.272,2.34c-1.317.855-2.087,1.779-2.087,2.843,0,1.177,1.106,1.919,3.348,1.919a21,21,0,0,0,4.426-.462l-.013,1.121a26.782,26.782,0,0,1-4.371.336c-2.578,0-4.426-.784-4.426-2.8,0-1.4.882-2.535,2.409-3.586a45.023,45.023,0,0,1-2.018-4.3l.981-.407a31.188,31.188,0,0,0,1.877,4.161c1.331-.813,2.9-1.555,3.67-2a7.631,7.631,0,0,0,.938-.618Z"/><path d="M219.667,148c-.07.21-.168.616-.225.868a33.7,33.7,0,0,0-.685,5.632,15.241,15.241,0,0,0,.139,2.087c.225-.673.575-1.555.813-2.129l.532.42c-.336.938-.841,2.353-.98,3.025a3.081,3.081,0,0,0-.071.6c.015.14.042.336.057.476l-.9.056a16.574,16.574,0,0,1-.519-4.37,41.125,41.125,0,0,1,.645-5.856,7.33,7.33,0,0,0,.084-.91Zm9.119,10.029a10.74,10.74,0,0,0-2.172-1.625v.351a2.052,2.052,0,0,1-2.352,2.213c-1.85,0-2.844-.742-2.844-1.961,0-1.107,1.009-2.045,2.815-2.045a6.859,6.859,0,0,1,1.359.14c-.056-1.107-.126-2.507-.14-3.684-.462.028-.938.042-1.4.042-.785,0-1.5-.056-2.3-.1l-.014-.938c.784.069,1.527.111,2.339.111.463,0,.911-.014,1.373-.027,0-.715-.014-1.345,0-1.751a8.188,8.188,0,0,0-.056-.841h1.134c-.042.28-.069.546-.084.813-.027.392-.027,1.078-.042,1.722a19.974,19.974,0,0,0,2.438-.322v.967c-.771.126-1.6.21-2.438.28.015,1.387.113,2.815.168,4.02a9.486,9.486,0,0,1,2.746,1.821Zm-3.166-2.045a5.059,5.059,0,0,0-1.457-.223c-1.092,0-1.835.49-1.835,1.162,0,.715.7,1.135,1.737,1.135,1.233,0,1.569-.6,1.569-1.555C225.634,156.362,225.634,156.181,225.62,155.984Z"/><path d="M238.64,149.555c1.737,0,3.376.014,4.02.014l-.014.939c-.771-.042-1.989-.057-4.02-.057h-.267c0,.8.014,1.667.029,2.3a3.45,3.45,0,0,1,.433,1.751c0,1.9-.882,3.95-4.076,4.916l-.868-.84c1.919-.448,3.194-1.275,3.712-2.6a1.938,1.938,0,0,1-1.275.448,2.19,2.19,0,0,1-2.269-2.3,2.4,2.4,0,0,1,2.4-2.381,2.68,2.68,0,0,1,.981.182c0-.42,0-.952-.014-1.471-2.1.028-4.5.112-6.233.252l-.028-.98c1.527-.028,4.146-.126,6.247-.154,0-.421-.014-.785-.028-.995a5.608,5.608,0,0,0-.084-.812h1.149c-.015.14-.057.644-.057.812-.014.225-.014.574-.014.981Zm-.911,4.007a1.268,1.268,0,0,0-1.289-.967,1.46,1.46,0,0,0-1.457,1.512,1.385,1.385,0,0,0,1.457,1.443C237.309,155.55,237.827,154.864,237.729,153.562Zm3-4.077a17.008,17.008,0,0,0-1.037-1.723l.7-.308c.336.462.77,1.191,1.064,1.709Zm1.667-.364a11.72,11.72,0,0,0-1.037-1.709l.7-.308a17.368,17.368,0,0,1,1.064,1.695Z"/><path d="M257.7,157.455a3.543,3.543,0,0,1-2.535,1.177,1.483,1.483,0,0,1-1.513-1.695c0-1.555.533-3.866.533-5.239a1,1,0,0,0-1.149-1.148c-1.135,0-2.83,1.288-4.133,2.7-.042.6-.055,1.19-.055,1.7,0,1.288-.015,2.087.042,3.306.013.238.042.559.07.812h-1.093c.014-.182.042-.56.042-.785,0-1.344.014-1.988.028-3.473,0-.2.014-.477.028-.8-.687,1.036-1.639,2.409-2.354,3.4l-.629-.868c.77-.967,2.395-3.194,3.082-4.259.042-.475.069-.966.1-1.429-.616.084-1.835.252-2.731.379l-.113-1.037a5.819,5.819,0,0,0,.855-.028c.448-.027,1.317-.111,2.06-.237.042-.673.069-1.192.069-1.345a6.093,6.093,0,0,0-.056-1l1.2.042c-.07.322-.168,1.121-.28,2.115l.084-.028.392.448c-.168.253-.407.616-.6.938-.028.295-.042.589-.07.883,1.064-.994,2.871-2.381,4.272-2.381a1.711,1.711,0,0,1,1.919,1.835c0,1.387-.532,3.838-.532,5.239,0,.476.224.869.756.869a3.124,3.124,0,0,0,2.143-1.177Z"/><path d="M262.342,153.309a9.306,9.306,0,0,1,2.787-6.654l.757.407a8.726,8.726,0,0,0,0,12.495l-.757.406A9.308,9.308,0,0,1,262.342,153.309Z"/><path d="M267.223,153.463c0-3.558,1.218-5.267,3.152-5.267,1.919,0,3.123,1.723,3.123,5.267,0,3.586-1.2,5.35-3.123,5.35C268.441,158.813,267.223,157.049,267.223,153.463Zm5.169,0c0-3-.813-4.342-2.017-4.342s-2.046,1.345-2.046,4.342c0,3.054.827,4.427,2.046,4.427S272.392,156.517,272.392,153.463Z"/><path d="M278.366,159.29a8.41,8.41,0,0,0,1.919-2.815l.883.224a9.677,9.677,0,0,1-1.961,3Zm10.983-3.712h-9.26v-4.37h4.049v-4.286h.924v1.54H290.4v.883h-5.336v1.863h4.287Zm-.939-3.5h-7.438v2.634h7.438Zm-4.987,4.679a14.639,14.639,0,0,1,.35,2.676l-.938.126a14.612,14.612,0,0,0-.309-2.732Zm2.844-.112a13.333,13.333,0,0,1,1.036,2.675l-.9.21a14.031,14.031,0,0,0-.98-2.689Zm2.815-.239a15.264,15.264,0,0,1,1.877,2.8l-.882.364a14.689,14.689,0,0,0-1.807-2.857Z"/><path d="M295.9,153.309a9.309,9.309,0,0,1-2.788,6.654l-.755-.406a8.731,8.731,0,0,0,0-12.495l.755-.407A9.307,9.307,0,0,1,295.9,153.309Z"/><path d="M311.591,147.8c-.042.238-.1.5-.153.757-.057.406-.2,1.274-.365,2.073.672-.057,1.275-.1,1.625-.1,1.191,0,2.213.448,2.213,2.3a13.211,13.211,0,0,1-.812,4.986,1.9,1.9,0,0,1-1.99,1.135,8.417,8.417,0,0,1-1.625-.2l-.168-1.065a6.485,6.485,0,0,0,1.709.309,1.2,1.2,0,0,0,1.247-.729,11.75,11.75,0,0,0,.659-4.314c0-1.3-.589-1.527-1.471-1.527-.351,0-.939.042-1.583.1a27.981,27.981,0,0,1-2.928,7.452l-1.022-.406a22.381,22.381,0,0,0,2.927-6.948c-.756.07-1.47.154-1.849.183-.322.042-.84.111-1.191.168l-.112-1.107a11.559,11.559,0,0,0,1.192,0c.475-.015,1.3-.085,2.17-.154a16.282,16.282,0,0,0,.365-3.026Zm4.763,1.625a23.1,23.1,0,0,1,2.563,4.9l-.967.463a16.613,16.613,0,0,0-2.507-4.945Zm.728.182a15.4,15.4,0,0,0-1.148-1.947l.686-.294a20.185,20.185,0,0,1,1.162,1.933Zm1.555-.56a11.653,11.653,0,0,0-1.177-1.934l.686-.294a18.532,18.532,0,0,1,1.191,1.919Z"/><path d="M329.514,151.769a3.381,3.381,0,0,1,2.773,3.263c0,1.989-1.345,3.684-4.524,4.2l-.547-.854c2.466-.267,4.091-1.541,4.091-3.4a2.525,2.525,0,0,0-2.088-2.423,11.822,11.822,0,0,1-3.081,4.538c.1.392.21.77.322,1.121l-.911.28c-.084-.253-.153-.518-.237-.812a4.746,4.746,0,0,1-2.369.8,1.531,1.531,0,0,1-1.61-1.7c0-1.793,1.583-3.628,3.474-4.482.028-.715.1-1.429.154-2.088-.309.015-.616.015-.91.015-.575,0-1.654-.057-2.2-.084l-.029-.967a18.716,18.716,0,0,0,2.241.168c.336,0,.659,0,1-.014.042-.435.084-.812.112-1.121a5.079,5.079,0,0,0,.028-.616l1.065.028a3.614,3.614,0,0,0-.141.588c-.056.294-.126.673-.182,1.093a28.875,28.875,0,0,0,4.875-.574l.014.938a43.952,43.952,0,0,1-5,.519c-.056.559-.1,1.162-.14,1.778a8.788,8.788,0,0,1,2.368-.378c.181,0,.364.014.546.028l.056-.224a5.854,5.854,0,0,0,.14-.714l1.009.238c-.084.182-.183.5-.252.714Zm-4.749,1.484a4.5,4.5,0,0,0-2.48,3.376c0,.588.28.883.813.883a3.7,3.7,0,0,0,2-.785,16.666,16.666,0,0,1-.336-3.123Zm3.557-.841h-.265a6.761,6.761,0,0,0-2.4.448c-.014.211-.014.435-.014.645a13.822,13.822,0,0,0,.252,2.55A9.347,9.347,0,0,0,328.322,152.412Z"/><path d="M338.429,147.664a26.413,26.413,0,0,0-.658,4.02c.532-1.5,2.016-3.32,3.809-3.32,1.835,0,3.138,1.849,3.138,4.735,0,3.838-2.438,5.505-5.827,6.121l-.588-.9c2.983-.448,5.379-1.708,5.379-5.2,0-2.213-.729-3.853-2.256-3.853-1.737,0-3.375,2.522-3.558,4.343a5.607,5.607,0,0,0,.028,1.737l-.98.084a16.707,16.707,0,0,1-.141-2.185,35.268,35.268,0,0,1,.435-4.482c.056-.435.084-.827.112-1.149Z"/><path d="M359.181,158.422a10.129,10.129,0,0,0-3.433-2.1c.015.379.028.687.028.911,0,.924-.588,1.933-2.4,1.933-1.961,0-3.054-.7-3.054-2.017,0-1.233,1.2-2.073,3.194-2.073a6.934,6.934,0,0,1,1.219.1c-.028-.658-.056-1.359-.07-1.961h-.8c-.966,0-2.493-.084-3.5-.2v-.953a26.835,26.835,0,0,0,3.517.252h.756v-2.1c-.224.015-.462.015-.7.015a30.316,30.316,0,0,1-3.3-.21v-.925a22.384,22.384,0,0,0,3.292.265h.727v-.952a6.739,6.739,0,0,0-.055-.812h1.064c-.027.238-.056.49-.069.91,0,.169-.015.463-.015.827a31.8,31.8,0,0,0,3.614-.364l.014.938c-1.135.113-2.325.224-3.628.281v2.1a35.647,35.647,0,0,0,3.9-.378v.952c-1.331.169-2.564.267-3.88.323.027.743.069,1.512.1,2.185a11.646,11.646,0,0,1,4.063,2.186Zm-4.413-2.367a7.37,7.37,0,0,0-1.372-.141c-1.387,0-2.13.532-2.13,1.191s.56,1.163,2,1.163c.812,0,1.513-.239,1.513-1.233C354.782,156.783,354.768,156.433,354.768,156.055Z"/><path d="M370.337,150.3c0,.812.014,1.682.027,2.311a3.448,3.448,0,0,1,.435,1.751c0,1.892-.883,3.937-4.076,4.9l-.869-.84c1.905-.448,3.18-1.261,3.7-2.577a1.864,1.864,0,0,1-1.26.433,2.2,2.2,0,0,1-2.27-2.3,2.392,2.392,0,0,1,2.4-2.381,2.468,2.468,0,0,1,.994.2l-.014-1.484c-2.115.013-4.51.112-6.248.238l-.027-.981c1.541-.028,4.146-.112,6.261-.14-.014-.42-.014-.784-.028-.994a5.141,5.141,0,0,0-.1-.813h1.163a7.052,7.052,0,0,0-.07.8c-.014.238-.014.589-.014,1h.294c1.737,0,3.376,0,4.006.014v.938c-.771-.042-2-.07-4.02-.07Zm-.616,3.124a1.284,1.284,0,0,0-1.3-.967,1.46,1.46,0,0,0-1.457,1.514,1.377,1.377,0,0,0,1.471,1.428C369.286,155.4,369.818,154.724,369.721,153.421Z"/><path d="M380.541,157.329a2.109,2.109,0,1,1-2.115-2.1A2.1,2.1,0,0,1,380.541,157.329Zm-.659,0a1.45,1.45,0,1,0-1.456,1.457A1.452,1.452,0,0,0,379.882,157.329Z"/><path d="M99.815,175.866a1.443,1.443,0,1,1-1.442,1.443A1.441,1.441,0,0,1,99.815,175.866Z"/><path d="M114.053,179.774h-1.4v2.858h-1.079v-2.858h-4.5v-.742l4.356-6.654h1.219v6.486h1.4Zm-2.479-.91V175.53c0-.5.042-1.317.084-1.821h-.07c-.252.49-.532.994-.812,1.484l-2.48,3.671Z"/><path d="M130.8,171.51v12.158h-.98v-.742h-9.665v.742h-.939V171.51Zm-.98,10.534v-9.6h-9.665v9.6Zm-2.171-7.313v5.015H122.3v-5.015Zm-.925.827H123.18v3.348h3.544Z"/><path d="M135.4,180.937c.687,1.065,1.961,1.555,3.642,1.611,1.527.07,4.721.028,6.36-.07a3.047,3.047,0,0,0-.295.911c-1.54.055-4.51.084-6.05.027a4.987,4.987,0,0,1-4.035-1.681c-.63.617-1.274,1.219-1.961,1.822l-.5-.883c.588-.462,1.317-1.051,1.961-1.653v-3.712H132.7v-.882h2.7Zm-.322-6.793a9.846,9.846,0,0,0-2.227-2.354l.714-.519a10.3,10.3,0,0,1,2.269,2.3Zm4.987,6.218h-4.048v-.8h4.048v-1.05h-3.138v-4.483h3.138v-1.022h-3.824v-.784h3.824v-1.289h.9v1.289h4.02v.784h-4.02v1.022h3.264v4.483h-3.264v1.05h4.245v.8h-4.245v1.654h-.9Zm-2.283-4.425h2.283v-1.192h-2.283Zm2.283,1.876v-1.2h-2.283v1.2Zm.9-3.068v1.192h2.382v-1.192Zm2.382,1.863h-2.382v1.2h2.382Z"/><path d="M148.141,178.976a13.3,13.3,0,0,1-.981,3.558,3.388,3.388,0,0,0-.714-.35,10.631,10.631,0,0,0,.9-3.348Zm1.484-1.233v5.94H148.8V177.8c-.812.056-1.583.1-2.241.14l-.1-.854.98-.042c.294-.364.6-.784.911-1.232a13.669,13.669,0,0,0-1.765-2.032l.5-.589c.14.126.294.267.434.407a17.862,17.862,0,0,0,1.289-2.661l.827.308a25.613,25.613,0,0,1-1.611,2.885c.308.337.588.673.812.967a30.024,30.024,0,0,0,1.527-2.592l.8.379A46.782,46.782,0,0,1,148.323,177c.672-.028,1.4-.07,2.157-.1a12.854,12.854,0,0,0-.658-1.232l.686-.28a12.13,12.13,0,0,1,1.345,2.759V176.23h7.4v2.452h-.827V177h-5.771v1.681h-.8v-.42l-.728.336a5.589,5.589,0,0,0-.309-.925Zm1.275,3.824a10.354,10.354,0,0,0-.714-2.549l.686-.21a9.365,9.365,0,0,1,.757,2.535Zm2.76-3.473h.855v.826a4.925,4.925,0,0,1-2.985,4.776,4.063,4.063,0,0,0-.658-.63,4.324,4.324,0,0,0,2.788-4.16Zm1.359-5.03h-3.237v-.8h3.237v-1.345h.924v1.345h3.291v.8h-3.291v1.36h2.8v.8h-6.472v-.8h2.747ZM158.4,182.8c.28,0,.349-.224.377-1.723a2.262,2.262,0,0,0,.757.378c-.07,1.709-.295,2.144-1.05,2.144h-1.164c-.868,0-1.092-.252-1.092-1.191v-4.343h.854v4.343c0,.336.057.392.364.392Z"/><path d="M162.393,173.415c.854-.084,3.544-.351,6.092-.561,1.528-.139,2.788-.209,3.7-.238l.013.995a11.438,11.438,0,0,0-2.717.224,4.975,4.975,0,0,0-3.221,4.469c0,2.787,2.591,3.641,4.832,3.725l-.364,1.037c-2.494-.084-5.463-1.428-5.463-4.539a5.609,5.609,0,0,1,2.662-4.748c-1.219.14-5.142.518-6.626.826l-.126-1.12C161.706,173.471,162.126,173.443,162.393,173.415Zm8.992,3.908-.658.308a12.724,12.724,0,0,0-1.149-1.989l.645-.28A17.619,17.619,0,0,1,171.385,177.323Zm1.583-.6-.658.322a13.708,13.708,0,0,0-1.191-1.961l.63-.309A17.271,17.271,0,0,1,172.968,176.721Z"/><path d="M181.491,175.88h4.595v7.83h-.967v-.616h-9.441v-.924h9.441v-2.325h-8.726v-.9h8.726v-2.143h-9.175v-.925H180.5v-4.958h.994Zm-3.894-.756a13.286,13.286,0,0,0-1.821-3.222l.827-.35a13.491,13.491,0,0,1,1.876,3.179Zm8.671-3.348a34.038,34.038,0,0,1-2.045,3.46l-.771-.337a21.524,21.524,0,0,0,1.835-3.473Z"/><path d="M196.4,174.354c-.923.2-1.932.364-2.913.476-.126.6-.28,1.246-.434,1.849a40.293,40.293,0,0,1-2.171,6.331l-1.107-.364a30.452,30.452,0,0,0,2.311-6.206c.126-.461.253-.994.379-1.526-.49.042-.939.056-1.345.056-.6,0-1.093-.029-1.6-.056l-.027-.98a12.046,12.046,0,0,0,1.652.1c.463,0,.967-.028,1.513-.07.1-.532.183-.981.225-1.274a5.133,5.133,0,0,0,.055-1.107l1.2.1c-.084.294-.182.8-.238,1.064l-.223,1.121a23.354,23.354,0,0,0,2.716-.518Zm-.6,4.9a5.032,5.032,0,0,0-.21,1.261c0,.672.308,1.331,2.367,1.331a15.235,15.235,0,0,0,2.69-.267l-.042,1.009a18.18,18.18,0,0,1-2.662.2c-2.157,0-3.292-.658-3.292-2.031a8.485,8.485,0,0,1,.2-1.583Zm-.266-3.361c.714-.057,1.611-.113,2.507-.113a21.922,21.922,0,0,1,2.4.126l-.028.952a17.64,17.64,0,0,0-2.325-.168,22.081,22.081,0,0,0-2.55.155Z"/><path d="M212.419,172.9c-.238.168-.532.365-.729.519-.672.5-2.6,2.227-3.711,3.151a5.779,5.779,0,0,1,1.989-.307c2.3,0,3.935,1.372,3.935,3.221,0,2.255-1.89,3.656-4.748,3.656-1.877,0-2.984-.826-2.984-1.933a1.922,1.922,0,0,1,2.088-1.765,2.743,2.743,0,0,1,2.829,2.479,2.516,2.516,0,0,0,1.821-2.437c0-1.386-1.387-2.409-3.166-2.409-2.311,0-3.557.952-5.365,2.759l-.728-.756c1.176-.967,2.969-2.479,3.782-3.152.77-.644,2.536-2.143,3.25-2.759-.743.027-3.628.168-4.342.195-.309.029-.6.042-.9.085l-.028-1.05a7.313,7.313,0,0,0,.939.055c.713,0,4.047-.112,4.776-.181a4.154,4.154,0,0,0,.7-.113Zm-2.241,9.259a1.943,1.943,0,0,0-1.934-1.919c-.658,0-1.148.379-1.148.9,0,.7.841,1.106,1.919,1.106A7.447,7.447,0,0,0,210.178,182.155Z"/><path d="M227.035,174.27c-.294.168-.616.349-1.009.545a45.452,45.452,0,0,0-4.272,2.34c-1.316.855-2.087,1.779-2.087,2.843,0,1.177,1.106,1.919,3.348,1.919a21,21,0,0,0,4.426-.462l-.014,1.121a26.759,26.759,0,0,1-4.37.336c-2.578,0-4.426-.784-4.426-2.8,0-1.4.882-2.535,2.409-3.586a45.269,45.269,0,0,1-2.018-4.3l.981-.407a31.188,31.188,0,0,0,1.877,4.161c1.331-.813,2.9-1.555,3.67-2a7.631,7.631,0,0,0,.938-.618Z"/><path d="M233.863,183.374a22.426,22.426,0,0,0-3.109-3.109l.811-.729a26.531,26.531,0,0,1,3.153,3.124Z"/><path d="M246.168,178.99a12.092,12.092,0,0,1-1.008,3.544,3.643,3.643,0,0,0-.743-.35,10.108,10.108,0,0,0,.938-3.348Zm10.24-6.29a10.655,10.655,0,0,1-2.3,3.46,10.782,10.782,0,0,0,3.432,2.129,4.622,4.622,0,0,0-.6.771,11.677,11.677,0,0,1-3.446-2.326,13.023,13.023,0,0,1-3.376,2.144,3.088,3.088,0,0,0-.433-.6l-.589.267c-.056-.225-.14-.477-.239-.757l-1.176.07v5.87h-.827v-5.814c-.826.042-1.6.1-2.241.141l-.07-.855.9-.042c.323-.392.66-.869,1-1.373a13.428,13.428,0,0,0-1.835-1.989l.475-.6c.141.126.3.253.435.393a18.415,18.415,0,0,0,1.289-2.647l.812.322a24.262,24.262,0,0,1-1.583,2.815,8.776,8.776,0,0,1,.868.994c.561-.9,1.08-1.806,1.458-2.563l.8.364a46.2,46.2,0,0,1-2.815,4.259l2.2-.112c-.21-.435-.448-.9-.685-1.288l.671-.267a12.816,12.816,0,0,1,1.248,2.592,11.908,11.908,0,0,0,3.109-1.934,12.534,12.534,0,0,1-1.555-2.1,12.2,12.2,0,0,1-1.512,1.54,3.214,3.214,0,0,0-.645-.588,10.473,10.473,0,0,0,3.025-4.048l.925.153c-.2.435-.434.883-.7,1.345h3.264l.168-.042Zm-7.509,6.052a12.148,12.148,0,0,1,.912,2.535l-.729.252a12,12,0,0,0-.869-2.563Zm2.032,2.115a28.186,28.186,0,0,1,5.435,2.143l-.56.742a25.63,25.63,0,0,0-5.436-2.227Zm.91-7.536a10.281,10.281,0,0,0,1.639,2.227,8.921,8.921,0,0,0,1.723-2.326H251.9Zm.631,4.931a16.984,16.984,0,0,1,2.829,1.568l-.588.645a14.606,14.606,0,0,0-2.816-1.625Z"/><path d="M263.516,174.171c-.168.253-.407.616-.6.938-.028.323-.057.66-.07,1a6.944,6.944,0,0,1,4.454-1.792,3.464,3.464,0,0,1,3.614,3.459c.014,2.788-2.073,4.231-5.028,4.791l-.448-.953c2.325-.322,4.482-1.428,4.467-3.866a2.584,2.584,0,0,0-2.745-2.521,6.5,6.5,0,0,0-4.385,2.031c-.042.6-.055,1.19-.055,1.7,0,1.288-.014,2.087.042,3.306.013.238.042.559.07.812h-1.093c.014-.182.042-.56.042-.785,0-1.344.014-1.988.029-3.473,0-.2.013-.477.027-.8-.687,1.036-1.639,2.409-2.354,3.4l-.629-.868c.77-.967,2.4-3.194,3.082-4.259.042-.475.069-.966.1-1.429-.616.084-1.835.252-2.731.379l-.112-1.037c.293.014.56,0,.854-.013.448-.042,1.316-.126,2.06-.239.042-.686.069-1.205.069-1.358a6.093,6.093,0,0,0-.056-1l1.2.042c-.07.322-.169,1.121-.28,2.115l.084-.028Z"/><path d="M276.718,171.664a26.537,26.537,0,0,0-.658,4.02c.532-1.5,2.016-3.32,3.809-3.32,1.835,0,3.138,1.849,3.138,4.735,0,3.838-2.438,5.505-5.827,6.121l-.588-.9c2.983-.448,5.379-1.708,5.379-5.2,0-2.213-.729-3.853-2.256-3.853-1.736,0-3.375,2.522-3.558,4.343a5.579,5.579,0,0,0,.029,1.737l-.981.084a16.707,16.707,0,0,1-.141-2.185,35.268,35.268,0,0,1,.435-4.482c.056-.435.084-.827.112-1.149Z"/><path d="M297.47,182.422a10.129,10.129,0,0,0-3.433-2.1c.015.379.028.687.028.911,0,.924-.587,1.933-2.395,1.933-1.961,0-3.054-.7-3.054-2.017,0-1.233,1.205-2.073,3.195-2.073a6.931,6.931,0,0,1,1.218.1c-.028-.658-.056-1.359-.07-1.961h-.8c-.966,0-2.493-.084-3.5-.2v-.953a26.835,26.835,0,0,0,3.517.252h.756v-2.1c-.224.015-.462.015-.7.015a30.316,30.316,0,0,1-3.305-.21v-.925a22.384,22.384,0,0,0,3.292.265h.727v-.952a6.739,6.739,0,0,0-.055-.812h1.064c-.027.238-.056.49-.069.91,0,.169-.015.463-.015.827a31.8,31.8,0,0,0,3.614-.364l.014.938c-1.135.113-2.325.224-3.628.281v2.1a35.622,35.622,0,0,0,3.895-.378v.952c-1.331.169-2.564.267-3.88.323.027.743.069,1.512.1,2.185a11.646,11.646,0,0,1,4.063,2.186Zm-4.413-2.367a7.37,7.37,0,0,0-1.372-.141c-1.387,0-2.13.532-2.13,1.191s.56,1.163,2,1.163c.812,0,1.513-.239,1.513-1.233C293.071,180.783,293.057,180.433,293.057,180.055Z"/><path d="M308.626,174.3c0,.812.014,1.682.027,2.311a3.448,3.448,0,0,1,.435,1.751c0,1.892-.883,3.937-4.076,4.9l-.868-.84c1.9-.448,3.179-1.261,3.7-2.577a1.864,1.864,0,0,1-1.26.433,2.2,2.2,0,0,1-2.269-2.3,2.391,2.391,0,0,1,2.395-2.381,2.468,2.468,0,0,1,.994.2l-.013-1.484c-2.116.013-4.511.112-6.249.238l-.027-.981c1.541-.028,4.146-.112,6.261-.14-.014-.42-.014-.784-.027-.994a5.245,5.245,0,0,0-.1-.813h1.163a7.052,7.052,0,0,0-.07.8c-.014.238-.014.589-.014,1h.294c1.737,0,3.376,0,4.006.014v.938c-.771-.042-2-.07-4.02-.07Zm-.616,3.124a1.284,1.284,0,0,0-1.3-.967,1.46,1.46,0,0,0-1.457,1.514,1.377,1.377,0,0,0,1.471,1.428C307.575,179.4,308.107,178.724,308.01,177.421Z"/><path d="M318.83,181.329a2.109,2.109,0,1,1-2.115-2.1A2.1,2.1,0,0,1,318.83,181.329Zm-.659,0a1.45,1.45,0,1,0-1.456,1.457A1.452,1.452,0,0,0,318.171,181.329Z"/><path d="M99.815,223.866a1.443,1.443,0,1,1-1.442,1.443A1.441,1.441,0,0,1,99.815,223.866Z"/><path d="M118.956,221.863a3.962,3.962,0,0,0-.308.7,13.635,13.635,0,0,1-2.48,4.847,12.4,12.4,0,0,1-5.561,3.8l-.91-.826a11.315,11.315,0,0,0,5.589-3.53,11.559,11.559,0,0,0,2.269-4.468H112.7a13.593,13.593,0,0,1-3.558,3.459l-.868-.644a11.559,11.559,0,0,0,4.412-4.762,5.708,5.708,0,0,0,.406-1.051l1.148.378c-.21.35-.434.785-.574,1.037-.112.223-.238.448-.378.686h3.964a2.355,2.355,0,0,0,.869-.127Z"/><path d="M125.126,220.154c-.028.252-.042.687-.042.994v4.665c0,.365.014.813.042,1.051h-1.163a8.865,8.865,0,0,0,.07-1.051v-4.665c0-.252-.028-.742-.056-.994Zm6.485-.1c-.028.337-.042.715-.042,1.176V223.4c0,3.432-.434,4.51-1.443,5.715a7.25,7.25,0,0,1-3.319,2.045l-.813-.854a6.518,6.518,0,0,0,3.362-1.891c1.009-1.177,1.177-2.325,1.177-5.057v-2.13c0-.461-.042-.839-.07-1.176Z"/><path d="M139.546,226.458l-.952.364a25.732,25.732,0,0,0-1.247-3.152l.924-.364C138.538,223.88,139.28,225.743,139.546,226.458Zm7.032-3.1c-.084.252-.154.462-.2.63a11.177,11.177,0,0,1-1.989,4.343,10.683,10.683,0,0,1-4.553,3.291l-.826-.84a9.393,9.393,0,0,0,4.538-2.97,9.857,9.857,0,0,0,1.961-4.8Zm-3.964,2.255-.925.336a24.358,24.358,0,0,0-1.078-3.025l.924-.323C141.759,223.166,142.446,225.015,142.614,225.617Z"/><path d="M160.956,221.863a4.04,4.04,0,0,0-.309.7,13.628,13.628,0,0,1-2.478,4.847,12.406,12.406,0,0,1-5.562,3.8l-.91-.826a11.315,11.315,0,0,0,5.589-3.53,11.576,11.576,0,0,0,2.27-4.468h-4.862a13.572,13.572,0,0,1-3.557,3.459l-.868-.644a11.559,11.559,0,0,0,4.412-4.762,5.708,5.708,0,0,0,.406-1.051l1.148.378c-.21.35-.433.785-.574,1.037-.112.223-.238.448-.378.686h3.964a2.346,2.346,0,0,0,.868-.127Z"/><path d="M171.44,222.3c0,.812.014,1.682.028,2.311a3.458,3.458,0,0,1,.434,1.751c0,1.892-.882,3.937-4.076,4.9l-.868-.84c1.9-.448,3.18-1.261,3.7-2.577a1.861,1.861,0,0,1-1.259.433,2.2,2.2,0,0,1-2.27-2.3,2.391,2.391,0,0,1,2.395-2.381,2.473,2.473,0,0,1,1,.2l-.014-1.484c-2.115.013-4.511.112-6.248.238l-.027-.981c1.541-.028,4.145-.112,6.26-.14-.013-.42-.013-.784-.027-.994a5.245,5.245,0,0,0-.1-.813h1.163a7.052,7.052,0,0,0-.07.8c-.014.238-.014.589-.014,1h.294c1.738,0,3.376,0,4.006.014v.938c-.77-.042-2-.07-4.019-.07Zm-.616,3.124a1.283,1.283,0,0,0-1.3-.967,1.461,1.461,0,0,0-1.457,1.514,1.377,1.377,0,0,0,1.471,1.428C170.39,227.4,170.922,226.724,170.824,225.421Z"/><path d="M187.233,220.9c-.238.168-.532.365-.728.519-.673.5-2.606,2.227-3.712,3.151a5.779,5.779,0,0,1,1.989-.307c2.3,0,3.936,1.372,3.936,3.221,0,2.255-1.891,3.656-4.748,3.656-1.877,0-2.985-.826-2.985-1.933a1.922,1.922,0,0,1,2.088-1.765,2.742,2.742,0,0,1,2.829,2.479,2.516,2.516,0,0,0,1.822-2.437c0-1.386-1.387-2.409-3.166-2.409-2.312,0-3.558.952-5.366,2.759l-.727-.756c1.176-.967,2.969-2.479,3.781-3.152.771-.644,2.536-2.143,3.25-2.759-.742.027-3.628.168-4.342.195-.308.029-.6.042-.9.085l-.029-1.05a7.313,7.313,0,0,0,.939.055c.714,0,4.048-.112,4.776-.181a4.172,4.172,0,0,0,.7-.113Zm-2.241,9.259a1.942,1.942,0,0,0-1.933-1.919c-.659,0-1.149.379-1.149.9,0,.7.841,1.106,1.919,1.106A7.438,7.438,0,0,0,184.992,230.155Z"/><path d="M201.85,222.27c-.294.168-.617.349-1.009.545a45.579,45.579,0,0,0-4.273,2.34c-1.316.855-2.087,1.779-2.087,2.843,0,1.177,1.107,1.919,3.348,1.919a21.012,21.012,0,0,0,4.427-.462l-.015,1.121a26.749,26.749,0,0,1-4.37.336c-2.577,0-4.426-.784-4.426-2.8,0-1.4.882-2.535,2.409-3.586a45.033,45.033,0,0,1-2.017-4.3l.98-.407a31.445,31.445,0,0,0,1.877,4.161c1.331-.813,2.9-1.555,3.67-2a7.726,7.726,0,0,0,.939-.618Z"/><path d="M210.61,221.919a18.8,18.8,0,0,1-1.316,6.094,10.337,10.337,0,0,1,1.639,1.512l-.561.743a11.262,11.262,0,0,0-1.484-1.443,7.441,7.441,0,0,1-2.745,2.9,3.7,3.7,0,0,0-.575-.757,6.38,6.38,0,0,0,2.591-2.7c-.5-.378-1.051-.743-1.568-1.065l-.168.616-.785-.406c.364-1.2.8-2.956,1.2-4.721h-1.36v-.854h1.556c.224-1.023.434-2.031.6-2.913l.882.1c-.168.868-.377,1.834-.6,2.815h1.961l.169-.028Zm-2.884.77c-.295,1.29-.618,2.564-.912,3.684.561.322,1.164.7,1.738,1.093a16.64,16.64,0,0,0,1.12-4.777Zm8.389-1.61a15.876,15.876,0,0,1,2.27,3.726l-.784.462c-.113-.294-.267-.644-.449-1.008-2.3.168-4.665.349-6.332.448l-.111-.9,1.106-.057a35.642,35.642,0,0,0,1.667-4.832l1.009.224c-.49,1.443-1.149,3.236-1.751,4.552,1.2-.07,2.577-.168,3.964-.252a18.172,18.172,0,0,0-1.331-1.989Zm-4.44,4.986h5.912v5.576h-.925v-.589h-4.1v.644h-.883Zm.883.855V230.2h4.1V226.92Z"/><path d="M230.284,230.422a10.124,10.124,0,0,0-3.432-2.1c.014.379.028.687.028.911,0,.924-.588,1.933-2.4,1.933-1.961,0-3.053-.7-3.053-2.017,0-1.233,1.2-2.073,3.194-2.073a6.942,6.942,0,0,1,1.219.1c-.029-.658-.057-1.359-.071-1.961h-.8c-.966,0-2.494-.084-3.5-.2v-.953a26.819,26.819,0,0,0,3.516.252h.756v-2.1c-.224.015-.462.015-.7.015a30.319,30.319,0,0,1-3.306-.21v-.925a22.4,22.4,0,0,0,3.292.265h.728v-.952a6.723,6.723,0,0,0-.056-.812h1.065c-.028.238-.056.49-.07.91,0,.169-.014.463-.014.827a31.848,31.848,0,0,0,3.614-.364l.014.938c-1.135.113-2.326.224-3.628.281v2.1a35.6,35.6,0,0,0,3.894-.378v.952c-1.331.169-2.563.267-3.88.323.028.743.07,1.512.1,2.185a11.64,11.64,0,0,1,4.062,2.186Zm-4.413-2.367a7.352,7.352,0,0,0-1.372-.141c-1.387,0-2.13.532-2.13,1.191s.561,1.163,2,1.163c.813,0,1.514-.239,1.514-1.233C225.886,228.783,225.871,228.433,225.871,228.055Z"/><path d="M237.532,219.664a26.663,26.663,0,0,0-.658,4.02c.532-1.5,2.017-3.32,3.81-3.32,1.835,0,3.137,1.849,3.137,4.735,0,3.838-2.437,5.505-5.827,6.121l-.588-.9c2.984-.448,5.379-1.708,5.379-5.2,0-2.213-.728-3.853-2.256-3.853-1.736,0-3.375,2.522-3.557,4.343a5.576,5.576,0,0,0,.028,1.737l-.98.084a16.532,16.532,0,0,1-.141-2.185,35.459,35.459,0,0,1,.434-4.482c.056-.435.084-.827.113-1.149Z"/><path d="M258.284,230.422a10.124,10.124,0,0,0-3.432-2.1c.014.379.028.687.028.911,0,.924-.588,1.933-2.4,1.933-1.961,0-3.053-.7-3.053-2.017,0-1.233,1.2-2.073,3.194-2.073a6.942,6.942,0,0,1,1.219.1c-.029-.658-.057-1.359-.071-1.961h-.8c-.966,0-2.494-.084-3.5-.2v-.953a26.819,26.819,0,0,0,3.516.252h.756v-2.1c-.224.015-.462.015-.7.015a30.319,30.319,0,0,1-3.306-.21v-.925a22.4,22.4,0,0,0,3.292.265h.728v-.952a6.723,6.723,0,0,0-.056-.812h1.065c-.028.238-.056.49-.07.91,0,.169-.014.463-.014.827a31.848,31.848,0,0,0,3.614-.364l.014.938c-1.135.113-2.326.224-3.628.281v2.1a35.6,35.6,0,0,0,3.894-.378v.952c-1.331.169-2.563.267-3.88.323.028.743.07,1.512.1,2.185a11.64,11.64,0,0,1,4.062,2.186Zm-4.413-2.367a7.352,7.352,0,0,0-1.372-.141c-1.387,0-2.13.532-2.13,1.191s.561,1.163,2,1.163c.813,0,1.514-.239,1.514-1.233C253.886,228.783,253.871,228.433,253.871,228.055Z"/><path d="M269.44,222.3c0,.812.014,1.682.028,2.311a3.458,3.458,0,0,1,.434,1.751c0,1.892-.882,3.937-4.076,4.9l-.868-.84c1.9-.448,3.18-1.261,3.7-2.577a1.861,1.861,0,0,1-1.259.433,2.2,2.2,0,0,1-2.27-2.3,2.391,2.391,0,0,1,2.4-2.381,2.473,2.473,0,0,1,1,.2l-.014-1.484c-2.115.013-4.511.112-6.248.238l-.027-.981c1.541-.028,4.145-.112,6.26-.14-.013-.42-.013-.784-.027-.994a5.245,5.245,0,0,0-.1-.813h1.163a7.052,7.052,0,0,0-.07.8c-.014.238-.014.589-.014,1h.294c1.738,0,3.376,0,4.006.014v.938c-.77-.042-2-.07-4.019-.07Zm-.616,3.124a1.283,1.283,0,0,0-1.3-.967,1.461,1.461,0,0,0-1.457,1.514,1.377,1.377,0,0,0,1.471,1.428C268.39,227.4,268.922,226.724,268.824,225.421Z"/></g></svg>