<svg xmlns="http://www.w3.org/2000/svg" viewBox="0 0 351 100"><title>txt</title><g id="テキスト"><path d="M130.391,12.058c-.216.467-.468,1.332-.684,1.979,4.319,1.3,7.02,4.536,7.02,8.567,0,5.076-3.241,9.719-11.7,11.051l-1.908-2.988c6.624-.72,10.08-4.1,10.08-8.242,0-2.448-1.549-4.644-4.5-5.58A28.74,28.74,0,0,1,121,28.076c.252.972.54,1.907.828,2.772l-3.275.971c-.18-.54-.361-1.116-.5-1.727a12.537,12.537,0,0,1-5.8,1.727c-2.483,0-4.5-1.511-4.5-4.823,0-4.571,3.924-9.359,8.854-11.627.073-1.655.216-3.311.361-4.859h-1.729c-1.691,0-4.463-.144-5.974-.252l-.108-3.312a56.678,56.678,0,0,0,6.191.468h1.944L117.541,5a17.476,17.476,0,0,0,.071-1.872l3.743.108a16.963,16.963,0,0,0-.431,1.692c-.144.683-.287,1.511-.432,2.376A67.517,67.517,0,0,0,132.8,5.8l.035,3.311A114.933,114.933,0,0,1,120.1,10.4c-.108,1.224-.215,2.52-.324,3.852a23,23,0,0,1,5.687-.792,9.093,9.093,0,0,1,1.008.036,13.433,13.433,0,0,0,.4-2.3Zm-13.1,14.722a44.525,44.525,0,0,1-.793-8.027c-3.131,1.943-5.363,5.111-5.363,7.595,0,1.332.576,1.98,1.836,1.98A8.538,8.538,0,0,0,117.289,26.78Zm2.375-8.6a37.249,37.249,0,0,0,.54,6.227,23.3,23.3,0,0,0,5.327-8.027h-.216a18.567,18.567,0,0,0-5.651.936Z"/><path d="M161.748,10.906a70.78,70.78,0,0,1-7.164,1.188c-.324,1.548-.72,3.132-1.115,4.643a106.963,106.963,0,0,1-5.615,16.414l-3.96-1.332c2.159-3.635,4.715-10.978,6.047-15.982.325-1.079.612-2.268.864-3.419-1.008.036-1.944.072-2.844.072-1.656,0-2.951-.072-4.247-.144l-.072-3.528A33,33,0,0,0,148,9.106c1.116,0,2.3-.036,3.564-.144.179-1.044.36-1.98.431-2.627A17.023,17.023,0,0,0,152.1,3.1l4.355.324c-.252.9-.54,2.34-.684,3.06l-.432,2.087a61.127,61.127,0,0,0,6.408-1.223Zm-1.117,12.13a13.5,13.5,0,0,0-.5,3.1c0,1.62.865,3.059,5.4,3.059a39.965,39.965,0,0,0,7.127-.719l-.107,3.635a48.934,48.934,0,0,1-7.057.5c-5.8,0-8.782-1.908-8.782-5.435a23.6,23.6,0,0,1,.54-4.463Zm-1.4-8.782a62.164,62.164,0,0,1,6.658-.36,59.572,59.572,0,0,1,6.226.324l-.107,3.419a51.329,51.329,0,0,0-6.047-.432,58.408,58.408,0,0,0-6.73.36Z"/><path d="M188.568,3.311a61.837,61.837,0,0,0-1.547,8.819c1.547-3.276,5-7.091,9.288-7.091,4.859,0,8.459,4.787,8.459,12.454,0,9.935-6.229,14.506-15.3,16.162l-2.16-3.24c7.81-1.224,13.642-4.1,13.642-12.922,0-5.543-1.836-9.179-5.256-9.179-4.318,0-8.279,6.408-8.566,11.087a16.119,16.119,0,0,0,.107,4.1l-3.49.253a42.572,42.572,0,0,1-.434-5.76,93.393,93.393,0,0,1,1.081-11.482c.144-1.188.252-2.412.289-3.348Z"/><path d="M226.691,28.939a3.28,3.28,0,1,1,3.278,3.132A3.154,3.154,0,0,1,226.691,28.939Zm.758-19.293-.109-4.751h5.291l-.108,4.751-1.08,13.247h-2.951Z"/></g></svg>