<svg xmlns="http://www.w3.org/2000/svg" viewBox="0 0 351 100"><title>txt</title><g id="テキスト"><path d="M132.379,6.261l4.067.828c-.252.9-.575,2.267-.719,3.059a82.125,82.125,0,0,1-3.2,11.051,51.366,51.366,0,0,1-5.292,10.078l-3.922-1.655a47.092,47.092,0,0,0,5.579-9.863A54.744,54.744,0,0,0,132.379,6.261Zm9.035.792,3.708-1.224c1.476,2.7,3.851,7.919,5.291,11.555,1.368,3.419,3.275,9.034,4.283,12.454l-4.139,1.332a105.1,105.1,0,0,0-3.923-12.526A96.044,96.044,0,0,0,141.414,7.053Z"/><path d="M185.621,7.881a11.841,11.841,0,0,0-1.044,1.836,50.188,50.188,0,0,1-5.9,10.294,95.669,95.669,0,0,1,10.295,10.547l-3.2,2.771a80.319,80.319,0,0,0-9.5-10.475A46.069,46.069,0,0,1,162.4,33.186l-2.916-3.06a40.371,40.371,0,0,0,14.794-10.511,29.586,29.586,0,0,0,5.724-9.5H166.8c-1.4,0-3.348.18-3.924.216V6.261a38.517,38.517,0,0,0,3.924.252H180.15a10.668,10.668,0,0,0,3.131-.4L184.686,7.2a41.443,41.443,0,0,0-2.592-4.463l2.34-.971a54.721,54.721,0,0,1,2.879,4.93l-2.051.9ZM188.717.5A47.949,47.949,0,0,1,191.669,5.4l-2.34,1.044a39.9,39.9,0,0,0-2.916-4.966Z"/><path d="M200.563,30.09a3.964,3.964,0,0,0,.4-2.016V7.952a21.4,21.4,0,0,0-.324-3.635H205.1a23.354,23.354,0,0,0-.325,3.6V27.606c6.48-1.728,14.651-6.407,19.186-12.094l2.052,3.168C221.226,24.547,213.774,28.9,205.027,31.6a6.254,6.254,0,0,0-1.8.755Z"/></g></svg>