<svg xmlns="http://www.w3.org/2000/svg" viewBox="0 0 400 300"><defs><style>.cls-1{fill:#e6e6e6;}</style></defs><title>test-introduction</title><g id="固定背景"><rect class="cls-1" width="400" height="300"/></g><g id="テキスト"><path d="M147.746,50.852c2.915,5.8,7.811,11.123,13.21,13.858a15.216,15.216,0,0,0-2.519,2.952c-5.148-2.916-9.576-7.991-12.743-13.822v9.61h6.444v3.384h-6.444v6.371h-3.528V66.834h-6.587V63.45h6.587V53.876A36.569,36.569,0,0,1,129.5,67.77,19.329,19.329,0,0,0,127.12,65c5.22-2.771,10.079-8.279,13.03-14.146H128.38V47.469h13.786V40.2h3.528v7.272h13.93v3.383Z"/><path d="M184.789,52.832a36.232,36.232,0,0,0,12.023,5.8,12.79,12.79,0,0,0-2.2,2.808c-.971-.325-1.979-.684-2.952-1.117V73.133h-3.347V72.089H171.976v1.188h-3.241V60.211c-1.115.54-2.267,1.008-3.347,1.4a12.959,12.959,0,0,0-2.123-2.592,35.779,35.779,0,0,0,11.626-6.19H164.2V50.024h7.379a21.654,21.654,0,0,0-2.376-4.068l1.908-.72c-1.4.073-2.807.109-4.175.145a10.585,10.585,0,0,0-.684-2.592c8.531-.252,18.645-1.044,24.369-2.231l2.159,2.411a101.3,101.3,0,0,1-11.266,1.584v5.471h4.5l-1.153-.36a36.09,36.09,0,0,0,2.7-5.4l3.634.971c-1.044,1.693-2.159,3.493-3.095,4.788h7.7v2.808Zm4.859,6.515a33.024,33.024,0,0,1-8.134-5.831v5.219H178.2V53.659a36.312,36.312,0,0,1-7.81,5.688Zm-11.337,2.628h-6.335v2.519h6.335ZM171.976,69.5h6.335V66.8h-6.335ZM178.2,44.841c-1.943.143-3.923.252-5.867.359a17.261,17.261,0,0,1,2.519,4.248l-1.475.576H178.2Zm10.115,17.134h-6.839v2.519h6.839Zm0,7.523V66.8h-6.839v2.7Z"/><path d="M204.124,46.137c2.592-.252,8.963-.865,15.514-1.405,3.78-.323,7.38-.54,9.791-.611l.036,3.635a34.162,34.162,0,0,0-6.947.5,11.786,11.786,0,0,0-7.847,10.691c0,6.515,6.047,8.639,11.914,8.927l-1.3,3.815c-6.982-.36-14.29-4.1-14.29-11.95a14.121,14.121,0,0,1,6.012-11.555c-3.1.325-11.843,1.188-15.839,2.052l-.36-3.924C202.181,46.28,203.4,46.208,204.124,46.137Zm23.253,10.51-2.231,1.008a34.132,34.132,0,0,0-2.88-5.04l2.16-.935A50.433,50.433,0,0,1,227.377,56.647Zm4.1-1.656-2.195,1.08a33.722,33.722,0,0,0-3.024-4.967l2.16-.972A56.307,56.307,0,0,1,231.48,54.991Z"/><path d="M267.3,49.521c-2.124-.109-5.472-.181-10.655-.181.036,1.908.036,4,.036,5.579a8.739,8.739,0,0,1,1.259,4.752c0,4.751-2.519,10.331-10.978,12.778l-3.06-3.023c4.176-.937,7.451-2.484,9.179-5.148a6.073,6.073,0,0,1-8.494-5.723,6.455,6.455,0,0,1,6.658-6.408,6.981,6.981,0,0,1,1.981.252l-.037-3.023c-5.4.072-11.23.288-15.658.576l-.108-3.456c4.032-.035,10.655-.252,15.73-.323-.036-.756-.036-1.4-.072-1.8-.071-.9-.18-2.088-.288-2.592h4.1c-.071.468-.179,2.088-.179,2.592-.036.432-.036,1.044-.036,1.764h10.655ZM251.246,61.65c1.836,0,3.2-1.475,2.736-4.859a2.912,2.912,0,0,0-2.771-1.655,3.2,3.2,0,0,0-3.2,3.347A3.1,3.1,0,0,0,251.246,61.65Z"/><path d="M65.785,105.021a1.443,1.443,0,1,1-1.442,1.443A1.442,1.442,0,0,1,65.785,105.021Z"/><path d="M83.455,111.815c1.359,0,1.569-.392,1.737-2.129a2.677,2.677,0,0,0,.911.35c-.224,2.031-.617,2.648-2.648,2.648H77.9c-2.186,0-2.858-.378-2.858-1.99v-6.345c-.322.266-.644.533-1,.785a2.34,2.34,0,0,0-.687-.658,13.37,13.37,0,0,0,4.063-4.427l1.036.2c-.153.252-.321.518-.5.784h3.586l.183-.055.63.391A13.879,13.879,0,0,1,81,103.522H85.01v5.015h-.924v-.63h-8.11v2.8c0,.882.28,1.106,1.835,1.106Zm-6.079-9.973a17.465,17.465,0,0,1-1.457,1.68h3.992a12,12,0,0,0,1.121-1.68Zm-1.4,5.211h3.46v-2.676h-3.46Zm8.11-2.676H80.359v2.676h3.727Z"/><path d="M90.647,112.529a22.481,22.481,0,0,0-3.109-3.109l.813-.729a26.669,26.669,0,0,1,3.151,3.124Z"/><path d="M107.449,106.408v6.43h-.91v-6.43h-2.395c-.042,2.354-.407,4.664-2.074,6.514a3.712,3.712,0,0,0-.686-.631c1.527-1.681,1.835-3.768,1.89-5.883h-1.848v-.868h1.863v-3.712h-1.653v-.869h7.158v.869h-1.345v3.712h1.541v.868Zm-.91-.868v-3.712h-2.382v3.712Zm7.746,2.731a12.568,12.568,0,0,1-5.365,4.581,3.32,3.32,0,0,0-.658-.756,11.111,11.111,0,0,0,5.154-4.161Zm-.757-7.592a14.081,14.081,0,0,1-4.006,3.278,3.719,3.719,0,0,0-.672-.645,12.194,12.194,0,0,0,3.81-2.983Zm.42,3.824a15.32,15.32,0,0,1-4.3,3.53,4.869,4.869,0,0,0-.658-.658,13.532,13.532,0,0,0,4.1-3.222Z"/><path d="M118.647,112.529a22.432,22.432,0,0,0-3.11-3.109l.813-.729a26.676,26.676,0,0,1,3.152,3.124Z"/><path d="M141.3,103.522a16.3,16.3,0,0,1-1.765,5.688,6.892,6.892,0,0,0,2.76,2.829,3.645,3.645,0,0,0-.673.8,7.7,7.7,0,0,1-2.661-2.746,9.09,9.09,0,0,1-3.306,2.773,5.348,5.348,0,0,0-.434-.672l-.266.281a13.328,13.328,0,0,0-1.682-1.121,7.73,7.73,0,0,1-3.418,1.485,2.152,2.152,0,0,0-.433-.784,7.2,7.2,0,0,0,3.039-1.135c-.49-.252-.981-.477-1.485-.687l-.238.407-.8-.309c.322-.546.7-1.261,1.078-2H129.4v-.784h2.018c.21-.435.42-.855.588-1.232l.393.084v-2.088a9.041,9.041,0,0,1-2.537,2.172,2.822,2.822,0,0,0-.517-.7,7.493,7.493,0,0,0,2.773-2.311h-2.647v-.784H132.4v-2.606h.868v2.606h2.871v.784h-2.871v.112c.6.35,2.129,1.33,2.507,1.61l-.518.673c-.364-.337-1.3-1.05-1.989-1.541v2.143h-.533l.14.028c-.153.336-.322.687-.5,1.051h3.838v.784h-1.261a5.494,5.494,0,0,1-1.05,2.409,11.745,11.745,0,0,1,1.681,1.065,7.871,7.871,0,0,0,2.9-2.633,18.1,18.1,0,0,1-1.317-4.091,10.172,10.172,0,0,1-1.093,1.905,5.562,5.562,0,0,0-.756-.616,14.227,14.227,0,0,0,2.311-6.289l.939.14a21.774,21.774,0,0,1-.546,2.437h4.145v.868Zm-10.394-.952a6.894,6.894,0,0,0-.9-1.835l.715-.308a6.736,6.736,0,0,1,.923,1.821Zm1.065,5.757c-.21.42-.42.826-.63,1.2.588.239,1.19.5,1.751.784a4.606,4.606,0,0,0,.938-1.989Zm3.8-7.592c-.406.63-.869,1.359-1.247,1.821l-.63-.308a12.39,12.39,0,0,0,1.065-1.877Zm1.961,2.871a19.681,19.681,0,0,0,1.289,4.595,15.567,15.567,0,0,0,1.317-4.679H137.76Z"/><path d="M148.664,100.959c-.042.238-.1.5-.153.757-.057.406-.2,1.274-.365,2.073.672-.057,1.275-.1,1.625-.1,1.191,0,2.213.449,2.213,2.3a13.217,13.217,0,0,1-.812,4.987,1.9,1.9,0,0,1-1.989,1.134,8.32,8.32,0,0,1-1.625-.2l-.168-1.064a6.513,6.513,0,0,0,1.709.308,1.206,1.206,0,0,0,1.247-.728,11.758,11.758,0,0,0,.658-4.315c0-1.3-.589-1.527-1.471-1.527-.35,0-.938.042-1.583.1a28.007,28.007,0,0,1-2.928,7.452L144,111.731a22.409,22.409,0,0,0,2.928-6.948c-.757.071-1.471.155-1.85.183-.322.042-.84.111-1.19.168l-.113-1.107a11.285,11.285,0,0,0,1.192,0c.475-.014,1.3-.085,2.171-.154a16.354,16.354,0,0,0,.364-3.025Zm4.763,1.625a23,23,0,0,1,2.563,4.9l-.967.463A16.622,16.622,0,0,0,152.517,103Zm.728.183a15.413,15.413,0,0,0-1.148-1.948l.686-.294a19.981,19.981,0,0,1,1.162,1.933Zm1.555-.561a11.653,11.653,0,0,0-1.177-1.934l.687-.293a18.4,18.4,0,0,1,1.19,1.918Z"/><path d="M160.186,110.092c.685,1.065,1.96,1.555,3.641,1.611,1.527.07,4.721.028,6.36-.07a2.972,2.972,0,0,0-.294.911c-1.541.056-4.511.084-6.052.027a4.989,4.989,0,0,1-4.034-1.68c-.63.616-1.275,1.218-1.961,1.821l-.5-.883c.588-.462,1.316-1.051,1.961-1.653v-3.712h-1.822v-.882h2.705Zm-.5-6.905a10.243,10.243,0,0,0-2.045-2.242l.714-.5a10.159,10.159,0,0,1,2.1,2.2Zm6.121,6.835h-4.987v-.7h1.78v-1.092h-1.36v-.7H165.8v-.811h-3.838v-2.4h6.569v2.4h-1.862v.811H169.6v.7h-2.928v1.092h3.291v.7h-3.291v1.233H165.8Zm4.175-6.429h-9.148v-.7h2.69c.112-.323.238-.673.35-1.051h-2.143v-.687h2.367c.112-.378.224-.742.322-1.078l.9.111c-.084.309-.2.631-.294.967h3.25v1.738h1.709Zm-7.172,2.493h4.818v-1.135h-4.818Zm3,3.235v-1.092h-2.367v1.092Zm-1.008-7.479c-.126.378-.253.742-.364,1.051h2.983v-1.051Z"/><path d="M178.485,105.035a12.679,12.679,0,0,0-3.809.715,10.942,10.942,0,0,0-1.15.392l-.322-1.163a8.249,8.249,0,0,0,1.234-.209,18.181,18.181,0,0,1,4.131-.673c1.934,0,3.405,1.079,3.405,3.026,0,3.011-2.676,4.692-6.234,5.238l-.589-.952c3.348-.434,5.758-1.793,5.758-4.328A2.143,2.143,0,0,0,178.485,105.035Zm2.382-3.473-.154.966c-1.527-.1-4.286-.379-5.842-.658l.154-.953A40.4,40.4,0,0,0,180.867,101.562Z"/><path d="M188.241,111.114c3.292-2.633,5.575-4.845,5.575-6.653a2.06,2.06,0,0,0-2.241-2.157,3.674,3.674,0,0,0-2.76,1.541l-.742-.658a4.624,4.624,0,0,1,3.558-1.835c2.017,0,3.334,1.176,3.334,3.082,0,2.087-2.171,4.257-4.875,6.443.56-.028,1.093-.07,1.639-.07h3.74v.98h-7.228Z"/><path d="M201.4,104.139a22.26,22.26,0,0,1,5.926-1.387c2.255,0,4.076,1.317,4.076,3.6,0,3.361-3.376,4.9-7.55,5.14l-.434-1.051c3.613-.1,6.892-1.19,6.892-4.1a2.682,2.682,0,0,0-3-2.648c-2.326,0-5.912,1.555-6.934,1.961l-.462-1.12A12.211,12.211,0,0,0,201.4,104.139Z"/><path d="M219.631,111.171a8.413,8.413,0,0,0,1.163-.168,4.226,4.226,0,0,0,3.586-4.175,3.932,3.932,0,0,0-3.839-4.076,27.091,27.091,0,0,1-.812,4.034c-.854,2.858-1.947,4.286-3.194,4.286-1.177,0-2.409-1.386-2.409-3.67a5.858,5.858,0,0,1,6.009-5.574,4.976,4.976,0,0,1,5.267,5.042c0,2.9-1.933,4.833-5.2,5.239Zm-.9-4.609a21.621,21.621,0,0,0,.785-3.8,4.924,4.924,0,0,0-4.413,4.566c0,1.807.855,2.591,1.471,2.591S218.006,109,218.734,106.562Z"/><path d="M230.115,110.106c.687,1.065,1.961,1.555,3.656,1.625,1.555.056,4.8.014,6.458-.084a3,3,0,0,0-.309.882c-1.54.057-4.566.084-6.121.029a5.035,5.035,0,0,1-4.062-1.681c-.6.616-1.247,1.219-1.92,1.835l-.49-.855c.589-.462,1.289-1.079,1.919-1.667v-3.726h-1.765v-.882h2.634Zm-.42-6.822a9.631,9.631,0,0,0-2.115-2.394l.714-.477a9.8,9.8,0,0,1,2.171,2.339Zm10.366,5.59h-9.33v-.743h2.578v-1.4h-2.116V106h2.116v-1.064h.854V106h2.424v-1.064h.882V106h2.143v.728h-2.143v1.4h2.592Zm-5.982-7.551h-3.054v-.672h3.853v2.311h-2.816v.8c0,.252.07.308.546.308h1.583c.35,0,.42-.084.462-.728a1.751,1.751,0,0,0,.7.265c-.1.9-.336,1.135-1.037,1.135h-1.793c-.994,0-1.247-.2-1.247-.98V102.29h2.8Zm.519,8.027a12.148,12.148,0,0,1-2.76,1.835,3.533,3.533,0,0,0-.687-.588,9.2,9.2,0,0,0,2.606-1.528Zm-.435-1.219h2.424v-1.4h-2.424Zm4.427-6.808h-3v-.672h3.824v2.311h-2.773v.785c0,.266.084.322.574.322h1.751c.364,0,.434-.1.476-.785a2.073,2.073,0,0,0,.7.28c-.084.939-.336,1.177-1.065,1.177h-1.934c-1.022,0-1.3-.2-1.3-.98V102.29h2.746Zm.336,9.9a12.74,12.74,0,0,0-2.592-1.7l.659-.434a16.893,16.893,0,0,1,2.816,1.709Z"/><path d="M246.553,107.108c-.673.183-1.373.365-2.046.533v4.034c0,.589-.153.841-.518,1a6.318,6.318,0,0,1-2.045.168,2.681,2.681,0,0,0-.295-.855c.786.028,1.471.014,1.667.014s.294-.084.294-.308v-3.824c-.742.2-1.442.378-2.058.532l-.239-.924c.645-.126,1.429-.308,2.3-.519v-3.138h-2.129v-.854h2.129v-2.871h.9v2.871h1.947v.854h-1.947v2.914l1.962-.476Zm4.328-.686c.546,2.536,1.681,4.692,3.529,5.632a4.466,4.466,0,0,0-.658.8c-2-1.135-3.193-3.488-3.8-6.43h-1.863c-.07,2.115-.462,4.679-2.143,6.416a4.18,4.18,0,0,0-.715-.616c1.78-1.85,1.948-4.5,1.948-6.584V100.89h6.443v5.532Zm-2.774-4.664v3.782h4.609v-3.782Z"/><path d="M260.132,111.7c0,.519-.111.813-.462.981a5.53,5.53,0,0,1-1.807.154,3.787,3.787,0,0,0-.3-.883c.673.028,1.261.014,1.444.014s.265-.07.265-.266v-3.6H257.12a13.561,13.561,0,0,1-1.064,4.748,2.694,2.694,0,0,0-.756-.449c.966-1.961,1.05-4.748,1.05-6.807v-5h3.782Zm-.855-4.482v-2.48H257.2v.855c0,.5-.014,1.05-.027,1.625Zm-2.073-5.743v2.4h2.073v-2.4Zm10.338,4.02a11.192,11.192,0,0,1-2.661,4.636,8.73,8.73,0,0,0,3.418,1.92,3.789,3.789,0,0,0-.631.784,9.539,9.539,0,0,1-3.445-2.073,11.546,11.546,0,0,1-3.376,2.073,3.27,3.27,0,0,0-.561-.813,9.836,9.836,0,0,0,3.306-1.933,11.307,11.307,0,0,1-2.143-3.739l.7-.225h-1.428v-.855h3.011v-2.086h-3.194v-.855h3.194v-2.255h.924v2.255h3.363v.855h-3.363v2.086h2.1l.168-.042Zm-5.253.63a9.637,9.637,0,0,0,1.947,3.348,9.608,9.608,0,0,0,2.129-3.348Z"/><path d="M274.664,100.959c-.042.238-.1.5-.153.757-.057.406-.2,1.274-.365,2.073.672-.057,1.275-.1,1.625-.1,1.191,0,2.213.449,2.213,2.3a13.217,13.217,0,0,1-.812,4.987,1.9,1.9,0,0,1-1.989,1.134,8.32,8.32,0,0,1-1.625-.2l-.168-1.064a6.513,6.513,0,0,0,1.709.308,1.206,1.206,0,0,0,1.247-.728,11.758,11.758,0,0,0,.658-4.315c0-1.3-.589-1.527-1.471-1.527-.35,0-.938.042-1.583.1a28.007,28.007,0,0,1-2.928,7.452L270,111.731a22.409,22.409,0,0,0,2.928-6.948c-.757.071-1.471.155-1.85.183-.322.042-.84.111-1.19.168l-.113-1.107a11.285,11.285,0,0,0,1.192,0c.475-.014,1.3-.085,2.171-.154a16.354,16.354,0,0,0,.364-3.025Zm4.763,1.625a23,23,0,0,1,2.563,4.9l-.967.463A16.622,16.622,0,0,0,278.517,103Zm.728.183a15.413,15.413,0,0,0-1.148-1.948l.686-.294a19.981,19.981,0,0,1,1.162,1.933Zm1.555-.561a11.653,11.653,0,0,0-1.177-1.934l.687-.293a18.4,18.4,0,0,1,1.19,1.918Z"/><path d="M295.22,107.1v5.715h-.952v-.855h-8.923v.883h-.91V107.1h.91v3.95h3.908V106.17h-4.3v-4.748h.925v3.838h3.376v-5.114h.938v5.114h3.516v-3.853h.953v4.763h-4.469v4.875h4.077V107.1Z"/><path d="M308.254,111.577a10.113,10.113,0,0,0-3.433-2.1c.015.378.029.686.029.911,0,.924-.588,1.932-2.4,1.932-1.961,0-3.054-.7-3.054-2.016,0-1.234,1.205-2.074,3.2-2.074a6.923,6.923,0,0,1,1.218.1c-.028-.658-.056-1.358-.07-1.961h-.8c-.965,0-2.493-.084-3.5-.2v-.952a27.021,27.021,0,0,0,3.517.252h.756v-2.1c-.224.015-.462.015-.7.015a30.319,30.319,0,0,1-3.306-.21v-.925a22.381,22.381,0,0,0,3.292.266h.728v-.952a6.725,6.725,0,0,0-.056-.813h1.064c-.027.238-.055.49-.069.91,0,.169-.015.463-.015.827a31.615,31.615,0,0,0,3.615-.364l.013.939c-1.135.112-2.325.223-3.628.28v2.1a35.135,35.135,0,0,0,3.895-.378v.953c-1.331.169-2.564.266-3.88.322.027.743.069,1.513.1,2.185a11.65,11.65,0,0,1,4.062,2.186Zm-4.413-2.367a7.361,7.361,0,0,0-1.372-.141c-1.387,0-2.13.533-2.13,1.192s.56,1.162,2,1.162c.812,0,1.513-.238,1.513-1.233C303.855,109.938,303.841,109.588,303.841,109.21Z"/><path d="M319.41,103.452c0,.813.014,1.682.028,2.312a3.453,3.453,0,0,1,.434,1.751c0,1.891-.883,3.936-4.076,4.9l-.868-.84c1.9-.448,3.179-1.261,3.7-2.577a1.864,1.864,0,0,1-1.26.434,2.2,2.2,0,0,1-2.269-2.3,2.391,2.391,0,0,1,2.395-2.382,2.468,2.468,0,0,1,.994.2l-.013-1.484c-2.116.013-4.511.112-6.248.238l-.028-.98c1.541-.029,4.146-.113,6.261-.141-.014-.42-.014-.784-.027-.994a5.245,5.245,0,0,0-.1-.813h1.163a7.052,7.052,0,0,0-.07.8c-.014.238-.014.589-.014.995h.294c1.737,0,3.376,0,4.006.014v.938c-.771-.042-2-.07-4.02-.07Zm-.616,3.124a1.285,1.285,0,0,0-1.3-.967,1.46,1.46,0,0,0-1.457,1.514,1.378,1.378,0,0,0,1.471,1.429C318.359,108.552,318.892,107.879,318.794,106.576Z"/><path d="M329.614,110.484a2.109,2.109,0,1,1-2.115-2.1A2.1,2.1,0,0,1,329.614,110.484Zm-.659,0a1.45,1.45,0,1,0-1.456,1.457A1.451,1.451,0,0,0,328.955,110.484Z"/><path d="M65.785,129.021a1.443,1.443,0,1,1-1.442,1.443A1.442,1.442,0,0,1,65.785,129.021Z"/><path d="M83.217,127.774c-.294.183-.6.351-.994.561a39.323,39.323,0,0,0-3.909,2.144c-1.316.868-2.086,1.792-2.086,2.857,0,1.177,1.106,1.919,3.347,1.919A20.15,20.15,0,0,0,84,134.793l-.015,1.12a26.647,26.647,0,0,1-4.37.336c-2.577,0-4.427-.784-4.427-2.8,0-1.415.883-2.55,2.411-3.6-.631-1.12-1.373-2.774-2.018-4.273l.98-.42A31.013,31.013,0,0,0,78.44,129.3c1.248-.757,2.578-1.387,3.334-1.822a6.707,6.707,0,0,0,.939-.616Zm.3-2.787a18.7,18.7,0,0,1,1.148,1.933l-.7.309a15.351,15.351,0,0,0-1.135-1.948Zm1.512-.546a16.585,16.585,0,0,1,1.191,1.905l-.687.322a12.617,12.617,0,0,0-1.176-1.933Z"/><path d="M97.707,127.187a45.524,45.524,0,0,1-5.645.587,25.337,25.337,0,0,1-.91,3.418,6.259,6.259,0,0,1,3.978-1.26c2.2,0,3.46,1.134,3.46,2.717,0,2.858-2.942,3.937-7.1,3.489l-.266-1c3.236.434,6.345-.14,6.345-2.465,0-1.079-.868-1.877-2.535-1.877a5.292,5.292,0,0,0-4.146,1.667,3.028,3.028,0,0,0-.448.643l-.911-.336a22.6,22.6,0,0,0,1.6-4.972h-.1c-.91,0-1.793-.071-2.577-.14l-.013-.98a18.438,18.438,0,0,0,2.577.21h.294c.07-.379.126-.7.154-.954a6.169,6.169,0,0,0,.07-1.106l1.12.07c-.1.336-.168.756-.238,1.107-.042.224-.084.518-.153.854a33.08,33.08,0,0,0,5.434-.658Z"/><path d="M104.563,131.347a6.621,6.621,0,0,1,4.567-1.738c2.073,0,3.5,1.247,3.5,2.872,0,2.465-2.255,4.105-7.284,3.684l-.308-1.022c4.412.532,6.541-.771,6.541-2.7,0-1.134-1.064-1.933-2.507-1.933a5.414,5.414,0,0,0-4.356,1.877,2.37,2.37,0,0,0-.406.686l-.953-.238a49.7,49.7,0,0,0,.7-5.589l1.078.141C104.956,128.349,104.718,130.437,104.563,131.347Zm.939-6.444a39.843,39.843,0,0,0,5.337,1.065l-.238.967c-1.3-.168-4.3-.786-5.351-1.08Z"/><path d="M120.875,124.917c-.057.238-.112.5-.154.771-.071.392-.21,1.26-.365,2.059.672-.057,1.275-.1,1.625-.1,1.191,0,2.213.449,2.213,2.3a13.332,13.332,0,0,1-.812,5,1.935,1.935,0,0,1-1.989,1.135,8.153,8.153,0,0,1-1.625-.21l-.168-1.064a6.319,6.319,0,0,0,1.709.307,1.205,1.205,0,0,0,1.247-.727,12.038,12.038,0,0,0,.672-4.315c0-1.3-.6-1.527-1.5-1.527-.35,0-.939.042-1.583.1a27.41,27.41,0,0,1-2.914,7.452l-1.037-.407a22.663,22.663,0,0,0,2.943-6.948c-.757.084-1.471.155-1.849.2-.309.028-.855.1-1.2.154l-.1-1.107a11.285,11.285,0,0,0,1.192,0c.462-.014,1.3-.085,2.171-.154a16.311,16.311,0,0,0,.35-3.025Zm4.762,1.513a24.079,24.079,0,0,1,2.563,4.917l-.966.476a17.065,17.065,0,0,0-2.507-4.987Z"/><path d="M136.023,133.924c.042-.546.056-1.5.056-2.241-1.331.7-2.3,1.457-2.3,2.409,0,1.149,1.149,1.289,2.591,1.289a24.328,24.328,0,0,0,3.769-.322l-.042,1.022a35.675,35.675,0,0,1-3.769.225c-1.946,0-3.544-.407-3.544-2.074,0-1.611,1.64-2.647,3.264-3.488a1.175,1.175,0,0,0-1.288-.924,3.585,3.585,0,0,0-2.424,1.036c-.392.378-.8.883-1.261,1.429l-.868-.644a14.369,14.369,0,0,0,3.222-4.3h-.659c-.587,0-1.5-.029-2.269-.084V126.3a20.019,20.019,0,0,0,2.325.14c.309,0,.616,0,.953-.014a7.515,7.515,0,0,0,.364-1.737l1.023.084a13.908,13.908,0,0,1-.421,1.625,32.064,32.064,0,0,0,4.287-.421v.939a39.875,39.875,0,0,1-4.623.392,9.827,9.827,0,0,1-1.316,2.27,3.881,3.881,0,0,1,1.974-.561,1.742,1.742,0,0,1,1.835,1.29c1.009-.477,1.892-.813,2.648-1.177.392-.168.715-.322,1.064-.5l.406.938c-.321.1-.784.281-1.148.421-.813.323-1.835.729-2.913,1.246.014.8.027,2,.042,2.69Z"/><path d="M146.115,134.106c.687,1.065,1.961,1.555,3.656,1.625,1.555.056,4.8.014,6.458-.084a3,3,0,0,0-.309.882c-1.54.057-4.566.084-6.121.029a5.035,5.035,0,0,1-4.062-1.681c-.6.616-1.247,1.219-1.92,1.835l-.49-.855c.589-.462,1.289-1.079,1.919-1.667v-3.726h-1.765v-.882h2.634Zm-.42-6.822a9.631,9.631,0,0,0-2.115-2.394l.714-.477a9.8,9.8,0,0,1,2.171,2.339Zm10.366,5.59h-9.33v-.743h2.578v-1.4h-2.116V130h2.116v-1.064h.854V130h2.424v-1.064h.882V130h2.143v.728h-2.143v1.4h2.592Zm-5.982-7.551h-3.054v-.672h3.853v2.311h-2.816v.8c0,.252.07.308.546.308h1.583c.35,0,.42-.084.462-.728a1.751,1.751,0,0,0,.7.265c-.1.9-.336,1.135-1.037,1.135h-1.793c-.994,0-1.247-.2-1.247-.98V126.29h2.8Zm.519,8.027a12.148,12.148,0,0,1-2.76,1.835,3.533,3.533,0,0,0-.687-.588,9.2,9.2,0,0,0,2.606-1.528Zm-.435-1.219h2.424v-1.4h-2.424Zm4.427-6.808h-3v-.672h3.824v2.311h-2.773v.785c0,.266.084.322.574.322h1.751c.364,0,.434-.1.476-.785a2.073,2.073,0,0,0,.7.28c-.084.939-.336,1.177-1.065,1.177h-1.934c-1.022,0-1.3-.2-1.3-.98V126.29h2.746Zm.336,9.9a12.74,12.74,0,0,0-2.592-1.695l.659-.434a16.893,16.893,0,0,1,2.816,1.709Z"/><path d="M164.023,125.926c-.6.952-2,3.488-2.731,4.86a3.041,3.041,0,0,1,2.115-.91,1.569,1.569,0,0,1,1.624,1.667c.029.854.015,1.919.057,2.6a1.026,1.026,0,0,0,1.148,1.023c1.612,0,2.535-1.961,2.9-3.39l.826.658c-.742,2.213-1.891,3.754-3.88,3.754a1.744,1.744,0,0,1-1.961-1.722c-.042-.827-.014-1.892-.056-2.676a.956.956,0,0,0-1.05-.994c-1.149,0-2.228,1.148-2.774,2.241a22.837,22.837,0,0,0-1.219,3.151l-1.078-.364a101.521,101.521,0,0,1,4.931-10.016c.168-.322.321-.629.476-1.007l1.121.447A5.6,5.6,0,0,0,164.023,125.926Z"/><path d="M173.177,126.57c.854-.084,3.544-.35,6.093-.56,1.527-.14,2.788-.21,3.7-.239l.013,1a11.431,11.431,0,0,0-2.716.223,4.975,4.975,0,0,0-3.222,4.469c0,2.787,2.591,3.642,4.832,3.726l-.364,1.037c-2.493-.084-5.463-1.429-5.463-4.539a5.606,5.606,0,0,1,2.662-4.748c-1.219.139-5.142.517-6.626.826l-.126-1.12C172.49,126.626,172.91,126.6,173.177,126.57Zm8.992,3.909-.658.307a12.724,12.724,0,0,0-1.149-1.989l.645-.279A17.528,17.528,0,0,1,182.169,130.479Zm1.583-.6-.658.322a13.764,13.764,0,0,0-1.191-1.961l.63-.308A17.253,17.253,0,0,1,183.752,129.876Z"/><path d="M194.545,125.449c-.267.21-.687.574-.9.757-.966.855-3,2.465-4.034,3.334-.854.729-.869.952.056,1.709,1.3,1.036,3.851,3.165,5.2,4.524l-.883.8c-.266-.307-.63-.658-.91-.952-.757-.826-3.11-2.83-4.413-3.894-1.3-1.079-1.135-1.681.084-2.717,1.037-.869,3.18-2.55,4.118-3.517a5.135,5.135,0,0,0,.743-.882Z"/><path d="M206.766,127.705a27.54,27.54,0,0,1-2.914.476c-.126.6-.28,1.247-.434,1.849a39.882,39.882,0,0,1-2.172,6.345l-1.106-.364a31.1,31.1,0,0,0,2.311-6.2c.126-.476.252-1.009.378-1.541-.475.042-.938.056-1.345.056-.6,0-1.091-.014-1.6-.056l-.029-.981a12.293,12.293,0,0,0,1.654.112c.462,0,.966-.028,1.512-.07.1-.532.183-.994.225-1.288a5.01,5.01,0,0,0,.056-1.093l1.2.1c-.084.295-.183.8-.239,1.064l-.224,1.122a23.141,23.141,0,0,0,2.718-.519Zm-.6,4.916a5.039,5.039,0,0,0-.21,1.261c0,.658.309,1.317,2.367,1.317a14.014,14.014,0,0,0,2.69-.266l-.042,1.022a18.165,18.165,0,0,1-2.661.2c-2.158,0-3.292-.658-3.292-2.031a8.848,8.848,0,0,1,.2-1.6Zm-.266-3.361c.714-.057,1.611-.113,2.507-.113a21.988,21.988,0,0,1,2.4.113l-.029.967a17.264,17.264,0,0,0-2.325-.169c-.854,0-1.709.056-2.549.14Zm3.909-1.583a17.312,17.312,0,0,0-1.15-1.948l.673-.293a17.56,17.56,0,0,1,1.162,1.932Zm1.049-2.8a16.693,16.693,0,0,1,1.192,1.919l-.687.322a12.89,12.89,0,0,0-1.176-1.947Z"/><path d="M224.59,127.326c-.869.225-1.793.435-2.648.574.476,1.093,1.246,2.76,1.877,3.937l-.6.6c-.561-.112-1.933-.308-2.816-.392l.1-.813c.547.042,1.556.155,2.031.21-.42-.9-1.148-2.423-1.568-3.4a28.581,28.581,0,0,1-5.911.042l-.029-1.009a23.931,23.931,0,0,0,5.547.084l-.49-1.093a9.434,9.434,0,0,0-.574-1.133l1.135-.211c.336.967.6,1.569.91,2.3a17.729,17.729,0,0,0,2.857-.687Zm-7.859,4.217a5.3,5.3,0,0,0-.406,1.765c0,1.26.9,2,2.984,2a14.582,14.582,0,0,0,3.614-.378l-.014,1.036a18.065,18.065,0,0,1-3.614.308c-2.55,0-3.964-1.022-3.964-2.731a7.831,7.831,0,0,1,.378-2.1Z"/><path d="M229.751,127.368a31.947,31.947,0,0,0,.112,3.334c.224,2.382.939,3.937,1.947,3.937.714,0,1.386-1.4,1.751-2.844l.812.883c-.826,2.339-1.681,3.137-2.591,3.137-1.261,0-2.521-1.3-2.9-4.875-.127-1.19-.154-2.871-.154-3.683a7.072,7.072,0,0,0-.084-1.2l1.218.028A11.93,11.93,0,0,0,229.751,127.368Zm9.819,5.856-1.008.392a13.654,13.654,0,0,0-2.4-6.807l.967-.337A14.405,14.405,0,0,1,239.57,133.224Z"/><path d="M245.614,134.484a2.109,2.109,0,1,1-2.115-2.1A2.1,2.1,0,0,1,245.614,134.484Zm-.659,0a1.45,1.45,0,1,0-1.456,1.457A1.451,1.451,0,0,0,244.955,134.484Z"/><path d="M65.785,153.021a1.443,1.443,0,1,1-1.442,1.443A1.442,1.442,0,0,1,65.785,153.021Z"/><path d="M80.275,153.035H84.87v7.83H83.9v-.616h-9.44v-.924H83.9V157H75.177v-.9H83.9V153.96H74.729v-.925h4.552v-4.958h.994Zm-3.893-.756a13.33,13.33,0,0,0-1.821-3.221l.826-.351a13.537,13.537,0,0,1,1.877,3.18Zm8.67-3.347a34.072,34.072,0,0,1-2.045,3.46l-.771-.337a21.378,21.378,0,0,0,1.835-3.474Z"/><path d="M95.187,151.509c-.925.2-1.934.364-2.915.476-.126.6-.28,1.246-.434,1.849a40.121,40.121,0,0,1-2.171,6.331l-1.106-.364a30.524,30.524,0,0,0,2.311-6.2c.126-.462.252-.994.378-1.527-.49.042-.938.056-1.345.056-.6,0-1.093-.028-1.6-.056l-.029-.98a12.071,12.071,0,0,0,1.654.1c.462,0,.965-.029,1.512-.071.1-.532.182-.98.224-1.274a5.144,5.144,0,0,0,.057-1.107l1.2.1c-.084.294-.182.8-.239,1.064l-.223,1.122a23.141,23.141,0,0,0,2.718-.519Zm-.6,4.9a5.039,5.039,0,0,0-.21,1.261c0,.673.308,1.331,2.367,1.331a15.141,15.141,0,0,0,2.69-.267l-.042,1.009a18.18,18.18,0,0,1-2.662.2c-2.158,0-3.291-.658-3.291-2.031a8.642,8.642,0,0,1,.195-1.583Zm-.267-3.361c.715-.057,1.612-.112,2.508-.112a21.928,21.928,0,0,1,2.4.125l-.029.953a17.459,17.459,0,0,0-2.325-.168,22.08,22.08,0,0,0-2.55.154Z"/><path d="M105.5,148.819a26.683,26.683,0,0,0-.658,4.02c.532-1.5,2.016-3.319,3.809-3.319,1.835,0,3.138,1.848,3.138,4.734,0,3.838-2.437,5.5-5.827,6.121l-.588-.9c2.983-.449,5.379-1.708,5.379-5.2,0-2.213-.729-3.852-2.255-3.852-1.737,0-3.376,2.521-3.559,4.342a5.616,5.616,0,0,0,.029,1.738l-.981.084a16.782,16.782,0,0,1-.139-2.186,35.284,35.284,0,0,1,.433-4.482c.057-.435.084-.826.113-1.149Z"/><path d="M117.177,150.57c.854-.084,3.544-.35,6.093-.56,1.527-.14,2.788-.21,3.7-.239l.013,1a11.431,11.431,0,0,0-2.716.223,4.975,4.975,0,0,0-3.222,4.469c0,2.787,2.591,3.642,4.832,3.726l-.364,1.037c-2.493-.084-5.463-1.429-5.463-4.539a5.606,5.606,0,0,1,2.662-4.748c-1.219.139-5.142.517-6.626.826l-.126-1.12C116.49,150.626,116.91,150.6,117.177,150.57Zm8.992,3.909-.658.307a12.724,12.724,0,0,0-1.149-1.989l.645-.279A17.528,17.528,0,0,1,126.169,154.479Zm1.583-.6-.658.322a13.764,13.764,0,0,0-1.191-1.961l.63-.308A17.253,17.253,0,0,1,127.752,153.876Z"/><path d="M133.528,158.835h2.3v-7.858h-1.806v-.743a5.9,5.9,0,0,0,2.073-.7h.868v9.3h2.087v.952h-5.519Z"/><path d="M140.667,154.618c0-3.557,1.219-5.266,3.152-5.266s3.123,1.722,3.123,5.266c0,3.586-1.2,5.351-3.123,5.351S140.667,158.2,140.667,154.618Zm5.169,0c0-3-.813-4.342-2.017-4.342s-2.046,1.345-2.046,4.342c0,3.054.828,4.427,2.046,4.427S145.836,157.672,145.836,154.618Z"/><path d="M151.811,160.445a8.408,8.408,0,0,0,1.918-2.815l.883.224a9.676,9.676,0,0,1-1.961,3Zm10.982-3.712h-9.26v-4.37h4.049v-4.286h.924v1.54h5.337v.883h-5.337v1.863h4.287Zm-.939-3.5h-7.438v2.634h7.438Zm-4.987,4.679a14.659,14.659,0,0,1,.351,2.676l-.939.126a14.688,14.688,0,0,0-.308-2.732Zm2.844-.112a13.2,13.2,0,0,1,1.036,2.676l-.9.21a14.115,14.115,0,0,0-.981-2.69Zm2.815-.238a15.209,15.209,0,0,1,1.877,2.8l-.882.365a14.664,14.664,0,0,0-1.807-2.858Z"/><path d="M169.019,160.529a22.542,22.542,0,0,0-3.11-3.109l.812-.729a26.6,26.6,0,0,1,3.152,3.124Z"/><path d="M182.7,149.155c-.07.21-.168.616-.224.868a33.7,33.7,0,0,0-.686,5.632,15.087,15.087,0,0,0,.14,2.087c.224-.673.574-1.554.812-2.129l.533.42c-.336.939-.841,2.354-.981,3.026a3.059,3.059,0,0,0-.07.6c.014.14.042.336.056.477l-.9.055a16.616,16.616,0,0,1-.519-4.37,41.091,41.091,0,0,1,.645-5.855,7.365,7.365,0,0,0,.084-.91Zm9.119,10.03a10.634,10.634,0,0,0-2.171-1.625v.35a2.053,2.053,0,0,1-2.353,2.213c-1.85,0-2.844-.742-2.844-1.961,0-1.106,1.009-2.045,2.816-2.045a6.856,6.856,0,0,1,1.358.14c-.056-1.107-.126-2.507-.14-3.684-.461.029-.938.042-1.4.042-.785,0-1.5-.055-2.3-.1l-.013-.939c.784.069,1.526.111,2.338.111.463,0,.912-.013,1.373-.027,0-.715-.013-1.345,0-1.751,0-.253-.028-.6-.055-.841h1.134c-.042.281-.07.546-.084.813-.028.392-.028,1.078-.042,1.722a19.956,19.956,0,0,0,2.437-.322v.967c-.77.126-1.6.21-2.437.28.014,1.387.112,2.816.168,4.021a9.477,9.477,0,0,1,2.746,1.82Zm-3.166-2.045a5.02,5.02,0,0,0-1.457-.224c-1.092,0-1.835.49-1.835,1.162,0,.715.7,1.135,1.738,1.135,1.232,0,1.568-.6,1.568-1.555C188.663,157.518,188.663,157.336,188.649,157.14Z"/><path d="M201.669,150.71c1.737,0,3.376.015,4.02.015l-.014.938c-.771-.042-1.989-.057-4.02-.057h-.266c0,.8.013,1.667.028,2.3a3.45,3.45,0,0,1,.434,1.751c0,1.905-.882,3.95-4.077,4.916l-.868-.84c1.919-.448,3.194-1.275,3.712-2.6a1.936,1.936,0,0,1-1.274.448,2.19,2.19,0,0,1-2.27-2.3,2.4,2.4,0,0,1,2.4-2.38,2.679,2.679,0,0,1,.98.181c0-.42,0-.952-.013-1.471-2.1.029-4.5.113-6.234.252l-.028-.98c1.527-.027,4.146-.126,6.247-.153,0-.421-.014-.786-.027-1a5.754,5.754,0,0,0-.084-.812h1.148c-.014.141-.057.645-.057.812-.013.225-.013.575-.013.981Zm-.91,4.007a1.268,1.268,0,0,0-1.289-.967,1.459,1.459,0,0,0-1.457,1.513,1.384,1.384,0,0,0,1.457,1.442C200.338,156.705,200.856,156.02,200.759,154.717Zm3-4.076a17.021,17.021,0,0,0-1.036-1.724l.7-.308c.336.462.77,1.191,1.064,1.709Zm1.667-.365a11.86,11.86,0,0,0-1.036-1.709l.7-.308a17.611,17.611,0,0,1,1.064,1.7Z"/><path d="M220.726,158.61a3.543,3.543,0,0,1-2.536,1.177,1.483,1.483,0,0,1-1.512-1.695c0-1.555.532-3.865.532-5.238a1.006,1.006,0,0,0-1.148-1.149c-1.135,0-2.831,1.288-4.133,2.7-.042.6-.056,1.191-.056,1.7,0,1.288-.014,2.086.042,3.3.014.238.042.56.07.813h-1.092c.013-.183.042-.561.042-.785,0-1.345.013-1.989.028-3.474,0-.2.014-.477.027-.8-.686,1.036-1.638,2.409-2.353,3.4l-.63-.868c.77-.967,2.395-3.194,3.082-4.259.042-.475.069-.965.1-1.428-.617.084-1.835.252-2.732.379l-.112-1.038a5.805,5.805,0,0,0,.854-.028c.449-.027,1.317-.111,2.06-.237.042-.673.069-1.192.069-1.345a6.209,6.209,0,0,0-.055-1l1.205.042c-.071.322-.169,1.121-.281,2.115l.084-.028.392.448c-.168.253-.406.616-.6.939-.028.3-.042.589-.07.882,1.064-.994,2.871-2.38,4.272-2.38a1.711,1.711,0,0,1,1.919,1.835c0,1.386-.532,3.837-.532,5.238,0,.476.224.869.756.869a3.126,3.126,0,0,0,2.144-1.177Z"/><path d="M223.548,150.57c.854-.084,3.544-.35,6.093-.56,1.527-.14,2.788-.21,3.7-.239l.014,1a11.435,11.435,0,0,0-2.717.223,4.975,4.975,0,0,0-3.222,4.469c0,2.787,2.591,3.642,4.832,3.726l-.364,1.037c-2.493-.084-5.463-1.429-5.463-4.539a5.606,5.606,0,0,1,2.662-4.748c-1.219.139-5.142.517-6.626.826l-.126-1.12C222.861,150.626,223.281,150.6,223.548,150.57Zm8.992,3.909-.658.307a12.724,12.724,0,0,0-1.149-1.989l.645-.279A17.528,17.528,0,0,1,232.54,154.479Zm1.583-.6-.658.322a13.764,13.764,0,0,0-1.191-1.961l.63-.308A17.253,17.253,0,0,1,234.123,153.876Z"/><path d="M239.353,154.618c0-3.557,1.218-5.266,3.152-5.266s3.123,1.722,3.123,5.266c0,3.586-1.2,5.351-3.123,5.351S239.353,158.2,239.353,154.618Zm5.168,0c0-3-.812-4.342-2.016-4.342s-2.046,1.345-2.046,4.342c0,3.054.827,4.427,2.046,4.427S244.521,157.672,244.521,154.618Z"/><path d="M250.5,160.445a8.41,8.41,0,0,0,1.919-2.815l.883.224a9.711,9.711,0,0,1-1.961,3Zm10.983-3.712h-9.26v-4.37h4.049v-4.286h.923v1.54h5.337v.883h-5.337v1.863h4.288Zm-.939-3.5H253.1v2.634h7.438Zm-4.987,4.679a14.65,14.65,0,0,1,.35,2.676l-.938.126a14.612,14.612,0,0,0-.309-2.732Zm2.843-.112a13.265,13.265,0,0,1,1.037,2.676l-.9.21a14.038,14.038,0,0,0-.98-2.69Zm2.816-.238a15.26,15.26,0,0,1,1.877,2.8l-.882.365a14.625,14.625,0,0,0-1.808-2.858Z"/><path d="M266.233,150.57c.855-.084,3.544-.35,6.093-.56,1.528-.14,2.788-.21,3.7-.239l.014,1a11.435,11.435,0,0,0-2.717.223,4.975,4.975,0,0,0-3.221,4.469c0,2.787,2.59,3.642,4.832,3.726l-.365,1.037c-2.493-.084-5.463-1.429-5.463-4.539a5.607,5.607,0,0,1,2.663-4.748c-1.219.139-5.142.517-6.626.826l-.126-1.12C265.547,150.626,265.967,150.6,266.233,150.57Zm8.993,3.909-.659.307a12.641,12.641,0,0,0-1.148-1.989l.644-.279A17.376,17.376,0,0,1,275.226,154.479Zm1.583-.6-.659.322a13.758,13.758,0,0,0-1.19-1.961l.63-.308A17.4,17.4,0,0,1,276.809,153.876Z"/><path d="M286.467,151.452c0,.813.013,1.682.027,2.312a3.453,3.453,0,0,1,.435,1.751c0,1.891-.883,3.936-4.076,4.9l-.869-.84c1.905-.448,3.18-1.261,3.7-2.577a1.864,1.864,0,0,1-1.26.434,2.2,2.2,0,0,1-2.27-2.3,2.392,2.392,0,0,1,2.4-2.382,2.468,2.468,0,0,1,.994.2l-.014-1.484c-2.115.013-4.51.112-6.248.238l-.027-.98c1.541-.029,4.145-.113,6.261-.141-.014-.42-.014-.784-.028-.994a5.141,5.141,0,0,0-.1-.813h1.163a6.823,6.823,0,0,0-.071.8c-.013.238-.013.589-.013,1h.294c1.737,0,3.376,0,4.006.014v.938c-.771-.042-2-.07-4.02-.07Zm-.616,3.124a1.285,1.285,0,0,0-1.3-.967,1.46,1.46,0,0,0-1.457,1.514,1.378,1.378,0,0,0,1.471,1.429C285.416,156.552,285.948,155.879,285.851,154.576Z"/><path d="M296.671,158.484a2.109,2.109,0,1,1-2.115-2.1A2.105,2.105,0,0,1,296.671,158.484Zm-.659,0a1.45,1.45,0,1,0-1.456,1.457A1.452,1.452,0,0,0,296.012,158.484Z"/><path d="M65.785,177.021a1.443,1.443,0,1,1-1.442,1.443A1.442,1.442,0,0,1,65.785,177.021Z"/><path d="M80.136,172.062a18.276,18.276,0,0,0,6.107,5.24,4.878,4.878,0,0,0-.631.812,21.27,21.27,0,0,1-5.883-5.127,18.693,18.693,0,0,1-5.771,5.211,2.737,2.737,0,0,0-.574-.728,16.972,16.972,0,0,0,5.827-5.408Zm.084,11.529h5.533v.854H73.888v-.854h5.379v-2.4h-4.23v-.84h4.23v-2.283H75.639v-.841H84v.841H80.22v2.283h4.3v.84h-4.3Z"/><path d="M87.426,177.512h7.2v.854h-7.2Zm7-3.026H87.79v-.812h2.857v-1.541h.883v1.541h2.9Zm-6.052,5.155h5.435v5.127h-.9v-.757H89.261v.841h-.883Zm.911-2.339a9.448,9.448,0,0,0-.616-2.3l.77-.168a8.524,8.524,0,0,1,.659,2.283Zm-.028,3.166v2.717h3.656v-2.717Zm2.647-3.307a23.5,23.5,0,0,0,.813-2.436l.883.223c-.3.826-.645,1.78-.954,2.409Zm8.279-3.851c-.575,1.316-1.317,2.927-1.975,4.215a4.553,4.553,0,0,1,1.82,3.418,2.008,2.008,0,0,1-.672,1.78,1.948,1.948,0,0,1-.91.307,7.279,7.279,0,0,1-1.233.015,2.162,2.162,0,0,0-.266-.925,8.354,8.354,0,0,0,1.149.028,1.263,1.263,0,0,0,.616-.168c.308-.168.406-.616.406-1.121-.014-.9-.42-1.961-1.891-3.208.63-1.217,1.275-2.731,1.723-3.865H96.125v11.052h-.9V172.917h4.145l.154-.042Z"/><path d="M103.177,174.57c.854-.084,3.544-.35,6.094-.56,1.526-.14,2.787-.21,3.7-.239l.014,1a11.435,11.435,0,0,0-2.717.223,4.975,4.975,0,0,0-3.222,4.469c0,2.787,2.592,3.642,4.833,3.726l-.364,1.037c-2.494-.084-5.463-1.429-5.463-4.539a5.605,5.605,0,0,1,2.661-4.748c-1.219.139-5.141.517-6.626.826l-.126-1.12C102.49,174.626,102.911,174.6,103.177,174.57Zm8.993,3.909-.658.307a12.729,12.729,0,0,0-1.15-1.989l.645-.279A17.68,17.68,0,0,1,112.17,178.479Zm1.583-.6-.659.322a13.764,13.764,0,0,0-1.191-1.961l.631-.308A17.4,17.4,0,0,1,113.753,177.876Z"/><path d="M119.528,182.835h2.3v-7.858h-1.806v-.743a5.9,5.9,0,0,0,2.073-.7h.868v9.3h2.087v.952h-5.519Z"/><path d="M126.667,178.618c0-3.557,1.219-5.266,3.152-5.266s3.123,1.722,3.123,5.266c0,3.586-1.2,5.351-3.123,5.351S126.667,182.2,126.667,178.618Zm5.169,0c0-3-.813-4.342-2.017-4.342s-2.046,1.345-2.046,4.342c0,3.054.828,4.427,2.046,4.427S131.836,181.672,131.836,178.618Z"/><path d="M134.353,178.618c0-3.557,1.218-5.266,3.152-5.266s3.123,1.722,3.123,5.266c0,3.586-1.2,5.351-3.123,5.351S134.353,182.2,134.353,178.618Zm5.168,0c0-3-.812-4.342-2.016-4.342s-2.046,1.345-2.046,4.342c0,3.054.827,4.427,2.046,4.427S139.521,181.672,139.521,178.618Z"/><path d="M157.641,172.665v12.158h-.981v-.742H147v.742h-.938V172.665ZM156.66,183.2V173.6H147V183.2Zm-2.171-7.312V180.9h-5.35v-5.014Zm-.925.826h-3.543v3.349h3.543Z"/><path d="M168.644,176.924a3.381,3.381,0,0,1,2.773,3.264c0,1.988-1.345,3.683-4.524,4.2l-.547-.855c2.466-.266,4.091-1.541,4.091-3.4a2.526,2.526,0,0,0-2.088-2.423,11.833,11.833,0,0,1-3.081,4.538c.1.393.21.771.322,1.121l-.911.28c-.084-.252-.154-.518-.238-.812a4.73,4.73,0,0,1-2.368.8,1.531,1.531,0,0,1-1.61-1.7c0-1.792,1.583-3.627,3.474-4.482.028-.715.1-1.429.154-2.088-.309.015-.616.015-.91.015-.576,0-1.654-.057-2.2-.084l-.028-.967a18.716,18.716,0,0,0,2.241.168c.336,0,.659,0,.994-.014.042-.434.084-.812.113-1.121a5.283,5.283,0,0,0,.028-.616l1.065.028a3.665,3.665,0,0,0-.141.588c-.056.294-.126.673-.182,1.093a28.772,28.772,0,0,0,4.875-.574l.014.938a43.952,43.952,0,0,1-5,.519c-.056.559-.1,1.162-.14,1.778a8.788,8.788,0,0,1,2.368-.378c.181,0,.364.014.545.029l.057-.225a6.051,6.051,0,0,0,.14-.714l1.009.238c-.084.182-.183.5-.252.714Zm-4.749,1.484a4.5,4.5,0,0,0-2.48,3.376c0,.588.28.883.813.883a3.69,3.69,0,0,0,2-.785,16.74,16.74,0,0,1-.335-3.123Zm3.557-.841h-.265a6.76,6.76,0,0,0-2.4.449c-.014.211-.014.434-.014.644a13.822,13.822,0,0,0,.252,2.55A9.358,9.358,0,0,0,167.452,177.567Z"/><path d="M177.559,172.819a26.563,26.563,0,0,0-.659,4.02c.533-1.5,2.017-3.319,3.81-3.319,1.835,0,3.138,1.848,3.138,4.734,0,3.838-2.438,5.5-5.827,6.121l-.588-.9c2.983-.449,5.379-1.708,5.379-5.2,0-2.213-.729-3.852-2.256-3.852-1.737,0-3.375,2.521-3.558,4.342a5.614,5.614,0,0,0,.028,1.738l-.98.084a16.724,16.724,0,0,1-.141-2.186,35.268,35.268,0,0,1,.435-4.482c.056-.435.084-.826.112-1.149Z"/><path d="M198.311,183.577a10.113,10.113,0,0,0-3.433-2.1c.015.378.028.686.028.911,0,.924-.588,1.932-2.4,1.932-1.961,0-3.054-.7-3.054-2.016,0-1.234,1.205-2.074,3.194-2.074a6.934,6.934,0,0,1,1.219.1c-.028-.658-.057-1.358-.07-1.961H193c-.966,0-2.493-.084-3.5-.2v-.952a27,27,0,0,0,3.517.252h.755v-2.1c-.223.015-.461.015-.7.015a30.316,30.316,0,0,1-3.305-.21v-.925a22.381,22.381,0,0,0,3.292.266h.727v-.952a6.527,6.527,0,0,0-.056-.813h1.065c-.027.238-.056.49-.069.91,0,.169-.015.463-.015.827a31.6,31.6,0,0,0,3.614-.364l.014.939c-1.135.112-2.325.223-3.628.28v2.1a35.117,35.117,0,0,0,3.894-.378v.953c-1.331.169-2.563.266-3.879.322.027.743.069,1.513.1,2.185a11.646,11.646,0,0,1,4.063,2.186ZM193.9,181.21a7.352,7.352,0,0,0-1.372-.141c-1.386,0-2.129.533-2.129,1.192s.56,1.162,2,1.162c.813,0,1.514-.238,1.514-1.233C193.912,181.938,193.9,181.588,193.9,181.21Z"/><path d="M209.467,175.452c0,.813.013,1.682.027,2.312a3.453,3.453,0,0,1,.435,1.751c0,1.891-.883,3.936-4.076,4.9l-.869-.84c1.905-.448,3.18-1.261,3.7-2.577a1.864,1.864,0,0,1-1.26.434,2.2,2.2,0,0,1-2.27-2.3,2.392,2.392,0,0,1,2.4-2.382,2.468,2.468,0,0,1,.994.2l-.014-1.484c-2.115.013-4.51.112-6.248.238l-.027-.98c1.541-.029,4.145-.113,6.261-.141-.014-.42-.014-.784-.028-.994a5.141,5.141,0,0,0-.1-.813h1.163a6.823,6.823,0,0,0-.071.8c-.013.238-.013.589-.013,1h.294c1.737,0,3.376,0,4.006.014v.938c-.771-.042-2-.07-4.02-.07Zm-.616,3.124a1.285,1.285,0,0,0-1.3-.967,1.46,1.46,0,0,0-1.457,1.514,1.378,1.378,0,0,0,1.471,1.429C208.416,180.552,208.948,179.879,208.851,178.576Z"/><path d="M219.671,182.484a2.109,2.109,0,1,1-2.115-2.1A2.105,2.105,0,0,1,219.671,182.484Zm-.659,0a1.45,1.45,0,1,0-1.456,1.457A1.452,1.452,0,0,0,219.012,182.484Z"/><path d="M65.785,201.021a1.443,1.443,0,1,1-1.442,1.443A1.442,1.442,0,0,1,65.785,201.021Z"/><path d="M77.4,199.509a14.66,14.66,0,0,1-1.134,1.709v7.62h-.9v-6.556a14.18,14.18,0,0,1-1.723,1.611,4.814,4.814,0,0,0-.5-.869,13.351,13.351,0,0,0,3.459-3.824Zm-.154-3.04a13.719,13.719,0,0,1-3.362,3.305,3.943,3.943,0,0,0-.5-.755,10.9,10.9,0,0,0,2.983-2.886Zm8.839,8.516H83.974v2.8c0,.532-.126.784-.519.925a7.249,7.249,0,0,1-2.129.153,2.871,2.871,0,0,0-.308-.854c.827.028,1.541.028,1.737.014.224-.014.28-.07.28-.252v-2.788H77.32v-.826h5.715V202.9H77.643v-.8h8.208v.8H83.974v1.261h2.115Zm-.939-3.908H78.539v-4.552H85.15Zm-5.9,4.189a10.732,10.732,0,0,1,1.779,1.975l-.7.5A12.118,12.118,0,0,0,78.6,205.7Zm4.959-8.013H79.436v1.191h4.776Zm0,1.892H79.436v1.218h4.776Z"/><path d="M87.439,208.445a8.383,8.383,0,0,0,1.92-2.815l.882.224a9.676,9.676,0,0,1-1.961,3Zm10.983-3.712H89.163v-4.37h4.048v-4.286h.925v1.54h5.337v.883H94.136v1.863h4.286Zm-.939-3.5H90.045v2.634h7.438ZM92.5,205.91a14.738,14.738,0,0,1,.35,2.676l-.939.126a14.765,14.765,0,0,0-.307-2.732Zm2.843-.112a13.325,13.325,0,0,1,1.037,2.676l-.9.21a14.175,14.175,0,0,0-.98-2.69Zm2.815-.238a15.209,15.209,0,0,1,1.877,2.8l-.882.365a14.616,14.616,0,0,0-1.807-2.858Z"/><path d="M106.665,196.959c-.042.238-.1.5-.154.757-.057.406-.2,1.274-.365,2.073.672-.057,1.275-.1,1.625-.1,1.191,0,2.213.449,2.213,2.3a13.217,13.217,0,0,1-.812,4.987,1.9,1.9,0,0,1-1.989,1.134,8.33,8.33,0,0,1-1.625-.2l-.168-1.064a6.513,6.513,0,0,0,1.709.308,1.206,1.206,0,0,0,1.247-.728,11.758,11.758,0,0,0,.658-4.315c0-1.3-.588-1.527-1.471-1.527-.35,0-.938.042-1.583.1a27.939,27.939,0,0,1-2.928,7.452L102,207.731a22.385,22.385,0,0,0,2.928-6.948c-.757.071-1.471.155-1.849.183-.322.042-.841.111-1.191.168l-.112-1.107a11.266,11.266,0,0,0,1.191,0c.476-.014,1.3-.085,2.171-.154a16.354,16.354,0,0,0,.364-3.025Zm4.763,1.625a23,23,0,0,1,2.562,4.9l-.966.463A16.648,16.648,0,0,0,110.517,199Zm.727.183a15.294,15.294,0,0,0-1.148-1.948l.686-.294a19.988,19.988,0,0,1,1.163,1.933Zm1.556-.561a11.789,11.789,0,0,0-1.177-1.934l.687-.293a18.747,18.747,0,0,1,1.19,1.918Z"/><path d="M121.3,202.254v6.584h-.9v-1.415c-1.737.224-3.474.448-4.777.6l-.1-.826,1.359-.14v-4.805h-1.233v-.784h12.244v.784Zm5.028-1.61h-9.007v-4.119h9.007Zm-5.925,1.61h-2.661v1.022H120.4Zm-2.661,2.788H120.4v-1.051h-2.661Zm2.661,1.625v-.911h-2.661v1.205Zm5.015-9.47h-7.2v1.051h7.2Zm0,1.709h-7.2v1.051h7.2Zm2.031,4.483a7.667,7.667,0,0,1-2.13,3.3,7.668,7.668,0,0,0,2.9,1.4,4.572,4.572,0,0,0-.574.727,8.078,8.078,0,0,1-2.97-1.582,9.885,9.885,0,0,1-2.872,1.5,3.569,3.569,0,0,0-.5-.728,9.2,9.2,0,0,0,2.76-1.359,8.027,8.027,0,0,1-1.6-2.535l.574-.168H121.8v-.757h4.917l.168-.027Zm-4.2.56a6.737,6.737,0,0,0,1.443,2.185,6.98,6.98,0,0,0,1.625-2.185Z"/><path d="M136.583,201.077c1,3.152,2.844,5.743,5.548,6.878a4.683,4.683,0,0,0-.687.868c-2.731-1.288-4.566-3.88-5.645-7.157a9.924,9.924,0,0,1-5.645,7.172,3.669,3.669,0,0,0-.7-.771,9.209,9.209,0,0,0,5.491-6.99h-5.238v-.952h5.406a28.729,28.729,0,0,0,.225-4.021h.98a30.886,30.886,0,0,1-.238,4.021h5.841v.952Z"/><path d="M146.479,197.323a8.1,8.1,0,0,0-.238.869,31.7,31.7,0,0,0-.686,5.365,15.043,15.043,0,0,0,.126,2.087c.238-.659.56-1.527.8-2.1l.546.406a31,31,0,0,0-.98,3.068,2.3,2.3,0,0,0-.056.6c0,.154.028.336.042.477l-.911.069a17.5,17.5,0,0,1-.5-4.454,36.873,36.873,0,0,1,.645-5.575,7.1,7.1,0,0,0,.084-.91Zm3.166,6.7a4.8,4.8,0,0,0-.21,1.288c0,.63.42,1.289,2.4,1.289a15,15,0,0,0,3.432-.365l.028,1.065a18.5,18.5,0,0,1-3.446.28c-2.311,0-3.333-.77-3.333-2.045a7.539,7.539,0,0,1,.223-1.6Zm5.2-5.618v1.036a34.335,34.335,0,0,1-5.646,0v-1.022A23.07,23.07,0,0,0,154.842,198.4Z"/><path d="M164.752,199.354a19.581,19.581,0,0,1-2.522.5,24.016,24.016,0,0,1-3.04,5.856l-.98-.5a19.872,19.872,0,0,0,3-5.239q-.653.042-1.3.042c-.518,0-1.093-.014-1.611-.042l-.056-.939a14.657,14.657,0,0,0,1.667.084c.5,0,1.05-.027,1.6-.07a10.69,10.69,0,0,0,.448-2.409l1.12.1c-.126.5-.322,1.372-.546,2.185a13.689,13.689,0,0,0,2.2-.518Zm1.582,1.667a12.381,12.381,0,0,0,0,1.443c.015.532.07,1.471.1,2.353a9.652,9.652,0,0,1,2.871,1.723l-.546.855a9.69,9.69,0,0,0-2.283-1.6c.013.238.013.448.013.631,0,1.078-.728,1.961-2.4,1.961-1.5,0-2.732-.589-2.732-1.948,0-1.26,1.234-2.045,2.732-2.045a7.544,7.544,0,0,1,1.4.14c-.056-1.148-.126-2.535-.154-3.516Zm-.813,4.413a5.453,5.453,0,0,0-1.456-.21c-1.064,0-1.765.476-1.765,1.148s.532,1.121,1.667,1.121c1.163,0,1.569-.658,1.569-1.331C165.536,205.966,165.536,205.714,165.521,205.434Zm3.657-4.1a16.426,16.426,0,0,0-3.152-1.892l.5-.77a21.064,21.064,0,0,1,3.208,1.835Z"/><path d="M181.2,198.052c-.238.168-.532.364-.728.518-.673.5-2.606,2.227-3.712,3.152a5.757,5.757,0,0,1,1.989-.308c2.3,0,3.936,1.372,3.936,3.222,0,2.255-1.891,3.655-4.749,3.655-1.877,0-2.984-.826-2.984-1.933a1.921,1.921,0,0,1,2.088-1.764,2.741,2.741,0,0,1,2.829,2.478,2.514,2.514,0,0,0,1.821-2.436c0-1.387-1.386-2.409-3.166-2.409-2.311,0-3.557.952-5.365,2.758l-.727-.756c1.175-.966,2.968-2.479,3.781-3.152.77-.643,2.536-2.142,3.25-2.759-.742.028-3.628.168-4.342.2-.309.028-.6.042-.9.085l-.029-1.051a7.319,7.319,0,0,0,.939.056c.714,0,4.048-.113,4.776-.182a4.168,4.168,0,0,0,.7-.112Zm-2.241,9.259a1.942,1.942,0,0,0-1.934-1.919c-.658,0-1.148.379-1.148.9,0,.7.841,1.107,1.919,1.107A7.561,7.561,0,0,0,178.962,207.311Z"/><path d="M196.071,207.563a9.855,9.855,0,0,0-3.7-2.311c.015.392.028.742.028,1.009,0,1.12-.714,2.058-2.479,2.058-1.891,0-3.277-.6-3.277-2.129,0-1.218,1.064-2.227,3.445-2.227a7.1,7.1,0,0,1,1.233.1c-.056-1.135-.112-2.411-.112-3.265v-2.591a9.767,9.767,0,0,0-.112-1.331H192.3a11.317,11.317,0,0,0-.113,1.331v1.471c1.107-.029,2.886-.1,4.147-.252l.042.938c-1.261.126-3.054.224-4.189.239v.195c0,.911.071,2.269.14,3.474a10.89,10.89,0,0,1,4.329,2.353Zm-4.72-2.578a7.493,7.493,0,0,0-1.372-.139c-1.5,0-2.34.518-2.34,1.3s.784,1.233,2.185,1.233c1.036,0,1.555-.477,1.555-1.443C191.379,205.7,191.365,205.364,191.351,204.985Z"/><path d="M206.485,201.035a12.679,12.679,0,0,0-3.809.715,10.942,10.942,0,0,0-1.15.392l-.322-1.163a8.249,8.249,0,0,0,1.234-.209,18.181,18.181,0,0,1,4.131-.673c1.934,0,3.405,1.079,3.405,3.026,0,3.011-2.676,4.692-6.234,5.238l-.589-.952c3.348-.434,5.758-1.793,5.758-4.328A2.143,2.143,0,0,0,206.485,201.035Zm2.382-3.473-.154.966c-1.527-.1-4.286-.379-5.842-.658l.154-.953A40.4,40.4,0,0,0,208.867,197.562Z"/><path d="M216.479,197.323a8.1,8.1,0,0,0-.238.869,31.7,31.7,0,0,0-.686,5.365,15.043,15.043,0,0,0,.126,2.087c.238-.659.56-1.527.8-2.1l.546.406a31,31,0,0,0-.98,3.068,2.3,2.3,0,0,0-.056.6c0,.154.028.336.042.477l-.911.069a17.5,17.5,0,0,1-.5-4.454,36.873,36.873,0,0,1,.645-5.575,7.1,7.1,0,0,0,.084-.91Zm3.166,6.7a4.8,4.8,0,0,0-.21,1.288c0,.63.42,1.289,2.4,1.289a15,15,0,0,0,3.432-.365l.028,1.065a18.5,18.5,0,0,1-3.446.28c-2.311,0-3.333-.77-3.333-2.045a7.539,7.539,0,0,1,.223-1.6Zm5.2-5.618v1.036a34.335,34.335,0,0,1-5.646,0v-1.022A23.07,23.07,0,0,0,224.842,198.4Z"/><path d="M231.488,196.959c-.07.421-.1.869-.127,1.3-.055,1.583-.168,4.888-.168,7.032,0,1.541,1.009,2.087,2.34,2.087a5.8,5.8,0,0,0,5.015-2.886l.7.869a6.908,6.908,0,0,1-5.743,3.026c-1.947,0-3.306-.8-3.306-3.04,0-2.1.14-5.576.14-7.088a6.243,6.243,0,0,0-.111-1.317Z"/><path d="M243.274,198.472c.855-.084,3.544-.35,6.094-.56,1.527-.141,2.787-.21,3.7-.238v.994a11.487,11.487,0,0,0-2.716.225,4.956,4.956,0,0,0-3.208,4.467c0,2.788,2.591,3.643,4.833,3.727l-.365,1.036c-2.507-.084-5.463-1.414-5.463-4.538a5.63,5.63,0,0,1,2.662-4.749c-1.219.141-5.156.518-6.64.827l-.112-1.121C242.588,198.528,243.009,198.5,243.274,198.472Z"/><path d="M264.545,197.449c-.267.21-.687.574-.9.757-.966.855-3,2.465-4.034,3.334-.854.729-.869.952.056,1.709,1.3,1.036,3.851,3.165,5.2,4.524l-.883.8c-.266-.307-.63-.658-.91-.952-.757-.826-3.11-2.83-4.413-3.894-1.3-1.079-1.135-1.681.084-2.717,1.037-.869,3.18-2.55,4.118-3.517a5.135,5.135,0,0,0,.743-.882Z"/><path d="M276.766,199.705a27.54,27.54,0,0,1-2.914.476c-.126.6-.28,1.247-.434,1.849a39.882,39.882,0,0,1-2.172,6.345l-1.106-.364a31.1,31.1,0,0,0,2.311-6.2c.126-.476.252-1.009.378-1.541-.475.042-.938.056-1.345.056-.6,0-1.091-.014-1.6-.056l-.029-.981a12.293,12.293,0,0,0,1.654.112c.462,0,.966-.028,1.512-.07.1-.532.183-.994.225-1.288a5.01,5.01,0,0,0,.056-1.093l1.205.1c-.084.295-.183.8-.239,1.064l-.224,1.122a23.141,23.141,0,0,0,2.718-.519Zm-.6,4.916a5.039,5.039,0,0,0-.21,1.261c0,.658.309,1.317,2.367,1.317a14.014,14.014,0,0,0,2.69-.266l-.042,1.022a18.165,18.165,0,0,1-2.661.2c-2.158,0-3.292-.658-3.292-2.031a8.848,8.848,0,0,1,.2-1.6Zm-.266-3.361c.714-.057,1.611-.113,2.507-.113a21.988,21.988,0,0,1,2.4.113l-.029.967a17.264,17.264,0,0,0-2.325-.169c-.854,0-1.709.056-2.549.14Zm3.909-1.583a17.312,17.312,0,0,0-1.15-1.948l.673-.293a17.56,17.56,0,0,1,1.162,1.932Zm1.049-2.8a16.693,16.693,0,0,1,1.192,1.919l-.687.322a12.89,12.89,0,0,0-1.176-1.947Z"/><path d="M294.59,199.326c-.869.225-1.793.435-2.648.574.476,1.093,1.246,2.76,1.877,3.937l-.6.6c-.561-.112-1.933-.308-2.816-.392l.1-.813c.547.042,1.556.155,2.031.21-.42-.9-1.148-2.423-1.568-3.4a28.581,28.581,0,0,1-5.911.042l-.029-1.009a23.931,23.931,0,0,0,5.547.084l-.49-1.093a9.434,9.434,0,0,0-.574-1.133l1.135-.211c.336.967.6,1.569.91,2.3a17.729,17.729,0,0,0,2.857-.687Zm-7.859,4.217a5.3,5.3,0,0,0-.406,1.765c0,1.26.9,2,2.984,2a14.582,14.582,0,0,0,3.614-.378l-.014,1.036a18.065,18.065,0,0,1-3.614.308c-2.55,0-3.964-1.022-3.964-2.731a7.831,7.831,0,0,1,.378-2.1Z"/><path d="M299.751,199.368a31.947,31.947,0,0,0,.112,3.334c.224,2.382.939,3.937,1.947,3.937.714,0,1.386-1.4,1.751-2.844l.812.883c-.826,2.339-1.681,3.137-2.591,3.137-1.261,0-2.521-1.3-2.9-4.875-.127-1.19-.154-2.871-.154-3.683a7.072,7.072,0,0,0-.084-1.205l1.218.028A11.93,11.93,0,0,0,299.751,199.368Zm9.819,5.856-1.008.392a13.654,13.654,0,0,0-2.4-6.807l.967-.337A14.405,14.405,0,0,1,309.57,205.224Z"/><path d="M65.785,249.021a1.443,1.443,0,1,1-1.442,1.443A1.442,1.442,0,0,1,65.785,249.021Z"/><path d="M84.926,247.019a3.9,3.9,0,0,0-.308.7,13.66,13.66,0,0,1-2.479,4.846,12.4,12.4,0,0,1-5.562,3.8l-.91-.826a11.308,11.308,0,0,0,5.589-3.53,11.567,11.567,0,0,0,2.269-4.468h-4.86A13.567,13.567,0,0,1,75.106,251l-.868-.643a11.547,11.547,0,0,0,4.412-4.763,5.679,5.679,0,0,0,.407-1.051l1.148.378c-.21.351-.434.785-.574,1.037-.111.224-.237.448-.378.687h3.964a2.348,2.348,0,0,0,.869-.127Z"/><path d="M91.1,245.31c-.029.252-.042.686-.042.994v4.665c0,.364.013.812.042,1.051H89.934A9.143,9.143,0,0,0,90,250.969V246.3c0-.252-.027-.742-.056-.994Zm6.485-.1c-.027.337-.042.715-.042,1.177v2.172c0,3.431-.434,4.509-1.442,5.714a7.247,7.247,0,0,1-3.321,2.045l-.812-.854a6.518,6.518,0,0,0,3.362-1.891c1.009-1.177,1.177-2.325,1.177-5.056v-2.13c0-.462-.042-.84-.07-1.177Z"/><path d="M105.516,251.613l-.953.365a25.216,25.216,0,0,0-1.247-3.153l.925-.364C104.508,249.035,105.25,250.9,105.516,251.613Zm7.032-3.095c-.084.252-.154.461-.2.629a11.15,11.15,0,0,1-1.99,4.343,10.678,10.678,0,0,1-4.551,3.291l-.828-.84a9.4,9.4,0,0,0,4.539-2.969,9.865,9.865,0,0,0,1.961-4.805Zm-3.964,2.254-.925.336a24.474,24.474,0,0,0-1.078-3.025l.924-.322C107.729,248.321,108.416,250.17,108.584,250.772Z"/><path d="M126.926,247.019a3.9,3.9,0,0,0-.309.7,13.64,13.64,0,0,1-2.478,4.846,12.409,12.409,0,0,1-5.562,3.8l-.91-.826a11.312,11.312,0,0,0,5.589-3.53,11.58,11.58,0,0,0,2.269-4.468h-4.861A13.546,13.546,0,0,1,117.106,251l-.868-.643a11.554,11.554,0,0,0,4.412-4.763,5.679,5.679,0,0,0,.407-1.051l1.148.378c-.21.351-.434.785-.574,1.037-.112.224-.238.448-.378.687h3.964a2.346,2.346,0,0,0,.868-.127Z"/><path d="M137.41,247.452c0,.813.014,1.682.028,2.312a3.453,3.453,0,0,1,.434,1.751c0,1.891-.883,3.936-4.076,4.9l-.868-.84c1.9-.448,3.179-1.261,3.7-2.577a1.864,1.864,0,0,1-1.26.434,2.2,2.2,0,0,1-2.269-2.3,2.391,2.391,0,0,1,2.4-2.382,2.468,2.468,0,0,1,.994.2l-.013-1.484c-2.116.013-4.511.112-6.248.238l-.028-.98c1.541-.029,4.146-.113,6.261-.141-.014-.42-.014-.784-.027-.994a5.245,5.245,0,0,0-.1-.813h1.163a7.052,7.052,0,0,0-.07.8c-.014.238-.014.589-.014,1h.294c1.737,0,3.376,0,4.006.014v.938c-.771-.042-2-.07-4.02-.07Zm-.616,3.124a1.285,1.285,0,0,0-1.3-.967,1.46,1.46,0,0,0-1.457,1.514,1.378,1.378,0,0,0,1.471,1.429C136.359,252.552,136.892,251.879,136.794,250.576Z"/><path d="M153.2,246.052c-.238.168-.532.364-.728.518-.673.5-2.606,2.227-3.712,3.152a5.757,5.757,0,0,1,1.989-.308c2.3,0,3.936,1.372,3.936,3.222,0,2.255-1.891,3.655-4.749,3.655-1.877,0-2.984-.826-2.984-1.933a1.921,1.921,0,0,1,2.088-1.764,2.741,2.741,0,0,1,2.829,2.478,2.514,2.514,0,0,0,1.821-2.436c0-1.387-1.386-2.409-3.166-2.409-2.311,0-3.557.952-5.365,2.758l-.727-.756c1.175-.966,2.968-2.479,3.781-3.152.77-.643,2.536-2.142,3.25-2.759-.742.028-3.628.168-4.342.2-.309.028-.6.042-.9.085l-.029-1.051a7.319,7.319,0,0,0,.939.056c.714,0,4.048-.113,4.776-.182a4.168,4.168,0,0,0,.7-.112Zm-2.241,9.259a1.942,1.942,0,0,0-1.934-1.919c-.658,0-1.148.379-1.148.9,0,.7.841,1.107,1.919,1.107A7.561,7.561,0,0,0,150.962,255.311Z"/><path d="M167.819,247.425c-.294.168-.616.349-1.008.546a44.875,44.875,0,0,0-4.273,2.34c-1.316.854-2.087,1.778-2.087,2.842,0,1.177,1.107,1.919,3.348,1.919a21.012,21.012,0,0,0,4.427-.462l-.015,1.121a26.759,26.759,0,0,1-4.37.336c-2.577,0-4.426-.784-4.426-2.8,0-1.4.882-2.536,2.409-3.586a45.175,45.175,0,0,1-2.017-4.3l.98-.406a31.3,31.3,0,0,0,1.877,4.16c1.331-.813,2.9-1.555,3.67-2a7.75,7.75,0,0,0,.938-.617Z"/><path d="M176.58,247.074a18.8,18.8,0,0,1-1.316,6.094,10.373,10.373,0,0,1,1.638,1.513l-.56.742a11.215,11.215,0,0,0-1.485-1.443,7.42,7.42,0,0,1-2.745,2.9,3.759,3.759,0,0,0-.574-.757,6.38,6.38,0,0,0,2.591-2.7c-.5-.378-1.051-.742-1.568-1.065l-.168.617-.786-.407c.365-1.2.8-2.956,1.205-4.72h-1.359v-.855h1.556c.223-1.022.433-2.031.6-2.913l.883.1c-.168.868-.378,1.835-.6,2.815h1.961l.169-.028Zm-2.885.771c-.295,1.289-.617,2.563-.911,3.683.561.323,1.163.7,1.737,1.093a16.672,16.672,0,0,0,1.121-4.776Zm8.39-1.611a15.869,15.869,0,0,1,2.269,3.726l-.784.462c-.112-.294-.266-.644-.448-1.008-2.3.168-4.665.35-6.332.448l-.111-.9,1.106-.057a35.642,35.642,0,0,0,1.667-4.832l1.009.224c-.49,1.443-1.149,3.236-1.751,4.553,1.2-.071,2.577-.168,3.964-.252a18.234,18.234,0,0,0-1.331-1.99Zm-4.44,4.987h5.912V256.8h-.925v-.589h-4.105v.645h-.882Zm.882.854v3.278h4.105v-3.278Z"/><path d="M196.254,255.577a10.113,10.113,0,0,0-3.433-2.1c.015.378.029.686.029.911,0,.924-.588,1.932-2.4,1.932-1.961,0-3.054-.7-3.054-2.016,0-1.234,1.2-2.074,3.195-2.074a6.923,6.923,0,0,1,1.218.1c-.028-.658-.056-1.358-.07-1.961h-.8c-.965,0-2.493-.084-3.5-.2v-.952a27.021,27.021,0,0,0,3.517.252h.756v-2.1c-.224.015-.462.015-.7.015a30.319,30.319,0,0,1-3.306-.21v-.925a22.381,22.381,0,0,0,3.292.266h.728v-.952a6.725,6.725,0,0,0-.056-.813h1.064c-.027.238-.055.49-.069.91,0,.169-.015.463-.015.827a31.615,31.615,0,0,0,3.615-.364l.013.939c-1.135.112-2.325.223-3.628.28v2.1a35.135,35.135,0,0,0,3.9-.378v.953c-1.331.169-2.564.266-3.88.322.027.743.069,1.513.1,2.185a11.65,11.65,0,0,1,4.062,2.186Zm-4.413-2.367a7.361,7.361,0,0,0-1.372-.141c-1.387,0-2.13.533-2.13,1.192s.56,1.162,2,1.162c.812,0,1.513-.238,1.513-1.233C191.855,253.938,191.841,253.588,191.841,253.21Z"/><path d="M203.5,244.819a26.557,26.557,0,0,0-.658,4.02c.532-1.5,2.016-3.319,3.809-3.319,1.835,0,3.138,1.848,3.138,4.734,0,3.838-2.437,5.5-5.827,6.121l-.588-.9c2.983-.449,5.379-1.708,5.379-5.2,0-2.213-.729-3.852-2.256-3.852-1.736,0-3.375,2.521-3.558,4.342a5.585,5.585,0,0,0,.029,1.738l-.981.084a16.753,16.753,0,0,1-.14-2.186,35.276,35.276,0,0,1,.434-4.482c.056-.435.084-.826.113-1.149Z"/><path d="M224.254,255.577a10.113,10.113,0,0,0-3.433-2.1c.015.378.029.686.029.911,0,.924-.588,1.932-2.4,1.932-1.961,0-3.054-.7-3.054-2.016,0-1.234,1.2-2.074,3.195-2.074a6.923,6.923,0,0,1,1.218.1c-.028-.658-.056-1.358-.07-1.961h-.8c-.965,0-2.493-.084-3.5-.2v-.952a27.021,27.021,0,0,0,3.517.252h.756v-2.1c-.224.015-.462.015-.7.015a30.319,30.319,0,0,1-3.306-.21v-.925a22.381,22.381,0,0,0,3.292.266h.728v-.952a6.725,6.725,0,0,0-.056-.813h1.064c-.027.238-.055.49-.069.91,0,.169-.015.463-.015.827a31.615,31.615,0,0,0,3.615-.364l.013.939c-1.135.112-2.325.223-3.628.28v2.1a35.135,35.135,0,0,0,3.9-.378v.953c-1.331.169-2.564.266-3.88.322.027.743.069,1.513.1,2.185a11.65,11.65,0,0,1,4.062,2.186Zm-4.413-2.367a7.361,7.361,0,0,0-1.372-.141c-1.387,0-2.13.533-2.13,1.192s.56,1.162,2,1.162c.812,0,1.513-.238,1.513-1.233C219.855,253.938,219.841,253.588,219.841,253.21Z"/><path d="M235.41,247.452c0,.813.014,1.682.028,2.312a3.453,3.453,0,0,1,.434,1.751c0,1.891-.883,3.936-4.076,4.9l-.868-.84c1.9-.448,3.179-1.261,3.7-2.577a1.864,1.864,0,0,1-1.26.434,2.2,2.2,0,0,1-2.269-2.3,2.391,2.391,0,0,1,2.4-2.382,2.468,2.468,0,0,1,.994.2l-.013-1.484c-2.116.013-4.511.112-6.248.238l-.028-.98c1.541-.029,4.146-.113,6.261-.141-.014-.42-.014-.784-.027-.994a5.245,5.245,0,0,0-.1-.813h1.163a7.052,7.052,0,0,0-.07.8c-.014.238-.014.589-.014,1h.294c1.737,0,3.376,0,4.006.014v.938c-.771-.042-2-.07-4.02-.07Zm-.616,3.124a1.285,1.285,0,0,0-1.3-.967,1.46,1.46,0,0,0-1.457,1.514,1.378,1.378,0,0,0,1.471,1.429C234.359,252.552,234.892,251.879,234.794,250.576Z"/></g></svg>